<?xml version="1.0" encoding="UTF-8" standalone="no"?>
<!-- Created with Inkscape (http://www.inkscape.org/) -->

<svg
   width="1920"
   height="1080"
   viewBox="0 0 507.99999 285.75001"
   version="1.1"
   id="svg5"
   inkscape:version="1.1.2 (0a00cf5339, 2022-02-04)"
   sodipodi:docname="bottom_paper_tear.svg"
   xmlns:inkscape="http://www.inkscape.org/namespaces/inkscape"
   xmlns:sodipodi="http://sodipodi.sourceforge.net/DTD/sodipodi-0.dtd"
   xmlns:xlink="http://www.w3.org/1999/xlink"
   xmlns="http://www.w3.org/2000/svg"
   xmlns:svg="http://www.w3.org/2000/svg">
  <sodipodi:namedview
     id="namedview7"
     pagecolor="#ffffff"
     bordercolor="#999999"
     borderopacity="1"
     inkscape:pageshadow="0"
     inkscape:pageopacity="0"
     inkscape:pagecheckerboard="0"
     inkscape:document-units="mm"
     showgrid="false"
     units="px"
     width="1920px"
     inkscape:snap-page="true"
     inkscape:zoom="1.4142136"
     inkscape:cx="989.94949"
     inkscape:cy="1266.7818"
     inkscape:window-width="1920"
     inkscape:window-height="1026"
     inkscape:window-x="0"
     inkscape:window-y="0"
     inkscape:window-maximized="1"
     inkscape:current-layer="layer1"
     showguides="false" />
  <defs
     id="defs2">
    <linearGradient
       inkscape:collect="always"
       id="linearGradient3272">
      <stop
         style="stop-color:#000000;stop-opacity:1"
         offset="0"
         id="stop3268" />
      <stop
         style="stop-color:#aa0000;stop-opacity:0;"
         offset="1"
         id="stop3270" />
    </linearGradient>
    <inkscape:path-effect
       effect="lattice2"
       gridpoint0="-0.0014212373,86.942196"
       gridpoint1="507.99461,86.942196"
       gridpoint2="-0.0014212373,94.012166"
       gridpoint3="507.99461,94.012166"
       gridpoint4="126.99759,86.942196"
       gridpoint5="380.9956,86.942196"
       gridpoint6="126.99759,94.012166"
       gridpoint7="380.9956,94.012166"
       gridpoint8x9="254.05115,84.487074"
       gridpoint10x11="252.692,97.68565"
       gridpoint12="-0.0014212373,88.709689"
       gridpoint13="507.99461,88.709689"
       gridpoint14="-0.0014212373,92.244674"
       gridpoint15="507.99461,92.244674"
       gridpoint16="126.99759,88.709689"
       gridpoint17="380.9956,88.709689"
       gridpoint18="126.99759,92.244674"
       gridpoint19="380.9956,92.244674"
       gridpoint20x21="253.99659,88.709689"
       gridpoint22x23="253.3419,94.099654"
       gridpoint24x26="-0.0014212373,90.477181"
       gridpoint25x27="507.99461,90.477181"
       gridpoint28x30="126.99759,90.477181"
       gridpoint29x31="380.9956,90.477181"
       gridpoint32x33x34x35="254.54218,90.258949"
       id="path-effect2558"
       is_visible="true"
       lpeversion="1"
       horizontal_mirror="false"
       vertical_mirror="false"
       perimetral="false"
       live_update="true" />
    <inkscape:path-effect
       effect="envelope"
       id="path-effect1940"
       is_visible="true"
       lpeversion="1"
       yy="true"
       xx="true"
       bendpath1="M 0.00484834,85.754171 H 508.00838"
       bendpath2="m 508.00838,85.754171 v 9.10683"
       bendpath3="M 0.00484834,94.861001 H 508.00838"
       bendpath4="m 0.00484834,85.754171 v 9.10683" />
    <inkscape:path-effect
       effect="lattice2"
       gridpoint0="-0.0039546848,86.857501"
       gridpoint1="508.00104,86.857501"
       gridpoint2="-0.0039546848,94.041857"
       gridpoint3="508.00104,94.041857"
       gridpoint4="127.00808,87.903942"
       gridpoint5="380.98901,87.903942"
       gridpoint6="127.00808,92.995415"
       gridpoint7="380.98901,92.995415"
       gridpoint8x9="256.58857,88.188987"
       gridpoint10x11="256.58857,92.710371"
       gridpoint12="-0.0039554441,87.679482"
       gridpoint13="508.00104,87.679482"
       gridpoint14="-0.0039554441,93.219875"
       gridpoint15="508.00104,93.219875"
       gridpoint16="126.99531,89.174399"
       gridpoint17="381.00177,89.174399"
       gridpoint18="126.99531,91.724958"
       gridpoint19="381.00177,91.724958"
       gridpoint20x21="253.99854,89.174399"
       gridpoint22x23="253.99854,91.724958"
       gridpoint24x26="-0.0016734348,90.449679"
       gridpoint25x27="507.99876,90.449679"
       gridpoint28x30="126.99531,90.449679"
       gridpoint29x31="381.00177,90.449679"
       gridpoint32x33x34x35="253.99854,90.449679"
       id="path-effect866"
       is_visible="true"
       lpeversion="1"
       horizontal_mirror="false"
       vertical_mirror="false"
       perimetral="false"
       live_update="true" />
    <radialGradient
       inkscape:collect="always"
       xlink:href="#linearGradient3272"
       id="radialGradient3274"
       cx="182.73688"
       cy="-35.703594"
       fx="182.73688"
       fy="-35.703594"
       r="254.00052"
       gradientTransform="matrix(8.4397452e-7,0.11945285,-0.8988396,-2.6237458e-6,204.36922,233.58038)"
       gradientUnits="userSpaceOnUse" />
  </defs>
  <g
     inkscape:label="Layer 1"
     inkscape:groupmode="layer"
     id="layer1">
    <rect
       style="opacity:1;fill:#0000ff;stroke-width:1.06927;stroke-linecap:round;paint-order:markers fill stroke"
       id="rect2886"
       width="508.00104"
       height="22.37693"
       x="0"
       y="263.37305"
       ry="0" />
    <rect
       style="opacity:1;fill:url(#radialGradient3274);fill-opacity:1;stroke-width:1.06927;stroke-linecap:round;paint-order:markers fill stroke"
       id="rect3236"
       width="508.00104"
       height="22.37693"
       x="0"
       y="263.37305"
       ry="0" />
    <path
       id="path846"
       style="fill:#ffffff;stroke:none;stroke-width:0.0626104px;stroke-linecap:butt;stroke-linejoin:miter;stroke-opacity:1"
       d="m 406.45474,85.990148 c -0.43515,-0.0061 -0.89995,-0.0098 -1.07987,-0.002 0,1e-5 -0.54811,0.150114 -0.54832,0.150127 -0.14107,0.01279 -1.09945,-0.064 -1.34908,-0.01592 -0.11495,0.02211 -0.1603,0.09533 -0.27541,0.124076 -0.0304,0.0076 -2.16332,0.323163 -2.17218,0.320854 -0.18923,-0.04937 -0.33908,-0.159619 -0.53296,-0.193079 -0.62019,-0.107107 -1.60452,0.164178 -2.15831,-0.02344 -0.95627,-0.323959 -0.57002,-0.528471 -2.40965,-0.414079 -0.54836,0.03412 -0.65626,0.285277 -1.0986,0.37618 -0.15672,0.03213 -6.07146,-0.01924 -6.20634,-0.0663 -0.56412,-0.196881 -0.49824,-0.186421 -0.26209,-0.167511 0.0676,0.0054 0.47023,0.0323 -0.26264,-0.135674 -0.45896,-0.105177 -3.08874,-0.03511 -3.77806,-0.04288 -0.5827,-0.0066 -1.6714,0.05278 -2.15946,-0.02425 -0.23939,-0.03784 -0.3033,-0.14874 -0.52955,-0.170566 -0.24032,-0.02317 -0.53961,-0.0062 -0.80984,-0.0093 -0.44874,-0.0051 -0.91256,-0.02885 -1.34921,-0.01539 -0.41806,0.01285 -0.42306,0.07429 -0.82041,0.156258 -0.65969,0.136084 -1.72025,-0.122661 -2.42952,-0.02664 -0.44969,0.06083 -0.7747,0.385446 -1.64459,0.494236 -1.46431,0.183152 -3.19077,-0.409617 -4.59162,-0.04286 -0.19303,0.0505 -0.34733,0.234216 -0.54868,0.232502 -0.27342,-0.0023 -0.54963,-0.163663 -0.80166,-0.244911 -0.44865,-0.14459 -0.92004,-0.249644 -1.33355,-0.394048 -0.21718,-0.0759 -0.29126,-0.216855 -0.52574,-0.249043 -0.24899,-0.0342 -0.54013,-0.0057 -0.81055,-0.0086 -0.44078,0.0016 -1.35051,-0.01416 -1.35051,-0.01416 -0.78338,-0.0082 -1.12528,0.034 -1.8984,0.08464 -0.72198,0.04726 -1.79791,-0.161231 -2.43211,-0.02442 -0.41983,0.09056 -0.2269,0.251112 -0.56716,0.526079 -0.24607,0.198884 -0.52415,0.354289 -0.8278,0.512782 -0.39029,0.203685 -2.08771,-0.015 -2.70442,-0.01937 -0.60287,-0.0043 -0.94659,0.0082 -1.61389,-0.289974 -0.40594,-0.18131 -0.7116,-0.478745 -1.05416,-0.651076 -0.0969,-0.04879 -0.13446,-0.145556 -0.26194,-0.146764 -0.41697,-0.0039 -1.14844,0.157762 -1.38004,0.528315 -0.0432,0.06909 0.0568,0.18691 -0.009,0.248819 -0.89696,0.844178 -1.41653,0.989305 -2.23434,0.95279 -0.69641,-0.0311 -1.5136,-0.200784 -2.4007,0.324592 -1.60875,0.952753 -0.41953,1.24556 -2.2081,1.24449 -0.27156,-1.62e-4 -0.59778,0.248966 -0.81262,-4.82e-4 -0.2019,-0.234526 -0.28624,-0.686764 -0.50945,-0.86011 -0.089,-0.06916 -0.98589,-0.228182 -1.07232,-0.401835 -0.0211,-0.04254 -0.39993,-1.419749 -0.76707,-1.586868 -0.76088,-0.346299 -1.50332,0.455971 -1.86112,1.672995 -0.48768,0.05249 -1.00198,0.182426 -1.2667,0.04954 -0.11951,-0.0601 -0.14857,-0.308884 -0.26081,-0.388436 -0.47846,-0.338905 -1.13894,0.023 -1.63571,0.382227 -0.23324,0.168587 -0.31506,0.849401 -0.57063,0.849095 -0.20204,-2.42e-4 -0.0656,-0.71689 -0.24252,-0.851719 -0.40346,-0.307461 -0.92804,-0.140434 -1.345,-0.395304 -0.23132,-0.141455 -0.28373,-0.605346 -0.52349,-0.702152 -0.414,-0.167194 -0.9544,-0.239213 -1.35554,-0.0075 -0.11618,0.06708 -0.15751,0.283205 -0.2801,0.335144 -0.43341,0.183476 -0.91373,-0.147042 -1.35585,-0.0064 -0.4742,0.150717 -0.9496,0.38297 -1.37555,0.756849 -0.10567,0.09258 -0.0909,1.280315 -0.57215,0.862996 -0.52372,-0.454122 -0.76418,-1.647214 -1.29747,-1.974634 -0.007,-0.0048 -1.30723,-0.302225 -1.34649,-0.316785 -0.24273,-0.08989 -0.53235,-0.725074 -0.78315,-0.726804 -1.26315,-0.0087 -1.47725,0.708723 -2.49223,1.363226 -0.23216,0.14971 -0.91404,-0.09126 -1.70735,-0.281481 -0.77628,-0.186141 -1.70811,-0.336955 -2.35542,-0.0808 -0.54942,0.217305 -1.1842,1.174863 -1.64851,0.715641 -0.20763,-0.205381 -0.31581,-0.551427 -0.52389,-0.725553 -0.0736,-0.06162 -0.19208,0.04857 -0.27166,-0.0012 -0.11251,-0.0703 -0.14948,-0.253143 -0.2619,-0.316598 -0.0795,-0.04489 -0.18885,0.03615 -0.27166,-0.0013 -1.27359,-0.574156 -0.93815,-0.531191 -2.15216,-0.537973 -0.35325,0.01466 -1.08706,-0.006 -1.08706,-0.006 -0.0822,-4.51e-4 -0.2294,-0.05764 -0.26002,-0.01304 -0.73903,-0.03495 -1.79647,-0.180651 -2.4578,-0.0016 -0.15465,0.04199 -0.70326,1.266976 -1.13885,1.577476 -0.28725,0.204767 -0.56047,-0.237429 -0.79592,-0.682415 -0.25379,-0.479634 -0.39554,-0.80468 -0.51209,-0.907668 -0.0615,-0.05431 -0.18183,-9.16e-4 -0.27253,-0.0014 -0.44407,0.01455 -1.35953,-0.0067 -1.35953,-0.0067 -0.63287,-0.0031 -1.29581,-0.175753 -1.90457,-0.0092 -0.20405,0.05585 -1.08508,0.476556 -1.37112,0.242437 -0.46133,-0.377562 -0.54099,-0.640703 -1.04794,-0.765832 -0.0997,-0.02461 -0.57024,0.156622 -1.14224,0.762447 -0.55322,0.585933 -1.14736,1.563117 -1.40169,1.75893 -0.16503,0.126905 -0.6336,-0.0012 -0.81712,-0.0015 -2.25265,-0.0041 -1.6931,-0.731603 -3.76008,-1.786526 -0.39798,-0.203116 -0.90847,-0.0033 -1.36266,-0.0049 -0.27215,-9.57e-4 -0.56031,-0.102596 -0.81716,-0.0028 -0.0392,0.01547 -1.06224,1.083262 -1.13239,1.362185 -0.10144,0.403237 0.15548,1.133866 -0.31879,1.339455 -0.28138,0.122014 -2.39052,0.263601 -2.72692,-0.0014 -0.48232,-0.380171 -0.94664,-0.766921 -1.31762,-1.346206 -0.0358,-0.05585 -0.29663,-1.008379 -0.50572,-1.372575 0.01,0.0198 0.002,-5.73e-4 0.002,-5.73e-4 0.008,0.01999 -0.003,-9e-6 -0.003,-9e-6 -0.13428,-0.233586 -0.24982,-0.331648 -0.26817,-0.01865 -0.27334,-0.02367 -0.55689,-0.05792 -0.82045,0.01551 -0.33105,0.09247 -0.56432,0.346989 -0.84003,0.616909 -0.20694,0.20253 -0.34687,0.539979 -0.56691,0.753458 -0.50182,-0.78523 -0.82947,-1.076216 -0.91585,-1.138114 -0.0384,-0.07189 -0.0729,-0.142589 -0.13308,-0.238963 -0.35961,-0.576351 -0.84832,-0.07946 -1.35379,-0.257801 -0.50733,-0.179066 -0.79984,-0.522558 -1.33479,-0.52408 -1.90151,0.0026 -5.73644,-0.01462 -5.73644,-0.01462 -0.66752,-0.0015 -1.76153,-0.07314 -2.45998,-0.0052 -1.12935,0.109889 -1.01659,0.605856 -1.97806,1.399909 -0.23542,0.194343 -0.54508,-6.66e-4 -0.82068,-9.9e-4 -0.79671,-9.37e-4 -1.49398,0.203094 -2.17781,-0.332993 -0.10451,-0.08206 -0.14964,-0.23691 -0.26264,-0.295202 -0.37989,-0.195845 -2.56908,-0.06606 -3.01055,-0.0033 -0.30863,0.04387 -1.0715,0.360923 -1.39074,0.625095 -0.11014,0.09126 -0.15522,0.36542 -0.2843,0.365346 -0.25818,-1.48e-4 -0.28505,-0.603474 -0.52677,-0.696989 -0.17089,-0.06611 -0.36531,-2.48e-4 -0.54784,-3.66e-4 -0.18633,-0.108951 -0.33791,-0.22809 -0.53626,-0.295721 -1.06409,-0.363232 -3.32002,0.361206 -4.38412,-0.002 -0.57353,-0.19556 -1.05703,-0.513555 -1.61187,-0.649361 -0.27709,-0.0679 -0.66959,0.118025 -0.83256,0.175284 -0.18651,0.06555 -0.36323,0.161042 -0.55984,0.21691 -0.40126,-0.117411 -3.27993,-0.574294 -3.53518,-0.523885 -0.11734,0.02315 -0.15913,0.109289 -0.28332,0.132352 -0.17564,0.03253 -0.37326,-0.0323 -0.5489,2.34e-4 -0.1242,0.02305 -0.16695,0.133955 -0.28499,0.175465 -0.54842,0.192751 -2.89824,-0.221353 -4.37306,-0.304404 -1.13442,-0.06388 -2.46405,0.113765 -3.57104,0.0041 -0.19729,-0.01954 -0.34323,-0.07675 -0.54337,-0.08574 -0.19259,-0.0087 -0.64313,-0.01391 -1.09768,-0.01447 -0.44389,-4.03e-4 -0.91651,0.0031 -1.10084,0.01748 0,1.4e-5 -0.56479,0.219537 -0.56498,0.219571 -0.1443,0.02025 -1.11867,-0.06844 -1.37494,0.0024 -0.11799,0.03258 -0.16715,0.133378 -0.28544,0.174885 -0.0347,0.01217 -2.21099,0.479833 -2.22245,0.475992 -0.19187,-0.06441 -0.34212,-0.212184 -0.53901,-0.254472 -0.62978,-0.135372 -1.64099,0.248443 -2.20146,0.0045 -0.96446,-0.419843 -0.56792,-0.705686 -2.44668,-0.51584 -0.56096,0.05672 -0.67821,0.395537 -1.13171,0.524111 -0.15888,0.04495 -6.19883,0.07646 -6.33556,0.0176 -0.57209,-0.246453 -0.50554,-0.234085 -0.26463,-0.21347 0.0717,0.0061 0.47693,0.03395 -0.26537,-0.17251 -0.46276,-0.128728 -3.15905,0.01123 -3.85991,0.01389 -0.59375,0.0023 -1.71075,0.09858 -2.20639,0.0086 -0.24389,-0.04434 -0.30638,-0.188822 -0.53707,-0.214514 -0.24452,-0.02721 -0.55211,0.0023 -0.82787,0.0035 -0.4602,0.002 -0.93099,-0.02157 -1.37945,0.006 -0.42525,0.0261 -0.43817,0.108988 -0.84341,0.220069 -0.67739,0.185647 -1.75708,-0.123381 -2.48436,0.01119 -0.46115,0.08526 -0.7974,0.493673 -1.68813,0.640917 -1.49936,0.247887 -3.26024,-0.443399 -4.69631,0.02028 -0.19788,0.06384 -0.35704,0.286585 -0.563,0.287447 -0.27957,0.0012 -0.56188,-0.187825 -0.819,-0.281124 -0.45795,-0.166095 -0.93945,-0.284286 -1.36108,-0.451458 -0.22145,-0.08773 -0.29527,-0.259664 -0.53473,-0.29586 -0.25374,-0.03838 -0.55275,0.0032 -0.82904,0.0048 -0.45142,0.01045 -1.38289,0.0081 -1.38289,0.0081 -0.80029,0.0047 -1.15375,0.06497 -1.94424,0.1403 -0.73968,0.07049 -1.83961,-0.160767 -2.49042,0.01519 -0.4308,0.116461 -0.23453,0.302114 -0.58395,0.624709 -0.25205,0.232705 -0.53839,0.415945 -0.84904,0.60018 -0.4003,0.237331 -2.13603,0.0097 -2.76752,0.01267 -0.61716,0.0029 -0.96938,0.02104 -1.65205,-0.304965 -0.41528,-0.19784 -0.72768,-0.528584 -1.07771,-0.720586 -0.0991,-0.05436 -0.13693,-0.165703 -0.26749,-0.164803 -0.42653,0.0029 -1.17733,0.207114 -1.41424,0.623356 -0.0443,0.07782 0.0579,0.207433 -0.01,0.277083 -0.91355,0.94372 -1.4572,1.102385 -2.28862,1.070178 -0.71729,-0.02779 -1.54434,-0.202173 -2.4582,0.368931 -1.63563,1.022154 -0.45133,1.327954 -2.26651,1.328088 -0.27773,2e-5 -0.61266,0.260479 -0.83075,6.3e-5 -0.20504,-0.244957 -0.2898,-0.719076 -0.51765,-0.899607 -0.0909,-0.07204 -1.00836,-0.233099 -1.09657,-0.414142 -0.0216,-0.04435 -0.4103,-1.491241 -0.78668,-1.664691 -0.48728,-0.224523 -1.03037,0.08112 -1.41311,0.6677 -0.35263,-0.582146 -0.86692,-0.879191 -1.37271,-0.648428 -0.38954,0.177729 -0.85258,1.615787 -0.87652,1.659766 -0.0979,0.179677 -1.02585,0.343517 -1.12141,0.414774 -0.23952,0.178609 -0.36055,0.645008 -0.58984,0.88538 -0.24394,0.255637 -0.55343,6.6e-5 -0.83148,1e-4 -1.83259,2.22e-4 -0.57932,-0.29908 -2.17312,-1.284271 -0.88283,-0.545693 -1.7284,-0.369831 -2.44432,-0.337715 -0.82683,0.03709 -1.38108,-0.110712 -2.24049,-0.998282 -0.0636,-0.0655 0.0474,-0.190401 0.009,-0.263927 -0.20752,-0.394149 -0.93205,-0.578588 -1.36119,-0.574675 -0.13092,0.0012 -0.1815,0.108464 -0.28637,0.161717 -0.37078,0.188381 -0.7091,0.505505 -1.13764,0.696861 -0.70256,0.313735 -1.05596,0.300792 -1.6745,0.304888 -0.63287,0.0042 -2.388,0.232548 -2.77744,0.0186 -0.30159,-0.165785 -0.58106,-0.332087 -0.81699,-0.542946 -0.32803,-0.293155 -0.11044,-0.468852 -0.53003,-0.571298 -0.63389,-0.154786 -1.76596,0.07847 -2.50165,0.02437 -0.78467,-0.05769 -1.13566,-0.108688 -1.93849,-0.100499 -0.45377,0.01197 -1.39025,0.01425 -1.39025,0.01425 -0.27828,0.0029 -0.57295,-0.0313 -0.83364,0.0086 -0.24552,0.03759 -0.33954,0.196403 -0.57099,0.27916 -0.4407,0.157594 -0.93458,0.270062 -1.40692,0.42363 -0.26615,0.08654 -0.56012,0.256831 -0.84188,0.259119 -0.20722,0.0017 -0.35373,-0.192898 -0.54848,-0.246849 -1.41334,-0.391466 -3.234,0.2384 -4.72753,0.04247 -0.88727,-0.116344 -1.18995,-0.468083 -1.64542,-0.536994 -0.71835,-0.108709 -1.8408,0.180495 -2.50371,0.02694 -0.39204,-0.09085 -0.40285,-0.167746 -0.8238,-0.18595 -0.44729,-0.01936 -0.92893,0.01049 -1.39157,0.01574 -0.27857,0.0032 -0.58414,-0.02035 -0.83497,0.0095 -0.2362,0.0281 -0.31656,0.158074 -0.56747,0.200215 -0.50963,0.08552 -1.62705,0.01796 -2.22605,0.02462 -0.71054,0.0079 -3.41175,-0.07373 -3.89648,0.04362 -0.75915,0.183779 -0.3699,0.156543 -0.28511,0.149433 0.24218,-0.02031 0.31618,-0.03163 -0.28541,0.180955 -0.14239,0.05029 -6.24224,0.101603 -6.40135,0.06697 -0.44872,-0.09785 -0.53439,-0.375419 -1.09534,-0.416266 -1.87215,-0.136308 -1.52095,0.110502 -2.52323,0.454634 -0.5854,0.200976 -1.57977,-0.09075 -2.22723,0.02376 -0.20241,0.03576 -0.36406,0.153309 -0.56223,0.205619 -0.0158,0.0042 -2.18077,-0.336544 -2.21529,-0.345874 -0.11614,-0.03135 -0.15648,-0.111439 -0.27272,-0.136281 -0.25242,-0.05398 -1.24809,0.03076 -1.39224,0.01633 -1.9e-4,-2.5e-5 -0.54774,-0.176692 -0.54774,-0.176705 -0.18703,-0.01077 -0.6614,-0.0079 -1.11316,-0.0012 0.01,0.0034 -5.8e-4,7e-6 -5.8e-4,7e-6 -0.4602,0.0067 -0.91761,0.01813 -1.11349,0.02873 -0.2039,0.011 -0.3584,0.06246 -0.56049,0.08136 -1.13385,0.106062 -2.462255,-0.0237 -3.619294,0.04375 -1.504251,0.08769 -3.922901,0.432392 -4.463323,0.29289 -0.116314,-0.03 -0.149793,-0.114628 -0.273594,-0.130998 -0.174994,-0.02312 -0.381792,0.02967 -0.556786,0.0066 -0.123806,-0.01636 -0.157652,-0.0838 -0.274242,-0.101139 -0.244826,-0.03642 -3.230377,0.351933 -3.631431,0.439043 -0.195687,-0.03871 -0.368044,-0.107035 -0.552052,-0.153604 -0.158706,-0.04025 -0.545102,-0.17678 -0.830045,-0.122234 -0.575632,0.110177 -1.089688,0.347738 -1.682728,0.492662 -1.102483,0.269416 -3.348863,-0.220003 -4.4509,0.04435 -0.204794,0.04923 -0.365552,0.133972 -0.559285,0.210471 -0.18469,0.0017 -0.380429,-0.04178 -0.556298,0.0051 -0.249716,0.06646 -0.299998,0.475803 -0.562155,0.477688 -0.131073,9.42e-4 -0.166991,-0.183473 -0.2753,-0.244408 -0.312659,-0.175916 -1.075295,-0.388574 -1.384246,-0.415918 -0.446291,-0.0395 -2.660143,-0.108482 -3.058476,0.02982 -0.117903,0.04091 -0.171313,0.14678 -0.2811,0.202941 -0.711317,0.363848 -1.421406,0.232925 -2.226102,0.239336 -0.278442,0.0022 -0.603432,0.132157 -0.833883,0.0066 -0.934897,-0.509481 -0.806761,-0.871428 -1.928323,-0.943097 -0.676879,-0.04323 -1.850026,0.0208 -2.501989,0.02806 -1.936471,0.02768 -5.834549,0.06377 -5.834549,0.06377 -0.544084,0.0058 -0.86886,0.251284 -1.395268,0.374498 -0.524468,0.122749 -0.996141,-0.197863 -1.389835,0.179778 -0.06587,0.06313 -0.104503,0.108874 -0.146659,0.155304 -0.09838,0.04381 -0.428171,0.227825 -0.969845,0.717657 -0.216926,-0.129953 -0.348876,-0.338285 -0.552335,-0.464252 -0.269867,-0.167097 -0.498861,-0.329838 -0.829423,-0.387088 -0.264736,-0.04594 -0.554193,-0.02182 -0.833611,-0.0044 -0.0032,-0.200991 -0.123958,-0.139649 -0.273609,0.01384 0.0091,0.01277 -0.0028,2.4e-5 -0.0028,2.4e-5 3.22e-4,-3e-6 0.002,3.55e-4 0.0023,3.53e-4 -0.229991,0.236036 -0.524507,0.824201 -0.56258,0.858243 -0.393182,0.351611 -0.883907,0.583823 -1.391599,0.807094 -0.354801,0.155962 -2.493359,0.0756 -2.772482,0.0051 -0.471686,-0.119044 -0.181809,-0.548197 -0.272644,-0.789591 -0.06019,-0.160002 -1.073843,-0.823875 -1.104369,-0.831234 -0.25488,-0.06135 -0.556612,0.0044 -0.831755,0.0065 -0.455111,0.0036 -0.97896,-0.117434 -1.386025,0.01076 -1.01696,0.320253 -1.295408,0.153771 -1.770546,0.09873 -0.341878,-0.03961 -1.001489,-0.03952 -2.111388,0.993209 -0.154958,0.144179 -2.10971,-0.309971 -2.261898,-0.371478 -0.242494,-0.09811 -0.483791,-0.540617 -0.653034,-0.794355 -0.18322,-0.274694 -0.312124,-0.384419 -0.401406,-0.368779 -0.52379,0.09177 -0.626532,0.267315 -1.110246,0.50277 -0.302769,0.147377 -1.177082,-0.111462 -1.382662,-0.146101 -0.600219,-0.10112 -1.303287,0.009 -1.936823,0.01331 -0.450962,0.01363 -1.382434,0.0092 -1.382434,0.0092 -0.09177,6e-4 -0.211702,-0.03236 -0.276557,0.0018 -0.124384,0.06558 -0.282865,0.268852 -0.555082,0.553822 -0.252075,0.263884 -0.541644,0.518018 -0.828113,0.400514 -0.434075,-0.178058 -0.950014,-0.912745 -1.105124,-0.938617 -0.665506,-0.110969 -1.742671,-0.0164 -2.497894,0.0076 -0.02895,-0.02766 -0.181364,0.0083 -0.264846,0.0088 -0.358375,0.01246 -1.104869,0.0062 -1.104869,0.0062 -1.250888,0.0069 -0.875139,-0.01877 -2.208098,0.332553 -0.08539,0.0226 -0.193769,-0.02578 -0.276015,0.0012 -0.11631,0.03813 -0.159473,0.146786 -0.275765,0.188362 -0.08223,0.02943 -0.199493,-0.03528 -0.275969,0.0011 -0.216315,0.10279 -0.335052,0.303488 -0.551332,0.421001 -0.483613,0.262752 -1.103448,-0.285363 -1.655235,-0.412685 -0.652387,-0.150541 -1.598066,-0.06063 -2.393811,0.04914 -0.810385,0.111796 -1.50872,0.250933 -1.740451,0.164442 -0.99119,-0.369935 -1.22783,-0.825569 -2.481619,-0.821112 -0.254576,9.05e-4 -0.574904,0.393103 -0.824041,0.446711 -0.04028,0.0091 -1.368837,0.184707 -1.375786,0.187028 -0.549763,0.192282 -0.823505,0.868775 -1.373279,1.119174 -0.505243,0.230106 -0.445872,-0.428679 -0.550424,-0.481027 -0.422005,-0.211285 -0.899,-0.345764 -1.376242,-0.433877 -0.4447881,-0.08218 -0.9397012,0.109299 -1.37458,0.002 -0.1230026,-0.03036 -0.1595139,-0.157 -0.2755268,-0.196873 -0.4019545,-0.138157 -0.9476661,-0.09669 -1.3733964,0.0019 -0.245487,0.05679 -0.3103011,0.327424 -0.5480617,0.408363 -0.4286308,0.145843 -0.9556373,0.04983 -1.3725286,0.224074 -0.1828198,0.07645 -0.068845,0.478372 -0.2734584,0.47842 -0.258808,6.2e-5 -0.3184552,-0.381644 -0.5501708,-0.478005 C 3.7615239,88.181447 3.1021316,87.969584 2.6091827,88.164896 2.493585,88.210661 2.4579803,88.353654 2.3354032,88.387765 2.0904669,88.455917 1.6190706,87.896725 1.1595639,87.518998 0.69102133,87.133844 0.24498828,86.955909 0.00542077,87.026621 c -0.01092268,0.0031 -0.00725763,0.226459 4.8236e-4,0.770794 0.00778076,0.547201 0.01708815,1.236443 0.01845118,1.478825 0.0081311,0.01898 -0.0057003,0 -0.0057003,0 0.0017532,0.016 0.0019708,0.486203 0.0024472,0.824056 -0.0013058,0.09951 0.0024477,0.338978 -0.0023725,0.349648 0.01095065,0.01994 0.0028501,0 0.0028501,0 6.1003e-4,0.912044 1.6363e-4,1.770508 0.0097597,1.806021 0.09877973,0.365928 0.3572457,0.780444 0.71294704,1.038618 0.34079508,0.247397 0.79984848,0.366866 1.22503808,0.25173 0.3792006,-0.10269 0.8039965,-0.922957 0.826583,-0.947513 0.092388,-0.100321 1.0055597,-0.189001 1.0979733,-0.228417 0.2316023,-0.0988 0.333932,-0.356081 0.5494516,-0.488077 0.2286687,-0.139969 0.5488158,8.19e-4 0.8232787,0.0013 1.7921511,0.003 0.6112903,0.16413 2.1929565,0.724267 0.8918856,0.315818 1.7112909,0.220834 2.425571,0.206815 0.8126822,-0.01595 1.3727422,0.07024 2.2378172,0.602607 0.06452,0.03967 -0.04154,0.113517 -8.45e-4,0.15817 0.218444,0.239772 0.947236,0.362427 1.371387,0.364669 0.12945,6.93e-4 0.173911,-0.06519 0.275152,-0.09677 0.358128,-0.111782 0.68218,-0.300689 1.10121,-0.411426 0.685342,-0.181124 1.039491,-0.169407 1.649147,-0.165534 0.623165,0.004 2.362037,-0.113899 2.748551,0.01875 0.3019,0.103671 0.581901,0.207765 0.821898,0.340339 0.333703,0.184314 0.127362,0.291556 0.548114,0.361366 0.635624,0.105449 1.743101,-0.02452 2.474191,0.0202 0.781131,0.04778 1.129436,0.08485 1.925093,0.09209 0.468361,0.0089 1.374921,0.0128 1.374921,0.0128 0.26841,0.0026 0.576594,0.02838 0.825391,0.008 0.240863,-0.01978 0.325296,-0.118443 0.550647,-0.166967 0.429045,-0.09239 0.913964,-0.155369 1.377068,-0.244629 0.260923,-0.0503 0.547204,-0.152931 0.826327,-0.149939 0.205098,0.0022 0.35477,0.127346 0.549102,0.164687 0.679591,0.130553 1.529687,0.106826 2.311889,0.07057 0.816243,-0.03783 1.61697,-0.09352 2.367311,-0.0164 0.881684,0.09059 1.196228,0.32298 1.65097,0.375879 0.717216,0.08343 1.812899,-0.08012 2.477648,0.03183 0.394651,0.06647 0.407886,0.114839 0.827519,0.134683 0.422454,0.01999 0.940795,0.01249 1.376944,0.01838 0.261819,0.0035 0.593922,0.02385 0.826583,0.01125 0.232207,-0.01257 0.304034,-0.09367 0.550334,-0.115629 0.487381,-0.04348 1.624314,0.02304 2.204433,0.03147 0.680682,0.0099 3.406533,0.120162 3.858068,0.05766 0.750158,-0.103843 0.351265,-0.09428 0.274974,-0.09174 -0.241513,0.008 -0.310145,0.01393 0.275559,-0.113809 0.146367,-0.0319 6.174087,0.07424 6.340267,0.102869 0.447678,0.07726 0.545995,0.264004 1.104513,0.303936 1.866627,0.133464 1.496828,-0.03024 2.480867,-0.242501 0.57414,-0.123853 1.567762,0.101889 2.206182,0.03887 0.199573,-0.0197 0.357601,-0.09803 0.553184,-0.130012 0.01025,-0.0017 2.173332,0.290318 2.205525,0.297095 0.11641,0.02449 0.159611,0.08005 0.276148,0.0997 0.253104,0.04268 1.235918,0.0117 1.379597,0.02514 2.92e-4,1.8e-5 0.554261,0.128617 0.554261,0.128627 0.346889,0.02098 1.862052,0.04281 2.207156,0.04048 0.201538,-0.0014 0.351517,-0.0298 0.550813,-0.03677 1.11815,-0.03906 2.44363,0.08068 3.587396,0.06775 1.486961,-0.01682 3.872109,-0.192343 4.413408,-0.07841 0.116504,0.0245 0.153472,0.08446 0.277132,0.09912 0.174863,0.02071 0.376677,-0.0098 0.55154,0.01088 0.123652,0.01466 0.161495,0.06094 0.278214,0.07548 0.261674,0.03263 3.168511,-0.152319 3.585859,-0.208602 0.194932,0.03422 0.367754,0.0892 0.551996,0.127926 0.16195,0.0341 0.545175,0.140205 0.828875,0.109981 0.565997,-0.0603 1.069746,-0.221184 1.65812,-0.316801 0.55919,-0.09087 1.353087,-0.022 2.201036,0.0464 0.813065,0.06559 1.682885,0.130985 2.216658,0.04418 0.204393,-0.03321 0.362686,-0.09556 0.557698,-0.15299 0.183389,0.0038 0.37678,0.0448 0.552381,0.01134 0.249346,-0.0476 0.31615,-0.394664 0.576624,-0.389476 0.13023,0.0026 0.156821,0.163423 0.261978,0.218059 0.306949,0.159435 1.053591,0.350532 1.36472,0.38169 0.439346,0.04398 2.644836,0.163058 3.03741,0.0633 0.117433,-0.02982 0.172244,-0.115301 0.282838,-0.159492 0.734149,-0.293342 1.407247,-0.161045 2.220471,-0.144343 0.276958,0.0057 0.606065,-0.100526 0.828838,0.01703 0.915514,0.48328 0.781844,0.733765 1.914284,0.814626 0.66594,0.04753 1.84634,0.03866 2.48507,0.05205 1.94371,0.04481 5.7993,0.121626 5.7993,0.121626 0.541,0.01134 0.85428,-0.159647 1.37787,-0.246214 0.5217,-0.08625 0.98443,0.204778 1.38521,-0.113065 0.0666,-0.05277 0.10778,-0.09315 0.15115,-0.133508 0.0865,-0.03199 0.44548,-0.19262 1.02134,-0.673301 0.2019,0.140209 0.31378,0.352409 0.50717,0.479011 0.25911,0.169605 0.47505,0.319469 0.80568,0.379861 0.26131,0.04781 0.55183,0.03491 0.82936,0.02751 -0.002,0.175732 0.12264,0.124321 0.27264,-0.0045 10e-4,2.1e-5 0.002,-2.87e-4 0.003,-2.66e-4 0.009,0.01154 -0.002,-4.2e-5 -0.002,-4.2e-5 0.2355,-0.20238 0.58385,-0.787791 0.62567,-0.822844 0.43872,-0.367705 0.95108,-0.618035 1.49597,-0.87441 0.37982,-0.178639 2.49788,-0.04447 2.76815,0.04654 0.45243,0.152341 0.0981,0.648851 0.15857,0.913552 0.0474,0.207811 0.97476,0.849697 1.02984,0.863451 0.25312,0.06314 0.55254,0.01141 0.82803,0.01708 0.45788,0.0094 0.96656,0.135758 1.38095,0.02842 2.17108,-0.562357 1.69376,-1.096575 3.98436,-1.054829 0.18634,0.0034 0.67783,-0.07568 0.82956,0.0151 0.23377,0.140022 0.72954,0.805439 1.24864,1.160262 0.52581,0.359415 1.02682,0.45104 1.11231,0.442782 0.52096,-0.05032 0.61387,-0.184344 1.10915,-0.395186 0.30321,-0.129065 1.17385,0.135916 1.37415,0.171558 0.60547,0.10772 1.29193,0.0258 1.9328,0.03852 0.46989,0.01886 1.37996,0.02732 1.37996,0.02732 0.0919,0.0018 0.21026,0.0348 0.2761,0.0054 0.12551,-0.056 0.28958,-0.237125 0.59422,-0.541786 0.28238,-0.282405 0.61634,-0.589064 0.88352,-0.441035 0.40467,0.224215 0.85284,1.004101 1.00706,1.031545 0.65451,0.116454 1.74773,0.05836 2.49526,0.05502 0.0282,0.02598 0.18143,-0.0032 0.26487,-0.0016 0.37791,0.01683 1.10421,0.02119 1.10421,0.02119 1.19174,0.0228 0.9295,0.04607 2.22791,-0.276837 0.0874,-0.02172 0.19133,0.03175 0.27608,0.0051 0.11988,-0.03757 0.17486,-0.154451 0.29635,-0.198442 0.086,-0.03115 0.19512,0.04417 0.27614,0.005 0.22923,-0.110552 0.37906,-0.346352 0.61677,-0.489205 0.53158,-0.319455 1.05593,0.372882 1.59166,0.529293 0.62558,0.182618 1.60008,0.104495 2.40248,-0.0041 0.82691,-0.111898 1.55009,-0.268727 1.76796,-0.158701 0.98834,0.499122 1.08257,0.901213 2.40785,0.924853 0.25505,0.0045 0.59729,-0.371362 0.85264,-0.424626 0.0413,-0.0091 1.39489,-0.18008 1.40217,-0.182646 0.57837,-0.213067 0.99807,-1.115831 1.6149,-1.48473 0.56687,-0.339028 0.34262,0.629916 0.43565,0.704112 0.37326,0.2977 0.83142,0.478793 1.29232,0.596805 0.4318,0.110632 0.96284,-0.119662 1.38016,0.02225 0.11805,0.0402 0.13372,0.195251 0.24429,0.244376 0.37782,0.167792 0.94412,0.129643 1.3792,0.02241 0.25503,-0.06297 0.36903,-0.401023 0.62512,-0.504924 0.46165,-0.187253 0.96958,-0.04693 1.43045,-0.285987 0.20215,-0.104899 0.19228,-0.704866 0.39825,-0.702173 0.26048,0.0034 0.21968,0.574618 0.42956,0.71417 0.4442,0.295392 1.07261,0.584472 1.60575,0.332054 0.12616,-0.0597 0.19531,-0.257793 0.32699,-0.30439 0.385,-0.136203 1.14133,0.107706 1.73985,0.08097 0.58665,0.04362 1.42284,-0.179314 1.75943,-0.03215 0.11506,0.05037 0.11767,0.250677 0.22396,0.314235 0.45021,0.269023 1.16544,-0.0026 1.70818,-0.287998 0.2566,-0.13477 0.41903,-0.713544 0.67937,-0.710408 0.20585,0.0025 -0.017,0.609781 0.14804,0.721484 0.37621,0.254781 0.92837,0.127168 1.32673,0.330677 0.22097,0.11296 0.23534,0.459033 0.47303,0.530546 0.40683,0.122253 0.9609,0.177753 1.37821,0.01951 0.1226,-0.04646 0.18143,-0.203793 0.31069,-0.241271 0.45694,-0.132131 0.91689,0.118993 1.37891,0.01874 0.49294,-0.106847 1.0046,-0.279133 1.47837,-0.576517 0.11816,-0.07403 0.24363,-1.0883 0.68424,-0.720047 0.47945,0.4007 0.58966,1.349941 1.10991,1.58683 0.007,0.0035 1.31253,0.220858 1.35179,0.230999 0.2429,0.06262 0.5388,0.455219 0.79348,0.458621 1.30808,0.01747 1.44254,-0.382568 2.57643,-0.87721 0.24955,-0.108858 0.91927,0.07749 1.71093,0.219956 0.76803,0.138214 1.71966,0.249912 2.38517,0.07792 0.5725,-0.148054 1.31582,-0.873392 1.73761,-0.514654 0.18862,0.16044 0.26677,0.416248 0.46579,0.540122 0.0703,0.04382 0.19817,-0.03245 0.27547,0.0031 0.10925,0.05023 0.13642,0.174908 0.24767,0.217992 0.0787,0.03049 0.19304,-0.02231 0.27541,0.0031 1.21332,0.375523 1.00714,0.343011 2.1726,0.35606 0.37669,0.01403 1.10134,0.01222 1.10134,0.01222 0.0833,9.15e-4 0.2331,0.03567 0.26356,0.0097 0.74273,0.02621 1.8294,0.118954 2.4889,0.01982 0.15604,-0.02351 0.77329,-0.839863 1.24848,-1.075468 0.31556,-0.156462 0.53667,0.193918 0.74224,0.50882 0.22129,0.338995 0.36653,0.530373 0.4866,0.592014 0.0628,0.03221 0.18365,0.0018 0.27524,0.0027 0.46808,0.01449 1.37551,0.01351 1.37551,0.01351 0.63738,0.0062 1.31635,0.111075 1.92629,0.0183 0.19754,-0.03006 1.10688,-0.282458 1.38705,-0.137896 0.46003,0.237405 0.55975,0.372239 1.08255,0.434108 0.0923,0.01093 0.56149,-0.0576 1.13142,-0.417807 0.56979,-0.360126 1.28283,-1.10065 1.56377,-1.255707 0.18227,-0.10051 0.63968,0.0047 0.82511,0.006 2.2916,0.01655 1.56554,0.633775 3.64834,1.300825 0.39477,0.126435 0.92046,0.0067 1.37491,0.0099 0.27392,0.0019 0.56424,0.06582 0.82432,0.0058 0.0274,-0.0064 1.12324,-0.691709 1.24286,-0.940805 0.14757,-0.307242 -0.0172,-0.914479 0.48693,-1.088774 0.30103,-0.1041 2.44349,-0.215939 2.75088,0.01402 0.45019,0.336944 0.84335,0.644272 1.1611,1.100124 0.0298,0.04269 0.20387,0.729037 0.40753,0.953559 0.008,0.01228 -0.002,-1.2e-5 -0.002,-1.2e-5 0.001,6e-6 0.002,3.67e-4 0.003,3.72e-4 0.13554,0.149175 0.24737,0.192298 0.26979,0.01248 0.2738,0.01547 0.56117,0.03749 0.82664,-0.0064 0.33646,-0.05573 0.57566,-0.212603 0.87593,-0.39899 0.22343,-0.13866 0.39745,-0.383411 0.64314,-0.545051 0.40266,0.57906 0.7598,0.774907 0.82637,0.806621 0.0345,0.04504 0.0694,0.0922 0.12702,0.150301 0.35078,0.354561 0.85067,0.05384 1.36104,0.15809 0.51223,0.104688 0.82754,0.277821 1.36561,0.280207 1.93342,0.01224 5.76647,0.0221 5.76647,0.0221 0.67001,0.0022 1.77531,0.0371 2.47026,0.0073 1.12159,-0.04808 0.97055,-0.283669 1.99449,-0.825945 0.25102,-0.132886 0.54681,0.0012 0.82345,0.0018 0.83129,0.0017 1.48089,-0.135699 2.16373,0.224144 0.10078,0.05318 0.14092,0.149772 0.25304,0.185397 0.37371,0.118656 2.57896,0.04149 3.01755,0.0038 0.31444,-0.02697 1.07763,-0.219823 1.42431,-0.40413 0.11719,-0.06239 0.18726,-0.257318 0.31655,-0.257243 0.25859,1.5e-4 0.23754,0.41744 0.47504,0.477945 0.16754,0.04264 0.36623,1.69e-4 0.54858,2.38e-4 0.18343,0.07123 0.3269,0.143478 0.52658,0.185199 0.5125,0.107023 1.39277,0.05535 2.2012,0.0016 0.85507,-0.05681 1.63997,-0.115996 2.1858,-0.0025 0.56962,0.118486 1.0608,0.294275 1.62388,0.361331 0.28658,0.0341 0.65632,-0.05959 0.82359,-0.09167 0.18398,-0.03529 0.35859,-0.08862 0.55457,-0.120762 0.43169,0.07142 3.26449,0.295202 3.55475,0.268093 0.1195,-0.01115 0.15427,-0.05221 0.27406,-0.06378 0.17343,-0.01654 0.37405,0.01536 0.54748,-0.0012 0.12258,-0.01173 0.15955,-0.06893 0.27584,-0.09137 0.54031,-0.104208 2.90396,0.108195 4.38159,0.14196 1.13659,0.02597 2.44787,-0.05903 3.55989,-0.0127 0.19819,0.0083 0.3486,0.03207 0.54884,0.03477 0.32896,0.0044 1.86047,0.0018 2.18993,-0.0093 0,-7e-6 0.5455,-0.102702 0.54571,-0.102715 0.14243,-0.01065 1.11809,0.02986 1.36879,-0.0065 0.11543,-0.01674 0.15871,-0.06931 0.27484,-0.09204 0.0304,-0.0059 2.19857,-0.284445 2.20816,-0.282506 0.18963,0.0384 0.33859,0.12503 0.53485,0.148368 0.62781,0.07461 1.62887,-0.149555 2.18858,-0.0125 0.95399,0.233595 0.61762,0.354525 2.45569,0.258413 0.55291,-0.02893 0.65175,-0.204752 1.10085,-0.28079 0.15569,-0.0263 6.15728,-0.07758 6.28883,-0.04573 0.55188,0.133686 0.52864,0.127835 0.26752,0.117359 -0.0576,-0.0023 -0.49093,-0.01253 0.27177,0.08839 0.46777,0.0619 3.13187,-0.02607 3.8267,-0.03216 0.5906,-0.0052 1.68764,-0.06179 2.18651,-0.01965 0.24447,0.02066 0.31806,0.08749 0.54895,0.09571 0.24461,0.0087 0.54695,-0.0051 0.81986,-0.0077 0.45508,-0.0043 0.92475,0.0012 1.36574,-0.01304 0.42532,-0.0137 0.41718,-0.0486 0.81779,-0.10886 0.65876,-0.09911 1.74662,0.04918 2.45765,-0.02481 0.45079,-0.04688 0.77309,-0.278948 1.65611,-0.376548 0.75551,-0.08351 1.53476,-0.01895 2.34372,0.02364 0.76134,0.04008 1.62297,0.06681 2.29768,-0.07436 0.19644,-0.04107 0.3611,-0.185155 0.5645,-0.187456 0.26875,-0.003 0.55368,0.117869 0.79992,0.171817 0.44974,0.09869 0.92623,0.16424 1.34951,0.25212 0.22231,0.0462 0.30698,0.132595 0.54652,0.147433 0.25352,0.01572 0.54659,-0.0066 0.81895,-0.0099 0.46497,-0.002 1.36427,-0.01676 1.36427,-0.01676 0.79219,-0.0098 1.13161,-0.0412 1.90919,-0.08764 0.72535,-0.0433 1.82514,0.06541 2.45548,-0.03179 0.41726,-0.06435 0.21187,-0.160646 0.56058,-0.364729 0.25475,-0.14911 0.54127,-0.271596 0.86202,-0.403345 0.41028,-0.168538 2.10447,-0.02748 2.72648,-0.03578 0.6246,-0.0083 0.93729,-0.02244 1.60989,0.189782 0.40102,0.126489 0.70733,0.326962 1.06038,0.430263 0.0998,0.02925 0.14392,0.08827 0.27249,0.08643 0.42037,-0.006 1.14195,-0.115762 1.37719,-0.376118 0.0445,-0.04926 -0.0526,-0.131987 0.0166,-0.1788 0.98258,-0.665998 1.49341,-0.809223 2.33137,-0.792989 0.68608,0.01329 1.51331,0.140613 2.45484,-0.315641 1.76456,-0.855124 0.54961,-1.120238 2.37274,-1.14136 0.27265,-0.0032 0.62891,-0.236167 0.81593,-0.0095 0.17576,0.213168 0.2058,0.615475 0.40908,0.762375 0.0811,0.05862 0.96286,0.180998 1.02985,0.324746 0.0164,0.03521 0.28556,1.092766 0.65372,1.198569 0.74818,0.215009 1.50293,-0.299757 1.99785,-1.315188 0.497,-0.05224 1.02667,-0.170193 1.27843,-0.06351 0.11332,0.04799 0.11539,0.251438 0.21999,0.313342 0.4432,0.26212 1.14963,-0.03776 1.68426,-0.340833 0.25279,-0.143231 0.41064,-0.726388 0.66697,-0.72974 0.20261,-0.0026 -0.0137,0.609985 0.14933,0.717825 0.37166,0.245972 0.91585,0.100955 1.30948,0.29492 0.21835,0.107654 0.23294,0.460268 0.46762,0.52632 0.40271,0.113556 0.9478,0.15302 1.36084,-0.02237 0.12097,-0.05133 0.17856,-0.213674 0.30595,-0.25544 0.45031,-0.147545 0.90573,0.09266 1.36096,-0.02211 0.48613,-0.122447 0.98845,-0.309445 1.45141,-0.615163 0.11533,-0.07603 0.2195,-1.063795 0.66058,-0.71893 0.47992,0.375252 0.60476,1.305602 1.12081,1.529275 0.007,0.0033 1.29826,0.184293 1.33711,0.193469 0.24052,0.05654 0.53514,0.460436 0.78685,0.455903 1.27853,-0.02303 1.43946,-0.463767 2.53381,-0.976823 0.24352,-0.114182 0.90917,0.04948 1.69341,0.167402 0.76397,0.114874 1.70036,0.19762 2.35651,0.0071 0.56164,-0.162978 1.2708,-0.879033 1.69941,-0.548735 0.19165,0.147723 0.2768,0.393401 0.47675,0.509323 0.0707,0.04102 0.19473,-0.03765 0.27207,-0.005 0.10927,0.04615 0.13936,0.168959 0.25026,0.208793 0.0785,0.02817 0.19016,-0.02822 0.27212,-0.0051 1.226,0.344798 0.98281,0.320113 2.15411,0.297722 0.37252,0.0032 1.08867,-0.02086 1.08867,-0.02086 0.0823,-0.0016 0.23112,0.03064 0.26066,0.0022 0.73899,0.0049 1.80594,0.06942 2.46031,-0.05473 0.15368,-0.02929 0.73504,-0.849445 1.19209,-1.08031 0.30283,-0.152949 0.5402,0.16311 0.75595,0.458655 0.23258,0.318594 0.38036,0.513109 0.50058,0.573842 0.0629,0.03174 0.18209,-0.0036 0.27265,-0.0054 0.46302,0.0012 1.36,-0.02677 1.36,-0.02677 0.63235,-0.01248 1.30198,0.07709 1.9047,-0.03771 0.19862,-0.03784 1.08112,-0.318938 1.36668,-0.180233 0.46187,0.224323 0.56469,0.373056 1.08234,0.434113 0.0944,0.01114 0.55173,-0.101286 1.1067,-0.481144 0.5495,-0.376117 1.2054,-1.061394 1.47171,-1.204629 0.17279,-0.09285 0.63136,-0.01124 0.81439,-0.0145 2.23496,-0.03984 1.62247,0.505676 3.68467,1.102445 0.39651,0.114744 0.90988,-0.01845 1.36004,-0.0276 0.27147,-0.0055 0.56047,0.04997 0.81541,-0.01658 0.0265,-0.007 1.07466,-0.693836 1.16652,-0.899921 0.12158,-0.272639 -0.0928,-0.778532 0.38924,-0.932549 0.28796,-0.09204 2.38958,-0.225599 2.71344,-0.04415 0.46845,0.262549 0.89675,0.51369 1.2442,0.894478 0.033,0.0362 0.25871,0.644251 0.47211,0.859399 0.009,0.01197 -0.002,3.9e-4 -0.002,3.9e-4 0.0104,0.01181 0.003,-6.1e-5 0.003,-6.1e-5 0.14098,0.141954 0.25455,0.186733 0.26757,0.0053 0.27259,0.0082 0.5563,0.02244 0.81755,-0.02757 0.32838,-0.06301 0.55916,-0.22224 0.84046,-0.398196 0.21063,-0.131699 0.36223,-0.351394 0.59049,-0.49549 0.45752,0.495129 0.80545,0.670087 0.88202,0.702045 0.0375,0.04217 0.0743,0.08558 0.13483,0.14129 0.36709,0.337833 0.84466,0.02937 1.35469,0.123139 0.51194,0.09406 0.83008,0.286463 1.36295,0.275475 1.91428,-0.03476 5.71132,-0.117695 5.71132,-0.117695 0.63452,-0.01306 1.78974,0.0027 2.44821,-0.05032 1.10223,-0.08877 0.96466,-0.369217 1.92292,-0.867839 0.23463,-0.122045 0.5434,-0.01088 0.81567,-0.01632 0.80336,-0.01607 1.47438,-0.152359 2.16337,0.155177 0.10431,0.04662 0.15142,0.136672 0.26503,0.168503 0.38081,0.106597 2.55682,-0.01526 2.99154,-0.06089 0.30477,-0.03196 1.05751,-0.233401 1.37674,-0.398016 0.1099,-0.05675 0.15827,-0.222838 0.28639,-0.225315 0.25626,-0.005 0.27845,0.355975 0.51926,0.406204 0.16965,0.03539 0.36335,-0.0073 0.54401,-0.01088 0.18641,0.06056 0.3381,0.126539 0.53734,0.162037 0.52181,0.09307 1.37963,0.02543 2.18363,-0.04232 0.83766,-0.07059 1.62412,-0.141576 2.16864,-0.04472 0.57434,0.102191 1.07081,0.275635 1.63191,0.344316 0.27848,0.03405 0.65692,-0.08222 0.81411,-0.118337 0.18108,-0.04161 0.35153,-0.100232 0.54413,-0.13634 0.40867,0.06079 3.28118,0.275654 3.54129,0.238361 0.11422,-0.01636 0.14846,-0.06871 0.26984,-0.08464 0.17166,-0.02248 0.37265,0.01199 0.54431,-0.01049 0.12138,-0.01592 0.15601,-0.0815 0.27052,-0.107812 0.53206,-0.122178 2.88901,0.07494 4.35827,0.09976 1.13013,0.01909 2.43177,-0.114275 3.53835,-0.06531 0.19722,0.0087 0.3473,0.04333 0.54651,0.0462 0.19076,0.0028 0.6393,-9.6e-4 1.08885,-0.0081 0.01,0.0026 0,8e-5 0,8e-5 0.44207,-0.0071 0.90575,-0.01753 1.08913,-0.03088 1.2e-4,-5.5e-5 0.53995,-0.146531 0.54014,-0.146555 0.1414,-0.0145 1.11308,0.0223 1.36153,-0.02425 0.11443,-0.02142 0.15621,-0.08196 0.27077,-0.108222 0.0357,-0.0082 2.16145,-0.315291 2.17908,-0.31218 0.1921,0.03396 0.34637,0.116864 0.54326,0.138204 0.62991,0.06832 1.61274,-0.170261 2.17906,-0.03748 0.96429,0.226073 0.62408,0.417213 2.45513,0.270238 0.55031,-0.04419 0.64332,-0.248038 1.08592,-0.329498 0.16254,-0.02985 6.12247,-0.133465 6.26697,-0.09939 0.58278,0.137504 0.50902,0.131148 0.2733,0.122257 -0.087,-0.0033 -0.45842,-0.01362 0.2739,0.100506 0.45033,0.07017 3.13988,-0.04627 3.81641,-0.0559 0.57402,-0.0082 1.69771,-0.07931 2.18108,-0.03054 0.24432,0.02466 0.31771,0.117363 0.54813,0.133993 0.23381,0.01686 0.55611,-0.0074 0.81824,-0.01093 0.43661,-0.0058 0.94114,0.0058 1.36382,-0.01787 0.31772,-0.0178 0.52335,-0.09812 0.81593,-0.152517 0.65661,-0.122095 1.74557,0.05967 2.4551,-0.03099 0.44986,-0.05745 0.76023,-0.304983 1.63486,-0.399196 0.74372,-0.08012 1.53821,-0.02109 2.34679,0.0194 0.77745,0.03893 1.6167,0.06454 2.29348,-0.07212 0.19305,-0.03895 0.3428,-0.169364 0.54628,-0.171502 0.27756,-0.0029 0.55968,0.103995 0.81913,0.157119 0.45904,0.09396 0.94031,0.160552 1.36673,0.260231 0.22396,0.05231 0.30881,0.161381 0.54823,0.184316 0.24825,0.02381 0.55142,-0.0053 0.81886,-0.0078 0.4654,9.03e-4 1.36602,-0.01256 1.36602,-0.01256 0.7871,-0.0071 1.13856,-0.04918 1.91122,-0.10065 0.72637,-0.04842 1.82866,0.09533 2.46011,-0.0199 0.41796,-0.07627 0.21226,-0.191781 0.54463,-0.38464 0.23834,-0.138307 0.51889,-0.246649 0.81919,-0.353305 0.38525,-0.136806 2.11393,-0.01447 2.73379,-0.01834 0.60525,-0.0038 0.96133,-0.01591 1.64148,0.171966 0.41689,0.115113 0.73946,0.313085 1.09627,0.433176 0.10079,0.03404 0.14536,0.105746 0.27434,0.105069 0.42217,-0.0022 1.14801,-0.137304 1.36557,-0.387781 0.0406,-0.04679 -0.065,-0.123696 -5.9e-4,-0.164869 0.85822,-0.549543 1.42744,-0.636093 2.23202,-0.619633 0.71339,0.01459 1.52723,0.111781 2.41906,-0.210536 1.57544,-0.569376 0.40518,-0.731724 2.1896,-0.734627 0.27393,-4.45e-4 0.59297,-0.142717 0.82107,-0.0012 0.21502,0.133424 0.3175,0.394103 0.54871,0.494558 0.0922,0.04008 1.00421,0.130157 1.09651,0.232457 0.0226,0.02506 0.44678,0.867583 0.82572,0.975053 0.42567,0.120696 0.88308,-0.0052 1.22455,-0.261724 0.35542,-0.266985 0.61432,-0.691791 0.71294,-1.062324 0.009,-0.03587 0.009,-0.907995 0.009,-1.818388 0.0113,0.01994 0.004,0 0.004,0 -0.005,-0.01196 -9.3e-4,-0.264614 -0.002,-0.37876 0.001,-0.311175 0.002,-0.775102 0.003,-0.789467 0.008,0.01881 -0.005,0 -0.005,0 0.003,-0.420953 0.002,-0.76385 -0.0204,-0.779608 -0.46687,-0.331942 -1.79405,0.03905 -2.28903,-0.0963 -0.12247,-0.03348 -0.15799,-0.173483 -0.27332,-0.21827 -0.49183,-0.190908 -1.15096,0.01598 -1.64386,0.217533 -0.23117,0.09448 -0.29018,0.469971 -0.54824,0.469895 -0.20403,-6e-5 -0.0903,-0.395367 -0.27251,-0.470345 -0.41554,-0.171015 -0.94079,-0.0769 -1.36768,-0.219578 -0.23682,-0.07919 -0.30128,-0.342931 -0.54571,-0.398069 -0.42334,-0.09554 -0.96755,-0.135555 -1.36705,-0.0019 -0.11544,0.03859 -0.15182,0.162038 -0.27425,0.191604 -0.43269,0.104446 -0.92474,-0.08205 -1.36696,-0.0021 -0.47438,0.0857 -0.94871,0.21687 -1.36802,0.424045 -0.10395,0.05126 -0.0464,0.699871 -0.54787,0.472758 -0.54568,-0.247123 -0.81611,-0.909667 -1.36133,-1.095995 -0.007,-0.0027 -1.32442,-0.172116 -1.36431,-0.180488 -0.2469,-0.05168 -0.56324,-0.423946 -0.81549,-0.42485 -1.25475,-0.0045 -1.4658,0.422523 -2.46031,0.787 -0.22963,0.08417 -0.92052,-0.05162 -1.72172,-0.160251 -0.78591,-0.106556 -1.72186,-0.193676 -2.36606,-0.04824 -0.5456,0.123112 -1.15961,0.65847 -1.63616,0.401646 -0.2131,-0.114854 -0.32955,-0.31058 -0.54257,-0.410127 -0.0753,-0.03522 -0.19126,0.0274 -0.27233,-0.0011 -0.11456,-0.04024 -0.1566,-0.144745 -0.27113,-0.181513 -0.081,-0.02601 -0.18819,0.0204 -0.27229,-0.0012 -1.3054,-0.336385 -0.94837,-0.311165 -2.17443,-0.318006 -0.35312,0.0078 -1.08834,-0.0062 -1.08834,-0.0062 -0.0823,-4.74e-4 -0.23185,-0.03497 -0.26075,-0.0084 -0.74202,-0.0227 -1.80392,-0.111766 -2.45842,-0.0079 -0.1529,0.0244 -0.6667,0.731338 -1.09474,0.905061 -0.28258,0.114674 -0.56578,-0.133968 -0.81179,-0.38969 -0.2661,-0.276605 -0.41806,-0.468751 -0.53986,-0.530981 -0.0632,-0.03227 -0.18158,-0.0012 -0.27174,-0.0018 -0.44307,0.007 -1.35794,-0.0091 -1.35794,-0.0091 -0.62114,-0.0042 -1.31153,-0.108274 -1.90127,-0.01319 -0.20153,0.03251 -1.06517,0.278733 -1.35899,0.13857 -0.47328,-0.22578 -0.56513,-0.387237 -1.07842,-0.468135 -0.0991,-0.01562 -0.55636,0.09955 -1.10535,0.455863 -0.53226,0.345455 -1.10492,0.90312 -1.35323,1.013608 -0.16094,0.07153 -0.6315,-0.0025 -0.81413,-0.0032 -2.23081,-0.0088 -1.70788,-0.415353 -3.78688,-1.057848 -0.39509,-0.122111 -0.91099,-0.0071 -1.35543,-0.01066 -0.26884,-0.0021 -0.56217,-0.06479 -0.81254,-0.0065 -0.0322,0.0076 -1.03217,0.645442 -1.09312,0.801531 -0.0918,0.235065 0.18547,0.655339 -0.27807,0.772154 -0.2748,0.06928 -2.3667,0.147232 -2.7102,-0.0061 -0.49207,-0.219781 -0.96671,-0.446546 -1.34633,-0.789377 -0.0367,-0.03317 -0.31545,-0.603132 -0.53375,-0.827692 0.0103,0.01232 0.002,1.7e-5 0.002,1.7e-5 -9.9e-4,-9e-6 -0.002,-3.71e-4 -0.003,-3.8e-4 -0.14174,-0.145596 -0.25785,-0.204546 -0.26666,-0.01325 -0.27206,-0.01638 -0.55425,-0.03964 -0.81361,0.0039 -0.32476,0.0544 -0.55092,0.208931 -0.81786,0.370213 -0.20084,0.121317 -0.33228,0.323673 -0.54593,0.449979 -0.51962,-0.475239 -0.83974,-0.652534 -0.93299,-0.693783 -0.0399,-0.04438 -0.0764,-0.08774 -0.13893,-0.147774 -0.37314,-0.359059 -0.843,-0.05482 -1.34987,-0.170528 -0.50876,-0.116071 -0.81306,-0.33844 -1.34291,-0.344078 -1.88452,-0.01485 -5.67801,-0.06166 -5.67801,-0.06166 -0.62945,-0.007 -1.77556,-0.06356 -2.43202,-0.02715 -1.10607,0.06139 -0.98326,0.388736 -1.91471,0.883007 -0.22731,0.120577 -0.54013,-0.0044 -0.81093,-0.0066 -0.78376,-0.0064 -1.47533,0.118898 -2.15781,-0.230034 -0.10494,-0.05374 -0.15306,-0.153929 -0.26606,-0.192803 -0.38106,-0.13095 -2.53677,-0.06658 -2.97141,-0.02939 -0.30294,0.02603 -1.04935,0.226643 -1.35928,0.395974 -0.107,0.05854 -0.14668,0.236594 -0.27399,0.235641 -0.25468,-0.0019 -0.29199,-0.395585 -0.53227,-0.459179 -0.16917,-0.04473 -0.36038,-0.0034 -0.53969,-0.005 -0.18556,-0.07319 -0.33882,-0.153092 -0.53561,-0.199843 -1.05645,-0.250747 -3.2643,0.211669 -4.32031,-0.04373 -0.56913,-0.137341 -1.0539,-0.35926 -1.60456,-0.458779 -0.27509,-0.04975 -0.65528,0.07358 -0.81422,0.111052 -0.18171,0.04285 -0.35313,0.106287 -0.54529,0.142373 -0.38555,-0.08196 -3.25504,-0.433069 -3.49335,-0.402399 -0.11459,0.01474 -0.15348,0.07409 -0.27488,0.08868 -0.17179,0.02059 -0.36742,-0.02695 -0.53921,-0.0064 -0.12141,0.0146 -0.16025,0.09172 -0.27521,0.119291 -0.53415,0.128018 -2.85561,-0.189507 -4.30716,-0.266748 -1.11651,-0.05942 -2.41698,0.05005 -3.50714,-0.04238 -0.19428,-0.01647 -0.33933,-0.05913 -0.53609,-0.06806 -0.18912,-0.0086 -0.63204,-0.01806 -1.07797,-0.02432 0.009,0.01371 -9.4e-4,-3.7e-5 -9.4e-4,-3.7e-5 -1.1e-4,4.3e-5 -1.1e-4,4.3e-5 -1.1e-4,4.3e-5"
       inkscape:path-effect="#path-effect866;#path-effect2558"
       inkscape:original-d="m 405.36555,87.899662 c -0.45222,-0.003 -0.90434,0.006 -1.09655,0.0383 0,3e-5 -0.5481,0.27324 -0.54831,0.27326 -0.14259,0.0178 -1.11972,-0.0626 -1.37069,0 -0.11557,0.0288 -0.15802,0.10808 -0.27359,0.13692 -0.10292,0.0257 -2.11038,0.28699 -2.19314,0.27326 -0.19381,-0.0322 -0.35007,-0.11192 -0.54828,-0.13663 -0.63407,-0.0791 -1.62262,0.14214 -2.19259,0 -0.89045,-0.22206 -0.70085,-0.63043 -2.46728,-0.41018 -0.55469,0.0692 -0.65121,0.33614 -1.09657,0.41018 -0.15677,0.026 -6.16654,0.0343 -6.30415,0 -1.27914,-0.31899 0.73142,0.0455 -0.54773,-0.27355 -0.46853,-0.11684 -3.14084,0 -3.83742,0 -0.57592,0 -1.70922,0.0804 -2.19314,0 -0.24517,-0.0408 -0.31715,-0.21562 -0.54828,-0.27326 -0.24517,-0.0611 -0.54834,0 -0.82245,0 -0.45681,0 -0.92693,-0.0553 -1.37014,0 -0.31958,0.0398 -0.52778,0.19978 -0.82242,0.27326 -0.66132,0.16493 -1.75286,-0.11869 -2.46673,0 -0.45261,0.0752 -0.76639,0.33716 -1.64484,0.41018 -1.47872,0.12293 -3.25321,-0.23385 -4.65987,0 -0.19383,0.0322 -0.34399,0.13663 -0.54828,0.13663 -0.28892,0 -0.55134,-0.086 -0.82187,-0.13663 -0.46072,-0.0862 -0.94352,-0.1515 -1.37072,-0.27326 -0.22437,-0.064 -0.30833,-0.22569 -0.54828,-0.27355 -0.25451,-0.0508 -0.54833,0 -0.82241,0 h -1.37018 c -0.75995,0 -1.1732,0.0746 -1.91897,0.13663 -0.72892,0.0606 -1.83256,-0.15816 -2.46673,0 -0.41981,0.10469 -0.21446,0.24368 -0.54828,0.41018 -0.23292,0.11619 -0.52722,0.1998 -0.82187,0.27327 -0.38546,0.0961 -2.12081,0 -2.74141,0 -0.5825,0 -0.98729,0.009 -1.64432,-0.13664 -0.41746,-0.0925 -0.73983,-0.26755 -1.09655,-0.40989 -0.10095,-0.0403 -0.14493,-0.13692 -0.27414,-0.13692 -0.41723,0 -1.15746,0.19746 -1.37073,0.41018 -0.0409,0.0408 0.0647,0.10445 0,0.13663 -1.58547,0.79081 -2.82662,0.15524 -4.65985,0.54711 -1.5301,0.32707 -0.45416,0.4099 -2.19259,0.4099 -0.2741,0 -0.59435,0.0758 -0.82241,0 -0.21504,-0.0715 -0.31657,-0.21562 -0.54773,-0.27327 -0.0922,-0.023 -1.00451,-0.0754 -1.09656,-0.13663 -0.0225,-0.015 -0.44393,-0.58934 -0.82244,-0.68374 -0.75848,-0.18914 -1.52336,0.31843 -1.83461,0.71718 -0.4913,0.0187 -1.00921,0.0635 -1.28008,0.0185 -0.12257,-0.0204 -0.15857,-0.10779 -0.27414,-0.13663 -0.49709,-0.12397 -1.14721,0.0127 -1.6443,0.13663 -0.23114,0.0576 -0.28984,0.27356 -0.54828,0.27356 -0.20431,0 -0.0914,-0.22798 -0.27415,-0.27356 -0.41669,-0.10394 -0.9425,-0.0451 -1.37069,-0.13663 -0.23754,-0.0508 -0.30256,-0.23254 -0.54773,-0.27326 -0.43341,-0.072 -0.96211,-0.1019 -1.37073,0 -0.11555,0.0288 -0.15155,0.11622 -0.27413,0.13663 -0.43338,0.0721 -0.92751,-0.0553 -1.37073,0 -0.47731,0.0595 -0.94821,0.147 -1.37014,0.27326 -0.10413,0.0311 -0.0445,0.3992 -0.54828,0.27356 -0.54819,-0.13672 -0.8225,-0.54674 -1.37073,-0.68345 -0.007,-0.002 -1.33,-0.13023 -1.37014,-0.13692 -0.24822,-0.0413 -0.56901,-0.41019 -0.82242,-0.41019 -1.02136,0 -1.70834,0.49447 -2.46727,0.68374 -0.45876,0.11441 -2.78829,-0.35664 -4.11158,-0.13663 -0.54821,0.0911 -1.16348,0.43313 -1.6443,0.27326 -0.21501,-0.0715 -0.33325,-0.20176 -0.54828,-0.27326 -0.0761,-0.0253 -0.19239,0.0204 -0.27414,0 -0.11557,-0.0288 -0.15858,-0.10808 -0.27415,-0.13692 -0.0817,-0.0204 -0.18931,0.017 -0.27413,0 -1.42849,-0.28503 -0.84628,-0.27327 -2.19259,-0.27327 h -1.09656 c -0.0829,0 -0.23412,-0.0341 -0.26283,-0.007 -0.77088,-0.0193 -1.79642,-0.10611 -2.47804,0.007 -0.15387,0.0256 -0.66598,0.57607 -1.09659,0.68345 -0.56295,0.14039 -1.16917,-0.58322 -1.37014,-0.68345 -0.0646,-0.0322 -0.18328,0 -0.27469,0 h -1.37014 c -0.63957,0 -1.31226,-0.10087 -1.919,0 -0.21647,0.036 -1.0582,0.26082 -1.37015,0.13634 -0.40359,-0.16104 -0.65338,-0.41389 -1.09659,-0.54652 -0.16797,-0.0503 -1.96664,1.10555 -2.46669,1.23026 -0.16179,0.0403 -0.63821,0 -0.82245,0 -2.06093,0 -1.92103,-0.20582 -3.83743,-0.68374 -0.40861,-0.1019 -0.91389,0 -1.37072,0 -0.27408,0 -0.56736,-0.0508 -0.82186,0 -0.0296,0.006 -1.03803,0.45952 -1.09657,0.54711 -0.0908,0.13582 0.19338,0.3519 -0.27414,0.41019 -0.27582,0.0344 -2.39266,0.0744 -2.74086,0 -0.48968,-0.10468 -0.99401,-0.2223 -1.37071,-0.41019 -0.0375,-0.0187 -0.32559,-0.36453 -0.55055,-0.54682 l 0.002,-2.9e-4 h -0.003 c -0.14601,-0.11821 -0.2647,-0.16718 -0.27018,-0.009 -0.27865,-0.0117 -0.55879,-0.0286 -0.82355,0.009 -0.31676,0.0451 -0.56519,0.17091 -0.82243,0.27356 -0.2018,0.0805 -0.33326,0.20176 -0.54829,0.27326 -0.55892,-0.27877 -0.83012,-0.39539 -0.95327,-0.43382 -0.0489,-0.0384 -0.0706,-0.0591 -0.14273,-0.113 -0.38468,-0.28779 -0.85462,-0.0337 -1.37072,-0.13663 -0.518,-0.10335 -0.8337,-0.41018 -1.37071,-0.41018 h -5.75587 c -0.66993,0 -1.771,-0.0867 -2.46672,0 -0.88182,0.10995 -1.21893,0.58759 -1.91899,0.82037 -0.22806,0.0758 -0.54833,0 -0.82244,0 -0.75561,0 -1.53339,0.0825 -2.19257,-0.13664 -0.10752,-0.0358 -0.15858,-0.10808 -0.27415,-0.13692 -0.39859,-0.0994 -2.56612,-0.032 -3.01499,0 -0.28364,0.0202 -1.08203,0.17757 -1.37072,0.27356 -0.10752,0.0358 -0.14494,0.13663 -0.27415,0.13663 -0.25843,0 -0.30312,-0.23255 -0.54827,-0.27327 -0.17337,-0.0288 -0.36557,0 -0.54829,0 -0.18274,-0.0456 -0.3539,-0.10473 -0.54772,-0.13692 -1.09096,-0.18138 -3.31519,0.17798 -4.38572,0 -0.58146,-0.0967 -1.08148,-0.28947 -1.64485,-0.40989 -0.25759,-0.0551 -0.68569,0.10266 -0.82187,0.13663 -0.18274,0.0456 -0.35446,0.10444 -0.54828,0.13663 -0.39863,-0.0663 -3.31683,-0.47165 -3.56329,-0.41018 -0.11559,0.0288 -0.15156,0.1165 -0.27414,0.13692 -0.17336,0.0288 -0.37493,-0.0288 -0.54829,0 -0.12259,0.0204 -0.15857,0.10779 -0.27414,0.13663 -0.53699,0.13392 -2.90776,-0.16824 -4.38572,-0.27355 -1.13684,-0.081 -2.45123,0.13866 -3.5633,0 -0.19819,-0.0247 -0.34795,-0.11638 -0.54827,-0.13635 -0.1916,-0.0191 -0.64376,-0.0353 -1.09601,-0.0387 -0.45224,-0.003 -0.90436,0.006 -1.09658,0.038 0,3e-5 -0.54808,0.27381 -0.54827,0.27384 -0.1426,0.0178 -1.11974,-0.0626 -1.37073,0 -0.11556,0.0288 -0.15854,0.1075 -0.27414,0.13634 -0.10292,0.0257 -2.10981,0.28728 -2.19257,0.27355 -0.1938,-0.0322 -0.35008,-0.11192 -0.54829,-0.13663 -0.63404,-0.0791 -1.62318,0.14213 -2.19314,0 -0.89044,-0.22207 -0.70029,-0.63072 -2.46672,-0.41047 -0.55468,0.0692 -0.65118,0.33643 -1.09657,0.41047 -0.15674,0.026 -6.16652,0.0343 -6.30414,0 -1.27916,-0.319 0.73084,0.0457 -0.54829,-0.27326 -0.46853,-0.11685 -3.14083,0 -3.83744,0 -0.57591,0 -1.70865,0.0804 -2.19258,0 -0.24515,-0.0408 -0.31714,-0.2162 -0.54828,-0.27384 -0.24515,-0.0611 -0.54833,0 -0.82242,0 -0.45683,0 -0.92696,-0.0553 -1.37016,0 -0.31959,0.0398 -0.52834,0.20035 -0.82299,0.27384 -0.66132,0.16491 -1.75287,-0.11869 -2.46671,0 -0.45263,0.0752 -0.76583,0.33687 -1.6443,0.40989 -1.47872,0.12293 -3.2532,-0.23386 -4.65986,0 -0.19383,0.0322 -0.34399,0.13664 -0.54828,0.13664 -0.28893,0 -0.5519,-0.086 -0.82243,-0.13664 -0.46071,-0.0862 -0.94351,-0.15179 -1.37072,-0.27355 -0.22437,-0.0639 -0.30834,-0.22569 -0.54828,-0.27355 -0.25451,-0.0508 -0.54775,0 -0.82186,0 h -1.37071 c -0.75997,0 -1.17265,0.0752 -1.91844,0.13721 -0.72889,0.0606 -1.8331,-0.15816 -2.46729,0 -0.4198,0.10468 -0.21444,0.24338 -0.54828,0.40989 -0.23294,0.11619 -0.52721,0.20008 -0.82186,0.27356 -0.38547,0.0961 -2.12026,0 -2.74086,0 -0.58248,0 -0.98783,0.009 -1.64486,-0.13692 -0.41747,-0.0925 -0.73984,-0.26784 -1.09657,-0.41019 -0.10095,-0.0403 -0.14494,-0.13634 -0.27415,-0.13634 -0.41725,0 -1.15688,0.19716 -1.37014,0.40989 -0.0409,0.0408 0.0647,0.10445 0,0.13664 -1.5855,0.7908 -2.82661,0.15494 -4.65986,0.54681 -1.5301,0.32707 -0.45476,0.41018 -2.19315,0.41018 -0.27413,0 -0.59379,0.0758 -0.82186,0 -0.21502,-0.0715 -0.31714,-0.21591 -0.54829,-0.27355 -0.0922,-0.023 -1.0045,-0.0754 -1.09657,-0.13663 -0.0225,-0.015 -0.4439,-0.58904 -0.82243,-0.68345 -0.50174,-0.12512 -1.00258,0.0572 -1.37694,0.30873 -0.37434,-0.25147 -0.87473,-0.43383 -1.37638,-0.30873 -0.37853,0.0944 -0.79992,0.66847 -0.82243,0.68345 -0.0921,0.0612 -1.00434,0.11365 -1.09657,0.13663 -0.23115,0.0576 -0.33326,0.20206 -0.54828,0.27355 -0.22807,0.0758 -0.54774,0 -0.82187,0 -1.73839,0 -0.66304,-0.0831 -2.19314,-0.41018 -1.83325,-0.39187 -3.07436,0.24399 -4.65986,-0.54681 -0.0647,-0.0322 0.0409,-0.0959 0,-0.13664 -0.21326,-0.21273 -0.95289,-0.40989 -1.37014,-0.40989 -0.12921,0 -0.17326,0.0961 -0.27415,0.13634 -0.35673,0.14235 -0.67909,0.31765 -1.09657,0.41019 -0.65703,0.14565 -1.06238,0.13692 -1.64486,0.13692 -0.62061,0 -2.35539,0.0961 -2.74086,0 -0.29464,-0.0735 -0.58892,-0.15737 -0.82186,-0.27356 -0.33384,-0.16651 -0.12848,-0.30521 -0.54828,-0.40989 -0.63419,-0.15816 -1.73839,0.0606 -2.46729,0 -0.74579,-0.062 -1.15847,-0.13721 -1.91844,-0.13721 h -1.37071 c -0.27411,0 -0.56735,-0.0508 -0.82186,0 -0.23994,0.0479 -0.32391,0.20961 -0.54828,0.27355 -0.42721,0.12176 -0.91001,0.18739 -1.37072,0.27355 -0.27053,0.0506 -0.5335,0.13664 -0.82242,0.13664 -0.2043,0 -0.35446,-0.10441 -0.54829,-0.13664 -1.40666,-0.23386 -3.18114,0.12293 -4.65986,0 -0.87847,-0.073 -1.19168,-0.33465 -1.6443,-0.40989 -0.71384,-0.11869 -1.80538,0.16491 -2.46672,0 -0.29465,-0.0735 -0.50283,-0.23399 -0.82242,-0.27384 -0.4432,-0.0553 -0.91389,0 -1.37072,0 -0.27409,0 -0.57727,-0.0611 -0.82242,0 -0.23114,0.0576 -0.30313,0.23307 -0.54829,0.27384 -0.48392,0.0804 -1.61666,0 -2.19257,0 -0.69661,0 -3.36891,-0.11685 -3.83744,0 -1.27913,0.31899 0.73088,-0.0457 -0.54828,0.27326 -0.13763,0.0343 -6.14741,0.026 -6.30415,0 -0.44539,-0.074 -0.54188,-0.3413 -1.09657,-0.41047 -1.76643,-0.22025 -1.57627,0.1884 -2.46672,0.41047 -0.56996,0.14213 -1.5591,-0.0791 -2.19314,0 -0.19821,0.0247 -0.35392,0.10442 -0.54772,0.13663 -0.0828,0.0137 -2.09026,-0.24788 -2.19315,-0.27355 -0.11558,-0.0288 -0.15857,-0.10753 -0.27414,-0.13634 -0.25097,-0.0626 -1.22811,0.0178 -1.37071,0 -1.9e-4,-3e-5 -0.54772,-0.27381 -0.54772,-0.27384 -0.19213,-0.0319 -0.64453,-0.0413 -1.09657,-0.038 h -5.7e-4 c -0.45205,0.003 -0.90393,0.0195 -1.09544,0.0387 -0.20032,0.02 -0.35007,0.11164 -0.54828,0.13635 -1.11207,0.13866 -2.42647,-0.081 -3.563295,0 -1.47797,0.10531 -3.848736,0.40747 -4.385719,0.27355 -0.115574,-0.0288 -0.151561,-0.11625 -0.274141,-0.13663 -0.173367,-0.0288 -0.37493,0.0288 -0.548287,0 -0.122582,-0.0204 -0.158568,-0.10809 -0.274143,-0.13692 -0.246467,-0.0615 -3.164658,0.3439 -3.563289,0.41018 -0.193818,-0.0322 -0.365551,-0.0911 -0.548285,-0.13663 -0.136188,-0.034 -0.564269,-0.1917 -0.821863,-0.13663 -0.563364,0.12042 -1.063398,0.31322 -1.644856,0.40989 -1.070531,0.17798 -3.294758,-0.18138 -4.385718,0 -0.193823,0.0322 -0.364983,0.0914 -0.547719,0.13692 -0.182725,0 -0.374926,-0.0288 -0.548286,0 -0.245163,0.0407 -0.289855,0.27327 -0.548285,0.27327 -0.12921,0 -0.166635,-0.10088 -0.274145,-0.13663 -0.288679,-0.096 -1.08708,-0.25334 -1.370713,-0.27356 -0.448877,-0.032 -2.616394,-0.0994 -3.015003,0 -0.115572,0.0288 -0.166632,0.10117 -0.274141,0.13692 -0.659176,0.21918 -1.436959,0.13664 -2.192578,0.13664 -0.274098,0 -0.594362,0.0758 -0.822428,0 -0.700051,-0.23278 -1.036613,-0.71042 -1.918432,-0.82037 -0.695721,-0.0867 -1.797356,0 -2.467287,0 H 61.2553 c -0.537013,0 -0.852709,0.30683 -1.370713,0.41018 -0.516094,0.10296 -0.985477,-0.15116 -1.370148,0.13663 -0.0721,0.0539 -0.09435,0.0746 -0.143302,0.113 -0.123153,0.0384 -0.394342,0.15505 -0.953269,0.43382 -0.21502,-0.0715 -0.346489,-0.19274 -0.548287,-0.27326 -0.257238,-0.10265 -0.505668,-0.22842 -0.82243,-0.27356 -0.26476,-0.0378 -0.544905,-0.0209 -0.823559,-0.009 -0.0052,-0.15825 -0.124153,-0.10928 -0.270179,0.009 h -0.0028 c 3.36e-4,0 0.002,2.9e-4 0.0023,2.9e-4 -0.224966,0.18229 -0.513095,0.52814 -0.550552,0.54682 -0.376708,0.18789 -0.880468,0.30551 -1.370148,0.41019 -0.348196,0.0744 -2.465605,0.0344 -2.741429,0 -0.467512,-0.0583 -0.183365,-0.27437 -0.274142,-0.41019 -0.05853,-0.0876 -1.066388,-0.54119 -1.096002,-0.54711 -0.254495,-0.0508 -0.548326,0 -0.82243,0 -0.456834,0 -0.962104,-0.10188 -1.370713,0 -1.916389,0.477822 -1.473657,-0.527626 -3.837435,0.68374 -0.163956,0.08402 -2.078602,-0.177934 -2.240374,-0.218234 -0.500062,-0.12471 -0.880789,-1.062286 -1.048771,-1.012026 -0.443192,0.13263 -0.69298,0.38548 -1.09657,0.54652 -0.311964,0.12448 -1.153693,-0.10035 -1.370148,-0.13634 -0.606749,-0.10087 -1.279427,0 -1.919,0 h -1.370147 c -0.09137,0 -0.209533,-0.0322 -0.274143,0 -0.200957,0.10023 -0.807743,0.82384 -1.370715,0.68345 -0.430581,-0.10738 -0.942686,-0.65786 -1.096568,-0.68345 -0.68164,-0.11332 -1.707154,-0.0265 -2.47805,-0.007 -0.02875,-0.0269 -0.179968,0.007 -0.262813,0.007 h -1.096572 c -1.34631,0 -0.764089,-0.0118 -2.192576,0.27327 -0.08483,0.017 -0.192423,-0.0204 -0.274143,0 -0.115566,0.0288 -0.158572,0.1081 -0.274143,0.13692 -0.08172,0.0204 -0.198122,-0.0253 -0.274141,0 -0.215025,0.0715 -0.333261,0.20176 -0.548286,0.27326 -0.480805,0.15987 -1.096086,-0.18212 -1.64429,-0.27326 -1.323296,-0.22001 -3.652832,0.25104 -4.111575,0.13663 -0.758938,-0.18927 -1.445919,-0.68374 -2.467286,-0.68374 -0.253405,0 -0.57363,0.36891 -0.821862,0.41019 -0.04013,0.007 -1.363784,0.13527 -1.370713,0.13692 -0.5482,0.13671 -0.822517,0.54673 -1.370714,0.68345 -0.503795,0.12564 -0.443633,-0.24241 -0.547719,-0.27356 -0.421911,-0.12626 -0.893379,-0.21374 -1.3707142,-0.27326 -0.443196,-0.0553 -0.937322,0.0721 -1.370714,0 -0.122582,-0.0204 -0.15857,-0.10781 -0.274142,-0.13663 -0.4086092,-0.1019 -0.9367546,-0.072 -1.3701479,0 -0.2451638,0.0407 -0.310756,0.22248 -0.5482857,0.27326 -0.4282143,0.0915 -0.9540141,0.0327 -1.3707142,0.13663 -0.182736,0.0456 -0.069831,0.27356 -0.2741428,0.27356 -0.2584263,0 -0.3171418,-0.21592 -0.5482846,-0.27356 -0.4970937,-0.12396 -1.1471979,-0.2606 -1.6442905,-0.13663 -0.1155708,0.0288 -0.1515593,0.11625 -0.2741428,0.13663 C 1.8274681,89.439482 0.4677672,88.059547 0,88.257627 c -0.022272,0.009 0.009359,1.372735 0.01108,1.594055 h -0.0057 c 0.00164,0.008 0.00132,0.25571 0.00164,0.42258 -0.00135,0.0501 0.00237,0.1702 -0.00245,0.17555 h 0.00285 c 5.864e-4,0.43936 0.00208,0.92293 0.011892,0.94345 0.1912788,0.40043 1.0714999,1.10179 1.9422225,0.88465 0.3785228,-0.0944 0.7999305,-0.66875 0.8224285,-0.68373 0.092026,-0.0612 1.0043424,-0.11366 1.0965714,-0.13664 0.2311396,-0.0576 0.3327081,-0.20176 0.547719,-0.27326 0.2280728,-0.0758 0.5483142,0 0.8224286,0 1.738398,0 0.6624755,0.0828 2.192575,0.4099 1.8332527,0.39186 3.074368,-0.24371 4.659861,0.54709 0.06461,0.0322 -0.04086,0.0959 0,0.13664 0.213269,0.21273 0.953476,0.41019 1.370714,0.41019 0.129214,0 0.173252,-0.0964 0.274143,-0.13664 0.35672,-0.14234 0.679104,-0.31765 1.096571,-0.41019 0.65703,-0.14565 1.061806,-0.13662 1.644289,-0.13662 0.620613,0 2.355964,-0.0961 2.741429,0 0.294648,0.0735 0.588928,0.15707 0.821862,0.27326 0.333839,0.1665 0.128482,0.30549 0.548284,0.41019 0.634189,0.15815 1.737816,-0.0606 2.466719,0 0.745792,0.062 1.15904,0.13662 1.919,0.13662 h 1.370147 c 0.274101,0 0.567917,0.0508 0.822428,0 0.23994,-0.0479 0.323906,-0.20931 0.548286,-0.27326 0.427197,-0.12176 0.910007,-0.18739 1.370714,-0.27355 0.270529,-0.0506 0.532929,-0.13664 0.821861,-0.13664 0.2043,0 0.354464,0.10441 0.548287,0.13664 1.406655,0.23385 3.181145,-0.12292 4.65986,0 0.878476,0.073 1.192252,0.33494 1.644855,0.41019 0.713844,0.11868 1.80483,-0.16493 2.466154,0 0.29466,0.0735 0.503407,0.23341 0.822995,0.27326 0.443195,0.0553 0.913313,0 1.370148,0 0.274101,0 0.57726,0.0611 0.822428,0 0.231132,-0.0576 0.303122,-0.2325 0.548285,-0.27326 0.483909,-0.0805 1.61722,0 2.193141,0 0.696589,0 3.368908,0.11684 3.837432,0 1.279137,-0.319 -0.731429,0.0457 0.547722,-0.27327 0.137624,-0.0343 6.147393,-0.026 6.304151,0 0.445376,0.074 0.541878,0.34073 1.09657,0.40989 1.766428,0.22025 1.576829,-0.18783 2.467285,-0.40989 0.56995,-0.14214 1.558527,0.079 2.192577,0 0.198207,-0.0247 0.354466,-0.1047 0.548283,-0.13692 0.08275,-0.0137 2.090256,0.24789 2.193143,0.27355 0.115574,0.0288 0.158013,0.10781 0.273576,0.13664 0.250989,0.0626 1.22811,-0.0178 1.370713,0 2.9e-4,2e-5 0.548377,0.27322 0.548377,0.27326 0.384453,0.0639 1.809391,0.0382 2.192577,0 0.200327,-0.02 0.350076,-0.11192 0.548284,-0.13664 1.112049,-0.13866 2.426446,0.081 3.56329,0 1.477962,-0.1053 3.848733,-0.40718 4.385718,-0.27326 0.115575,0.0288 0.151553,0.11625 0.274143,0.13664 0.173354,0.0288 0.374361,-0.0288 0.547718,0 0.122578,0.0204 0.159138,0.1078 0.27471,0.13662 0.246476,0.0615 3.164656,-0.34361 3.563291,-0.40989 0.193817,0.0322 0.365547,0.0911 0.548283,0.13663 0.136186,0.034 0.564267,0.1917 0.821861,0.13664 0.563361,-0.12042 1.063398,-0.31352 1.644858,-0.41019 1.070532,-0.17798 3.294759,0.18137 4.385719,0 0.193823,-0.0322 0.364988,-0.0911 0.547718,-0.13664 0.18273,0 0.374926,0.0288 0.548284,0 0.245165,-0.0408 0.289858,-0.27354 0.548287,-0.27354 0.129208,0 0.166638,0.10116 0.274142,0.13692 0.288683,0.096 1.087079,0.25303 1.370713,0.27326 0.448886,0.032 2.616401,0.0994 3.015006,0 0.115575,-0.0288 0.16663,-0.10089 0.274143,-0.13664 0.659177,-0.21918 1.436952,-0.13662 2.192576,-0.13662 0.274097,0 0.594367,-0.0758 0.822427,0 0.70005,0.23276 1.03717,0.71012 1.918995,0.82007 0.69572,0.0867 1.7968,0 2.46672,0 h 5.75644 c 0.537,0 0.85216,-0.30654 1.37014,-0.40989 0.5161,-0.10297 0.98604,0.15087 1.37071,-0.13692 0.0721,-0.0539 0.0944,-0.0743 0.1433,-0.11271 0.12315,-0.0384 0.39379,-0.15505 0.95271,-0.43382 0.21503,0.0715 0.34649,0.19274 0.54829,0.27327 0.25723,0.10264 0.50566,0.22812 0.82242,0.27326 0.26475,0.0378 0.54492,0.0209 0.82357,0.009 0.005,0.15825 0.12413,0.10929 0.27017,-0.009 10e-4,0 0.002,-2.9e-4 0.003,-2.9e-4 h -0.002 c 0.22495,-0.18229 0.5131,-0.52785 0.55055,-0.54653 0.37671,-0.18789 0.88047,-0.30551 1.37015,-0.41018 0.34821,-0.0744 2.4656,-0.0344 2.74143,0 0.4675,0.0583 0.18337,0.27435 0.27415,0.41018 0.0585,0.0876 1.06693,0.54061 1.09656,0.54653 0.25449,0.0508 0.54777,0 0.82187,0 0.45683,0 0.96211,0.1019 1.37071,0 1.91641,-0.47792 1.7765,-0.68345 3.83744,-0.68345 0.18423,0 0.66066,-0.0403 0.82242,0 0.50006,0.12471 2.29872,1.28082 2.46671,1.23055 0.4432,-0.13263 0.69299,-0.38606 1.09658,-0.5471 0.31197,-0.12447 1.15369,0.10093 1.37014,0.13692 0.60675,0.10087 1.27944,0 1.919,0 h 1.37015 c 0.0914,0 0.20956,0.0322 0.27415,0 0.20095,-0.10024 0.80774,-0.82384 1.37071,-0.68345 0.43059,0.10738 0.94268,0.65786 1.09657,0.68345 0.68163,0.11332 1.70716,0.0265 2.47805,0.007 0.0288,0.0269 0.17996,-0.007 0.26282,-0.007 h 1.09656 c 1.34632,0 0.76409,0.0115 2.19258,-0.27356 0.0848,-0.0169 0.19243,0.0204 0.27414,0 0.11557,-0.0288 0.15857,-0.10781 0.27414,-0.13662 0.0818,-0.0204 0.19815,0.0253 0.27415,0 0.21503,-0.0715 0.33328,-0.20178 0.54829,-0.27327 0.48081,-0.15987 1.09608,0.18212 1.64428,0.27327 1.3233,0.22 3.65284,-0.25104 4.11157,-0.13664 0.75894,0.18927 1.44591,0.68374 2.46729,0.68374 0.2534,0 0.57365,-0.3692 0.82187,-0.41048 0.0401,-0.007 1.36378,-0.13497 1.3707,-0.13662 0.5482,-0.13672 0.82196,-0.54674 1.37016,-0.68345 0.50379,-0.12564 0.4442,0.24211 0.54829,0.27326 0.42192,0.12626 0.89336,0.21403 1.37071,0.27355 0.4432,0.0553 0.93733,-0.072 1.3707,0 0.1226,0.0204 0.15858,0.10781 0.27415,0.13664 0.40863,0.10189 0.93676,0.072 1.37015,0 0.24517,-0.0408 0.31076,-0.2225 0.54829,-0.27327 0.4282,-0.0915 0.95402,-0.033 1.37071,-0.13692 0.18276,-0.0456 0.0698,-0.27326 0.27414,-0.27326 0.25842,0 0.31657,0.21562 0.54772,0.27326 0.4971,0.12397 1.14776,0.26088 1.64486,0.13692 0.11557,-0.0288 0.15154,-0.11653 0.27414,-0.13692 0.35846,-0.0596 1.1487,0.0389 1.73718,0.0239 0.58854,0.0151 1.37918,-0.0835 1.73775,-0.0239 0.12259,0.0204 0.15857,0.10808 0.27415,0.13692 0.4971,0.12396 1.14775,-0.0129 1.64485,-0.13692 0.23115,-0.0576 0.2893,-0.27326 0.54772,-0.27326 0.20433,0 0.0914,0.22769 0.27414,0.27326 0.41669,0.10394 0.94251,0.0454 1.37071,0.13692 0.23753,0.0508 0.30312,0.23249 0.54829,0.27327 0.4334,0.072 0.96153,0.10189 1.37015,0 0.11557,-0.0288 0.15155,-0.11622 0.27414,-0.13664 0.43339,-0.072 0.92752,0.0553 1.37072,0 0.47734,-0.0595 0.94879,-0.14729 1.37071,-0.27355 0.10413,-0.0311 0.0445,-0.3989 0.54829,-0.27326 0.5482,0.13671 0.82194,0.54673 1.37014,0.68345 0.007,0.002 1.3306,0.12993 1.37072,0.13662 0.24821,0.0413 0.56846,0.41048 0.82186,0.41048 1.02139,0 1.70834,-0.49447 2.46728,-0.68374 0.45874,-0.1144 2.78829,0.35664 4.11159,0.13664 0.5482,-0.0912 1.16347,-0.43314 1.64428,-0.27327 0.21501,0.0715 0.33326,0.20176 0.54829,0.27327 0.076,0.0253 0.19237,-0.0204 0.27414,0 0.11557,0.0288 0.15858,0.10779 0.27415,0.13662 0.0818,0.0204 0.1893,-0.0169 0.27413,0 1.42849,0.28504 0.84627,0.27356 2.19259,0.27356 h 1.09656 c 0.0829,0 0.23399,0.0341 0.26282,0.007 0.77089,0.0194 1.7964,0.10612 2.47804,-0.007 0.1539,-0.0256 0.66598,-0.57607 1.09658,-0.68345 0.56297,-0.14039 1.16976,0.58321 1.37071,0.68345 0.0646,0.0322 0.18273,0 0.27415,0 h 1.37014 c 0.63957,0 1.31224,0.10087 1.91899,0 0.21646,-0.036 1.05818,-0.26139 1.37016,-0.13692 0.40358,0.16104 0.65338,0.41447 1.09656,0.5471 0.168,0.0503 1.96723,-1.10584 2.46729,-1.23055 0.16176,-0.0403 0.63762,0 0.82186,0 2.06093,0 1.92103,0.20553 3.83744,0.68345 0.4086,0.1019 0.91388,0 1.37071,0 0.27409,0 0.56738,0.0508 0.82187,0 0.0296,-0.006 1.03803,-0.45895 1.09656,-0.54653 0.0908,-0.13583 -0.19336,-0.35189 0.27415,-0.41018 0.27583,-0.0344 2.39322,-0.0744 2.74143,0 0.48968,0.10467 0.99343,0.22229 1.37014,0.41018 0.0375,0.0187 0.32559,0.36424 0.55055,0.54653 h -0.002 c 0.001,0 0.002,2.9e-4 0.003,2.9e-4 0.14604,0.11822 0.26469,0.16718 0.27017,0.009 0.27865,0.0117 0.55882,0.0286 0.82356,-0.009 0.31677,-0.0451 0.56519,-0.17062 0.82243,-0.27326 0.2018,-0.0805 0.33326,-0.20178 0.54829,-0.27327 0.55892,0.27877 0.82957,0.39539 0.9527,0.43382 0.0489,0.0384 0.0711,0.0588 0.1433,0.11271 0.38468,0.28779 0.85462,0.034 1.37072,0.13692 0.51799,0.10335 0.83313,0.40989 1.37014,0.40989 h 5.75643 c 0.66994,0 1.77101,0.0867 2.46672,0 0.88183,-0.10995 1.21896,-0.58731 1.919,-0.82007 0.22807,-0.0758 0.54832,0 0.82243,0 0.75562,0 1.5334,-0.0826 2.19258,0.13662 0.10752,0.0358 0.15857,0.1078 0.27414,0.13664 0.3986,0.0994 2.56612,0.032 3.015,0 0.28364,-0.0202 1.08203,-0.17728 1.37072,-0.27326 0.10752,-0.0358 0.14493,-0.13692 0.27414,-0.13692 0.25843,0 0.30311,0.23277 0.54828,0.27354 0.17336,0.0288 0.36557,0 0.54829,0 0.18273,0.0456 0.3539,0.1044 0.54772,0.13664 1.09096,0.18137 3.3152,-0.17798 4.38572,0 0.58146,0.0967 1.0815,0.28977 1.64485,0.41019 0.2576,0.055 0.68567,-0.10267 0.82186,-0.13664 0.18274,-0.0456 0.35447,-0.10445 0.54829,-0.13663 0.39863,0.0663 3.31682,0.47136 3.56329,0.40989 0.11559,-0.0288 0.15214,-0.11621 0.27471,-0.13662 0.17337,-0.0288 0.37437,0.0288 0.54772,0 0.12259,-0.0204 0.15857,-0.1078 0.27414,-0.13664 0.53699,-0.13392 2.90776,0.16796 4.38572,0.27326 1.13685,0.081 2.45123,-0.13866 3.56329,0 0.1982,0.0247 0.34796,0.11667 0.54828,0.13664 0.38319,0.0382 1.80813,0.0639 2.19259,0 0,-4e-5 0.54806,-0.27324 0.54827,-0.27326 0.1426,-0.0178 1.11973,0.0626 1.37072,0 0.11556,-0.0288 0.15801,-0.1078 0.27358,-0.13664 0.10292,-0.0257 2.11038,-0.28727 2.19314,-0.27355 0.19382,0.0322 0.35007,0.11221 0.54828,0.13692 0.63405,0.079 1.62262,-0.14214 2.19258,0 0.89044,0.22206 0.70086,0.63014 2.46729,0.40989 0.55468,-0.0692 0.65119,-0.33585 1.09656,-0.40989 0.15676,-0.026 6.16653,-0.0343 6.30415,0 1.27915,0.31899 -0.73141,-0.0457 0.54773,0.27327 0.46853,0.11684 3.14084,0 3.83743,0 0.57592,0 1.70921,-0.0805 2.19314,0 0.24517,0.0408 0.31715,0.21562 0.54827,0.27326 0.24517,0.0611 0.54835,0 0.82245,0 0.45681,0 0.92694,0.0553 1.37015,0 0.31958,-0.0398 0.52833,-0.19979 0.82299,-0.27326 0.66133,-0.16493 1.75229,0.11868 2.46615,0 0.45258,-0.0752 0.7664,-0.33717 1.64485,-0.41019 1.47872,-0.12292 3.25321,0.23385 4.65987,0 0.19384,-0.0322 0.344,-0.13664 0.54827,-0.13664 0.28893,0 0.55136,0.0861 0.82187,0.13664 0.46072,0.0862 0.94352,0.15179 1.37073,0.27355 0.22437,0.064 0.30832,0.2254 0.54827,0.27326 0.25451,0.0508 0.54831,0 0.82242,0 h 1.37014 c 0.75999,0 1.17324,-0.0746 1.919,-0.13662 0.72893,-0.0606 1.83256,0.15815 2.46674,0 0.4198,-0.1047 0.21443,-0.24369 0.54827,-0.41019 0.23294,-0.11619 0.52778,-0.1998 0.82245,-0.27326 0.38545,-0.0961 2.12024,0 2.74085,0 0.5825,0 0.98725,-0.009 1.64428,0.13662 0.41748,0.0925 0.73985,0.26785 1.09659,0.41019 0.10084,0.0403 0.14491,0.13664 0.27414,0.13664 0.41722,0 1.15742,-0.19746 1.37072,-0.41019 0.0409,-0.0408 -0.0647,-0.10445 0,-0.13664 1.58547,-0.7908 2.8266,-0.15523 4.65984,-0.54709 1.53011,-0.32708 0.45417,-0.4099 2.19259,-0.4099 0.27411,0 0.59436,-0.0758 0.82242,0 0.215,0.0715 0.31715,0.21562 0.54828,0.27326 0.0922,0.023 1.00395,0.0754 1.096,0.13664 0.0225,0.015 0.44391,0.58933 0.82245,0.68373 0.75833,0.18911 1.52323,-0.31818 1.83458,-0.71688 0.49135,-0.0187 1.00924,-0.0638 1.2801,-0.0187 0.12259,0.0204 0.15857,0.10779 0.27414,0.13663 0.49709,0.12397 1.1472,-0.0127 1.64429,-0.13663 0.23116,-0.0576 0.28985,-0.27326 0.54831,-0.27326 0.2043,0 0.0914,0.22769 0.27413,0.27326 0.41671,0.10394 0.9425,0.0451 1.3707,0.13663 0.23754,0.0508 0.30314,0.23283 0.54831,0.27355 0.43337,0.0721 0.96152,0.1019 1.37014,0 0.11557,-0.0288 0.15155,-0.1165 0.27414,-0.13691 0.43337,-0.0721 0.92752,0.0553 1.37072,0 0.47732,-0.0595 0.94881,-0.14701 1.3707,-0.27327 0.10412,-0.0311 0.0439,-0.3989 0.54772,-0.27326 0.54819,0.13671 0.82251,0.54673 1.3707,0.68344 0.007,0.002 1.33062,0.12994 1.37072,0.13664 0.24825,0.0413 0.56847,0.41018 0.82187,0.41018 1.02136,0 1.70835,-0.49447 2.46728,-0.68373 0.45876,-0.11442 2.78828,0.35692 4.11157,0.13691 0.54822,-0.0911 1.16349,-0.43342 1.64432,-0.27355 0.215,0.0715 0.33324,0.20205 0.54827,0.27355 0.076,0.0253 0.19235,-0.0204 0.27414,0 0.11556,0.0288 0.15857,0.1078 0.27414,0.13664 0.0818,0.0204 0.18931,-0.017 0.27414,0 1.42849,0.28502 0.84629,0.27326 2.19259,0.27326 h 1.09656 c 0.0829,0 0.23408,0.0344 0.26282,0.007 0.77089,0.0194 1.7964,0.10583 2.47805,-0.007 0.15387,-0.0256 0.66599,-0.57607 1.09655,-0.68345 0.56299,-0.14039 1.1692,0.58322 1.37018,0.68345 0.0646,0.0322 0.18328,0 0.27468,0 h 1.37015 c 0.63957,0 1.31226,0.10087 1.919,0 0.21646,-0.036 1.05819,-0.26082 1.37014,-0.13634 0.4036,0.16104 0.65338,0.41418 1.09659,0.54681 0.16797,0.0503 1.96723,-1.10584 2.46729,-1.23055 0.16176,-0.0403 0.63762,0 0.82186,0 2.06093,0 1.92104,0.20582 3.83743,0.68374 0.40861,0.1019 0.91385,0 1.37073,0 0.27407,0 0.56736,0.0508 0.82183,0 0.0296,-0.006 1.03807,-0.45952 1.09659,-0.54711 0.0908,-0.13582 -0.19338,-0.3516 0.27414,-0.40989 0.27581,-0.0344 2.39321,-0.0744 2.74141,0 0.48971,0.10467 0.99346,0.222 1.37015,0.40989 0.0375,0.0187 0.32559,0.36454 0.55057,0.54682 l -0.002,2.9e-4 h 0.003 c 0.14602,0.11821 0.26469,0.16718 0.27017,0.009 0.27867,0.0117 0.55881,0.0286 0.82358,-0.009 0.31674,-0.0451 0.56519,-0.17091 0.82241,-0.27355 0.20182,-0.0805 0.33328,-0.20178 0.54828,-0.27327 0.55893,0.27876 0.83013,0.39567 0.95328,0.43411 0.0489,0.0384 0.0712,0.0588 0.14331,0.11271 0.38466,0.28779 0.85406,0.0336 1.37014,0.13663 0.51801,0.10335 0.83371,0.41047 1.37073,0.41047 h 5.75585 c 0.66993,0 1.77156,0.0867 2.46728,0 0.88184,-0.10996 1.21838,-0.58788 1.91846,-0.82065 0.22806,-0.0758 0.5483,0 0.82241,0 0.7556,0 1.53338,-0.0823 2.19256,0.13691 0.10753,0.0358 0.15858,0.1078 0.27414,0.13664 0.39864,0.0994 2.56614,0.032 3.01501,0 0.28365,-0.0202 1.08203,-0.17757 1.37072,-0.27355 0.10753,-0.0358 0.14495,-0.13664 0.27414,-0.13664 0.25842,0 0.30314,0.23283 0.54828,0.27355 0.17336,0.0288 0.36558,0 0.54831,0 0.18274,0.0456 0.35389,0.10445 0.54769,0.13664 1.09097,0.18138 3.31519,-0.17799 4.38574,0 0.58145,0.0967 1.08148,0.28948 1.64486,0.40989 0.25759,0.055 0.68566,-0.10266 0.82185,-0.13663 0.18276,-0.0456 0.35447,-0.10445 0.5483,-0.13663 0.3986,0.0663 3.31682,0.47194 3.56329,0.41047 0.11556,-0.0288 0.15156,-0.1168 0.27414,-0.13721 0.17335,-0.0288 0.37491,0.0288 0.54828,0 0.12258,-0.0204 0.15857,-0.10779 0.27414,-0.13663 0.53699,-0.13392 2.90776,0.16853 4.38573,0.27384 1.13683,0.081 2.45121,-0.13866 3.56328,0 0.19819,0.0247 0.34795,0.11637 0.54828,0.13634 0.1916,0.0191 0.64374,0.035 1.09601,0.0383 v 2.9e-4 c 0.45222,0.003 0.90492,-0.006 1.09713,-0.0383 0,-3e-5 0.54753,-0.27352 0.54773,-0.27355 0.1426,-0.0178 1.11972,0.0626 1.3707,0 0.11559,-0.0288 0.15857,-0.10779 0.27414,-0.13664 0.10292,-0.0257 2.1104,-0.28726 2.19316,-0.27354 0.19379,0.0322 0.34952,0.11192 0.54771,0.13663 0.63406,0.0791 1.6232,-0.14214 2.19314,0 0.89045,0.22206 0.70029,0.63072 2.46673,0.41047 0.55469,-0.0692 0.65117,-0.33643 1.09656,-0.41047 0.15675,-0.026 6.16655,-0.0343 6.30415,0 1.27917,0.31899 -0.73084,-0.0455 0.54828,0.27355 0.46852,0.11684 3.14085,0 3.83745,0 0.57589,0 1.70864,-0.0805 2.19256,0 0.24517,0.0408 0.31715,0.21591 0.54828,0.27355 0.24517,0.0611 0.54834,0 0.82245,0 0.45681,0 0.92752,0.0553 1.3707,0 0.31961,-0.0398 0.52777,-0.20007 0.82244,-0.27355 0.66132,-0.16492 1.75287,0.11869 2.46671,0 0.4526,-0.0752 0.76583,-0.33716 1.6443,-0.41018 1.4787,-0.12293 3.2532,0.23386 4.65985,0 0.19384,-0.0322 0.344,-0.13664 0.54828,-0.13664 0.28892,0 0.5519,0.086 0.82245,0.13664 0.4607,0.0862 0.94349,0.15179 1.37069,0.27354 0.22438,0.0639 0.30836,0.2257 0.54831,0.27356 0.25451,0.0508 0.54775,0 0.82183,0 h 1.37073 c 0.75995,0 1.17265,-0.0749 1.91842,-0.13692 0.72892,-0.0606 1.8331,0.15816 2.46731,0 0.41979,-0.10468 0.21443,-0.24367 0.54828,-0.41018 0.23294,-0.11619 0.5272,-0.19979 0.82187,-0.27327 0.38544,-0.0961 2.12024,0 2.74084,0 0.5825,0 0.98784,-0.009 1.64487,0.13663 0.41748,0.0925 0.73985,0.26784 1.09657,0.41018 0.10084,0.0403 0.14493,0.13664 0.27415,0.13664 0.41726,0 1.15687,-0.19745 1.37015,-0.41018 0.0409,-0.0408 -0.0647,-0.10445 0,-0.13664 1.5855,-0.79079 2.82659,-0.15494 4.65984,-0.54681 1.5301,-0.32707 0.45475,-0.4099 2.19314,-0.4099 0.27414,0 0.5938,-0.0758 0.82186,0 0.21504,0.0715 0.31715,0.21562 0.54831,0.27326 0.0922,0.023 1.00449,0.0754 1.09656,0.13664 0.0225,0.015 0.44391,0.58904 0.82241,0.68345 0.87073,0.21714 1.75096,-0.48423 1.94224,-0.88465 0.009,-0.0205 0.011,-0.50434 0.0113,-0.94374 h 0.004 c -0.005,-0.006 -10e-4,-0.13285 -0.002,-0.19054 0.001,-0.15727 0.001,-0.39995 0.002,-0.40759 H 508 c 0.002,-0.22133 1.4e-4,-0.42699 -0.0221,-0.43641 -0.46778,-0.19813 -1.7943,0.0245 -2.29001,-0.0579 -0.12258,-0.0204 -0.15857,-0.10779 -0.27414,-0.13663 -0.49709,-0.12396 -1.14776,0.0127 -1.64486,0.13663 -0.23117,0.0576 -0.2893,0.27326 -0.54772,0.27326 -0.20431,0 -0.0914,-0.22769 -0.27415,-0.27326 -0.41667,-0.10394 -0.9425,-0.0451 -1.37069,-0.13663 -0.23754,-0.0508 -0.30314,-0.23278 -0.54831,-0.27355 -0.43338,-0.0721 -0.9615,-0.1019 -1.37015,0 -0.11556,0.0288 -0.15152,0.1165 -0.27414,0.13691 -0.43337,0.0721 -0.9275,-0.0553 -1.37069,0 -0.47734,0.0595 -0.9488,0.14701 -1.37072,0.27327 -0.10413,0.0311 -0.0445,0.3989 -0.54828,0.27326 -0.54822,-0.13671 -0.82196,-0.54673 -1.37015,-0.68344 -0.007,-0.002 -1.33062,-0.12995 -1.37072,-0.13664 -0.24822,-0.0413 -0.56847,-0.41018 -0.82187,-0.41018 -1.02138,0 -1.70835,0.49447 -2.46728,0.68373 -0.45872,0.11441 -2.78828,-0.35692 -4.11157,-0.13691 -0.54821,0.0911 -1.16348,0.43343 -1.6443,0.27355 -0.21501,-0.0715 -0.33325,-0.20205 -0.54828,-0.27355 -0.076,-0.0253 -0.19236,0.0204 -0.27414,0 -0.11557,-0.0288 -0.15858,-0.1078 -0.27415,-0.13664 -0.0817,-0.0204 -0.18931,0.0169 -0.27414,0 -1.42849,-0.28503 -0.84625,-0.27326 -2.19258,-0.27326 h -1.09656 c -0.0829,0 -0.234,-0.0344 -0.26283,-0.007 -0.77088,-0.0194 -1.79639,-0.10582 -2.47804,0.007 -0.15387,0.0256 -0.66599,0.57607 -1.09656,0.68345 -0.56298,0.14039 -1.16978,-0.58321 -1.37072,-0.68345 -0.0646,-0.0322 -0.18273,0 -0.27414,0 h -1.37015 c -0.63956,0 -1.31226,-0.10087 -1.919,0 -0.21646,0.036 -1.05819,0.2611 -1.37014,0.13663 -0.4036,-0.16104 -0.6534,-0.41447 -1.09659,-0.5471 -0.16799,-0.0503 -1.96665,1.10584 -2.4667,1.23055 -0.16177,0.0403 -0.63821,0 -0.82244,0 -2.06094,0 -1.92103,-0.20553 -3.83743,-0.68345 -0.40861,-0.10191 -0.91389,0 -1.37072,0 -0.27409,0 -0.56736,-0.0508 -0.82185,0 -0.0296,0.006 -1.03806,0.45924 -1.09659,0.54682 -0.0908,0.13583 0.19338,0.3516 -0.27413,0.40989 -0.27582,0.0344 -2.39321,0.0744 -2.74142,0 -0.48969,-0.10467 -0.99344,-0.222 -1.37015,-0.40989 -0.0375,-0.0187 -0.32561,-0.36453 -0.55056,-0.54682 h 0.002 c -10e-4,0 -0.002,-2.9e-4 -0.003,-2.9e-4 -0.14605,-0.11822 -0.26469,-0.1669 -0.27017,-0.009 -0.27867,-0.0117 -0.55883,-0.0288 -0.82358,0.009 -0.31674,0.0451 -0.56518,0.17063 -0.82241,0.27327 -0.20179,0.0805 -0.33269,0.20206 -0.54773,0.27355 -0.55892,-0.27877 -0.83013,-0.39568 -0.95327,-0.43411 -0.0489,-0.0384 -0.0711,-0.0588 -0.14329,-0.11271 -0.38468,-0.28779 -0.85464,-0.0336 -1.37072,-0.13663 -0.518,-0.10335 -0.83315,-0.41018 -1.37015,-0.41018 h -5.75642 c -0.66994,0 -1.77099,-0.0867 -2.46673,0 -0.88181,0.10995 -1.21894,0.58731 -1.919,0.82008 -0.22806,0.0758 -0.54831,0 -0.82243,0 -0.75562,0 -1.53338,0.0825 -2.19256,-0.13663 -0.10752,-0.0358 -0.15857,-0.10779 -0.27414,-0.13664 -0.39861,-0.0994 -2.56614,-0.032 -3.01501,0 -0.28365,0.0203 -1.08203,0.17728 -1.37072,0.27327 -0.10753,0.0358 -0.14495,0.13692 -0.27414,0.13692 -0.25842,0 -0.30311,-0.23278 -0.54828,-0.27355 -0.17336,-0.0288 -0.365,0 -0.54773,0 -0.18272,-0.0456 -0.35447,-0.10439 -0.54827,-0.13664 -1.09097,-0.18137 -3.31519,0.17799 -4.38574,0 -0.58145,-0.0967 -1.08148,-0.28976 -1.64486,-0.41018 -0.25758,-0.0551 -0.68566,0.10295 -0.82183,0.13692 -0.18276,0.0456 -0.35447,0.10445 -0.54831,0.13663 -0.39861,-0.0663 -3.31681,-0.47165 -3.56329,-0.41018 -0.11557,0.0288 -0.15213,0.11622 -0.2747,0.13663 -0.17335,0.0288 -0.37436,-0.0288 -0.54772,0 -0.12258,0.0204 -0.15857,0.10808 -0.27414,0.13692 -0.537,0.13392 -2.90776,-0.16825 -4.38574,-0.27355 -1.13683,-0.081 -2.45121,0.13866 -3.56328,0 -0.19818,-0.0247 -0.34795,-0.11666 -0.54828,-0.13663 -0.1916,-0.0191 -0.64378,-0.0351 -1.096,-0.0383 z"
       sodipodi:nodetypes="cscssssssscssssssssssssssssssssssssscsssssscscssssssssssccssssssscssccssssssssssscsssscccccscccssscssscssssccssscscscssscscssscssccsscsscscsssscsssssssscssscsssssscscssssccscsscssssssssscssscsscssscssscccscsscsssscsccsscccssssssccssscccscccccccsscsssccsssscsccssccccssssccsscsscccsscscccccccscscscccscssccssssssssccsscsscssscsssccsscccsscccccsssccssssssccssscccscccccscsccssscssssscsscssscscssssccsscsccsssssscsccssscscccsccsscsssscssccssssssssssscsssscccccsccccsscssscssssccscscscscsssscsscsssscssssscssssscssssssssssssscsssssscscsssscsssssccssssssscssccssssssssssscsssscccccscccssssssscssssccssscsssssssccscssssssscssssssssssssssssssssssssscssssssccccccsssssssssssssccssssssscssccsssssssssssssssscccccscccssssssscssssccssscssssssscc"
       transform="matrix(1,0,0,0.59966132,0.00915547,209.8966)" />
  </g>
</svg>
