<?xml version="1.0" encoding="UTF-8" standalone="no"?>
<!-- Created with Inkscape (http://www.inkscape.org/) -->

<svg
   width="1920"
   height="1080"
   viewBox="0 0 507.99999 285.75001"
   version="1.1"
   id="svg5"
   inkscape:version="1.1.2 (0a00cf5339, 2022-02-04)"
   sodipodi:docname="top_solid_notch.svg"
   xmlns:inkscape="http://www.inkscape.org/namespaces/inkscape"
   xmlns:sodipodi="http://sodipodi.sourceforge.net/DTD/sodipodi-0.dtd"
   xmlns="http://www.w3.org/2000/svg"
   xmlns:svg="http://www.w3.org/2000/svg">
  <sodipodi:namedview
     id="namedview7"
     pagecolor="#ffffff"
     bordercolor="#999999"
     borderopacity="1"
     inkscape:pageshadow="0"
     inkscape:pageopacity="0"
     inkscape:pagecheckerboard="0"
     inkscape:document-units="mm"
     showgrid="false"
     units="px"
     width="1920px"
     inkscape:snap-page="true"
     inkscape:zoom="1.509105"
     inkscape:cx="1021.7977"
     inkscape:cy="207.73903"
     inkscape:window-width="1920"
     inkscape:window-height="1026"
     inkscape:window-x="0"
     inkscape:window-y="0"
     inkscape:window-maximized="1"
     inkscape:current-layer="layer1"
     showguides="true">
    <inkscape:grid
       type="xygrid"
       id="grid1010" />
  </sodipodi:namedview>
  <defs
     id="defs2">
    <clipPath
       clipPathUnits="userSpaceOnUse"
       id="clipPath6148">
      <rect
         style="fill:#e6e6e6;stroke:none;stroke-width:2.11069;stroke-linecap:round;paint-order:markers fill stroke"
         id="rect6150"
         width="508"
         height="168.06055"
         x="-11.989936"
         y="264.11856" />
    </clipPath>
  </defs>
  <g
     inkscape:label="Layer 1"
     inkscape:groupmode="layer"
     id="layer1">
    <path
       id="rect10577"
       style="opacity:1;fill:#0000ff;fill-opacity:1;stroke-width:0.692734;stroke-linecap:round;paint-order:markers fill stroke"
       d="m 213.92904,0 v 3.5798046e-4 h -4.25031 c 0.0736,0 0.14687,0.00171207 0.21945,0.0053697 0.0726,0.00365765 0.14454,0.00923843 0.21621,0.0164671 0.0716,0.0072293 0.14288,0.01613681 0.21337,0.02684854 0.0704,0.01071242 0.14054,0.02312244 0.20976,0.03722997 0.13855,0.02821509 0.27449,0.06325967 0.40774,0.10453029 0.13322,0.0412711 0.26372,0.0888512 0.39093,0.14247622 0.12722,0.0536252 0.25113,0.11335449 0.37159,0.17863225 0.12039,0.0652778 0.23744,0.13605353 0.35045,0.21228242 0.11307,0.0762305 0.22233,0.15766435 0.3272,0.24414266 0.10491,0.0864787 0.20539,0.17782817 0.30142,0.27385507 0.0961,0.096027 0.18737,0.1969039 0.27386,0.3017775 0.0864,0.1048738 0.1679,0.2138171 0.24413,0.3268362 0.0763,0.113019 0.14737,0.2299998 0.21265,0.350463 0.0653,0.1204624 0.12506,0.2443781 0.17863,0.3715836 0.0536,0.1272065 0.10124,0.2576679 0.14254,0.3909147 0.0413,0.1332462 0.0759,0.2695112 0.10424,0.4080977 0.0133,0.069292 0.0266,0.1389211 0.0373,0.2094187 0.01,0.070496 0.02,0.1417436 0.0271,0.2133562 0.007,0.071612 0.0133,0.1439384 0.0166,0.2165784 0.003,0.072639 0.005,0.1455037 0.005,0.2190838 v 2.4074187 c 0,0.07358 0.002,0.1464446 0.005,0.219084 0.003,0.072641 0.008,0.1449659 0.0166,0.2165783 0.007,0.071612 0.0166,0.1428593 0.0271,0.2133562 0.01,0.070496 0.0232,0.1401251 0.0373,0.2094185 0.0281,0.1385865 0.063,0.2748511 0.10424,0.4080978 0.0413,0.1332462 0.0888,0.2637091 0.14254,0.3909148 0.0536,0.1272048 0.1134,0.2511205 0.17863,0.3715835 0.0653,0.1204624 0.13638,0.2374441 0.21265,0.350463 0.0763,0.113019 0.15769,0.2219625 0.24413,0.3268363 0.0864,0.1048728 0.17783,0.2057506 0.27386,0.3017775 0.0961,0.096027 0.19654,0.1873765 0.30142,0.273855 0.10491,0.086479 0.21418,0.1679134 0.32719,0.2441424 0.11307,0.07623 0.23,0.147006 0.35046,0.212283 0.1204,0.06528 0.24439,0.125006 0.37159,0.178632 0.12722,0.05362 0.25766,0.101206 0.39091,0.142476 0.13322,0.04127 0.26916,0.07631 0.40774,0.10453 0.0693,0.0141 0.13921,0.02652 0.20978,0.03723 0.0704,0.01071 0.14171,0.01962 0.21335,0.02685 0.0716,0.0072 0.14354,0.01281 0.21623,0.01647 0.0726,0.0037 0.14587,0.0054 0.21944,0.0054 h 71.64118 c 0.0736,0 0.14687,-0.0017 0.21946,-0.0054 0.0726,-0.0037 0.14454,-0.0092 0.21623,-0.01647 0.0716,-0.0072 0.14287,-0.01614 0.21336,-0.02685 0.0704,-0.01071 0.14037,-0.02312 0.20976,-0.03723 0.13855,-0.02822 0.27449,-0.06326 0.40774,-0.10453 0.13322,-0.04127 0.26371,-0.08885 0.39091,-0.142476 0.12722,-0.05363 0.25113,-0.113356 0.37159,-0.178632 0.12039,-0.06528 0.23744,-0.136054 0.35048,-0.212283 0.11306,-0.07623 0.2223,-0.157664 0.32717,-0.2441424 0.10491,-0.086479 0.20539,-0.1778283 0.30144,-0.273855 0.0961,-0.096027 0.18737,-0.1969039 0.27384,-0.3017775 0.0864,-0.1048745 0.1679,-0.2138172 0.24414,-0.3268363 0.0763,-0.1130189 0.14737,-0.2299999 0.21264,-0.350463 0.0653,-0.1204624 0.12506,-0.2443781 0.17865,-0.3715835 0.0536,-0.1272065 0.10124,-0.257668 0.14254,-0.3909148 0.0413,-0.1332462 0.0759,-0.2695112 0.10424,-0.4080978 0.0133,-0.069292 0.0265,-0.1389212 0.0373,-0.2094185 0.01,-0.070496 0.02,-0.1417437 0.0271,-0.2133562 0.007,-0.071612 0.0117,-0.1439385 0.0167,-0.2165783 0.003,-0.072639 0.005,-0.1455037 0.005,-0.219084 V 4.250302 3.5798046e-4 0 H 289.82039 218.1792 Z M 294.07083,3.5798046e-4 294.0712,4.250302 c 0,-0.07358 0.002,-0.1464429 0.005,-0.2190838 0.003,-0.072641 0.008,-0.1449659 0.0167,-0.2165784 0.007,-0.071612 0.0168,-0.1428594 0.0276,-0.2133562 0.01,-0.070496 0.0228,-0.1401252 0.0368,-0.2094187 0.0281,-0.1385865 0.063,-0.274851 0.10424,-0.4080977 0.0413,-0.1332461 0.0888,-0.2637089 0.14254,-0.3909147 0.0536,-0.1272048 0.1134,-0.2511205 0.17863,-0.3715836 0.0653,-0.1204641 0.13638,-0.2374439 0.21266,-0.350463 0.0763,-0.1130189 0.1577,-0.2219625 0.24414,-0.3268362 0.0864,-0.1048736 0.17781,-0.2057506 0.27384,-0.3017775 0.0961,-0.096027 0.19656,-0.1873765 0.30144,-0.27385505 0.1049,-0.0864783 0.21416,-0.16791382 0.32718,-0.24414267 0.11306,-0.0762288 0.23003,-0.1470049 0.35045,-0.21228241 0.12056,-0.0652778 0.24439,-0.12500724 0.37159,-0.17863226 0.12723,-0.0536252 0.25768,-0.10120533 0.39093,-0.14247621 0.13321,-0.041271 0.26914,-0.0763149 0.40774,-0.1045303 0.0693,-0.01410759 0.13921,-0.02651821 0.20976,-0.03722996 0.0704,-0.01071241 0.14171,-0.01961985 0.21337,-0.02684854 0.0716,-0.0072294 0.14354,-0.01280877 0.21622,-0.0164671 0.0726,-0.00365764 0.14587,-0.005369703 0.21944,-0.005369703 z M 217.32054,0.08591532 c -0.13854,0.02821534 -0.27449,0.06325944 -0.40774,0.10453028 -0.13322,0.0412709 -0.2637,0.0888514 -0.39091,0.14247621 -0.12722,0.053625 -0.25113,0.11335466 -0.37159,0.17863226 -0.12039,0.0652776 -0.23744,0.13605369 -0.35046,0.21228243 -0.11306,0.0762286 -0.22232,0.15802221 -0.32719,0.24450063 -0.10491,0.0864785 -0.20539,0.17782827 -0.30142,0.27385507 -0.0961,0.096027 -0.18738,0.1965459 -0.27386,0.3014195 -0.0864,0.1048737 -0.16792,0.2141751 -0.24413,0.3271942 -0.0763,0.113019 -0.14737,0.2296417 -0.21265,0.350105 -0.0653,0.1204624 -0.12506,0.2447359 -0.17863,0.3719416 -0.0536,0.1272065 -0.10124,0.2573101 -0.14254,0.3905567 -0.0413,0.1332462 -0.0759,0.2695114 -0.10424,0.4080977 0.0281,-0.1385865 0.063,-0.274851 0.10424,-0.4080977 0.0413,-0.1332461 0.0888,-0.2633511 0.14254,-0.3905567 0.0536,-0.1272065 0.1134,-0.2514787 0.17863,-0.3719416 0.0653,-0.1204624 0.13638,-0.2370859 0.21265,-0.350105 0.0763,-0.1130189 0.15769,-0.2223205 0.24413,-0.3271942 0.0864,-0.1048736 0.17783,-0.2053927 0.27386,-0.3014195 0.0961,-0.096027 0.19654,-0.1873765 0.30142,-0.27385507 0.10491,-0.0864785 0.21418,-0.16827191 0.32719,-0.24450063 0.11307,-0.0762288 0.23,-0.1470049 0.35046,-0.21228243 0.1204,-0.0652776 0.24439,-0.12500725 0.37159,-0.17863226 0.12722,-0.0536248 0.25766,-0.10120534 0.39091,-0.14247621 0.13322,-0.0412708 0.26916,-0.0763149 0.40774,-0.10453028 z m 73.35879,0 c 0.13855,0.02821534 0.27449,0.06325944 0.40774,0.10453028 0.13322,0.0412709 0.26371,0.0888514 0.39091,0.14247621 0.12722,0.053625 0.25113,0.11335466 0.37159,0.17863226 0.12039,0.0652776 0.23744,0.13605369 0.35048,0.21228243 0.11306,0.0762286 0.2223,0.15802221 0.32717,0.24450063 0.10491,0.0864785 0.20539,0.17782827 0.30144,0.27385507 0.0961,0.096027 0.18737,0.1965459 0.27384,0.3014195 0.0864,0.1048737 0.1679,0.2141751 0.24414,0.3271942 0.0763,0.113019 0.14737,0.2296417 0.21264,0.350105 0.0653,0.1204624 0.12506,0.2447359 0.17865,0.3719416 0.0536,0.1272065 0.10124,0.2573101 0.14254,0.3905567 0.0413,0.1332462 0.0759,0.2695114 0.10424,0.4080977 -0.0281,-0.1385865 -0.0629,-0.274851 -0.10424,-0.4080977 -0.0413,-0.1332461 -0.0889,-0.2633511 -0.14254,-0.3905567 -0.0536,-0.1272065 -0.1134,-0.2514787 -0.17865,-0.3719416 -0.0653,-0.1204624 -0.13638,-0.2370859 -0.21264,-0.350105 -0.0763,-0.1130189 -0.1577,-0.2223205 -0.24414,-0.3271942 -0.0864,-0.1048736 -0.17782,-0.2053927 -0.27384,-0.3014195 -0.0961,-0.096027 -0.19656,-0.1873765 -0.30144,-0.27385507 -0.1049,-0.0864785 -0.21417,-0.16827191 -0.32717,-0.24450063 -0.11307,-0.0762288 -0.23002,-0.1470049 -0.35048,-0.21228243 -0.12039,-0.0652776 -0.24438,-0.12500725 -0.37159,-0.17863226 -0.12722,-0.0536248 -0.25766,-0.10120534 -0.39091,-0.14247621 -0.13321,-0.0412708 -0.26916,-0.0763149 -0.40774,-0.10453028 z" />
  </g>
</svg>
