<?xml version="1.0" encoding="UTF-8" standalone="no"?>
<!-- Created with Inkscape (http://www.inkscape.org/) -->

<svg
   width="1920"
   height="1080"
   viewBox="0 0 507.99999 285.75001"
   version="1.1"
   id="svg5"
   inkscape:version="1.1.2 (0a00cf5339, 2022-02-04)"
   sodipodi:docname="bottom_buildings.svg"
   inkscape:export-filename="/home/rissu/.local/share/gnome-shell/extensions/WallpaperOverlay@Rishu/resources/shadow.png"
   inkscape:export-xdpi="96"
   inkscape:export-ydpi="96"
   xmlns:inkscape="http://www.inkscape.org/namespaces/inkscape"
   xmlns:sodipodi="http://sodipodi.sourceforge.net/DTD/sodipodi-0.dtd"
   xmlns:xlink="http://www.w3.org/1999/xlink"
   xmlns="http://www.w3.org/2000/svg"
   xmlns:svg="http://www.w3.org/2000/svg">
  <sodipodi:namedview
     id="namedview7"
     pagecolor="#ffffff"
     bordercolor="#999999"
     borderopacity="1"
     inkscape:pageshadow="0"
     inkscape:pageopacity="0"
     inkscape:pagecheckerboard="0"
     inkscape:document-units="mm"
     showgrid="false"
     units="px"
     width="1920px"
     inkscape:snap-page="true"
     inkscape:zoom="0.08838835"
     inkscape:cx="2432.4473"
     inkscape:cy="2602.1529"
     inkscape:window-width="1920"
     inkscape:window-height="1026"
     inkscape:window-x="0"
     inkscape:window-y="0"
     inkscape:window-maximized="1"
     inkscape:current-layer="layer1"
     showguides="true"
     inkscape:snap-intersection-paths="true"
     inkscape:snap-smooth-nodes="true" />
  <defs
     id="defs2">
    <linearGradient
       inkscape:collect="always"
       id="linearGradient2208">
      <stop
         style="stop-color:#0000ff;stop-opacity:1;"
         offset="0"
         id="stop2204" />
      <stop
         style="stop-color:#0000ff;stop-opacity:0;"
         offset="1"
         id="stop2206" />
    </linearGradient>
    <clipPath
       clipPathUnits="userSpaceOnUse"
       id="clipPath3122">
      <path
         id="path3124"
         style="opacity:0.604319;fill:#ffff00;stroke:none;stroke-width:0.301929"
         d="m 241.58367,100.39351 v 6.80408 h 21.67166 v 11.60758 h 6.8034 v -18.41166 h -6.8034 z m 37.5659,0 v 18.41166 h 6.80339 14.58278 6.80407 v -18.41166 h -6.80407 v 11.60828 h -14.58278 v -11.60828 z m 10.8875,0 v 6.80408 h 6.80339 v -6.80408 z m -38.29298,24.08009 v 6.80408 h 48.79165 v 20.80884 h -14.58278 v -15.34926 h -6.80339 v 15.34926 6.80408 h 21.38617 6.80407 v -27.61292 -6.80408 z m 11.51124,12.26366 v 15.34926 h -49.04549 v 6.80408 h 49.04549 6.8034 v -22.15334 z" />
    </clipPath>
    <clipPath
       clipPathUnits="userSpaceOnUse"
       id="clipPath2297">
      <path
         id="path2299"
         style="opacity:1;fill:#0000ff;stroke-width:0.264583"
         d="M 0,0 V 285.75 H 508 V 272.52083 H 142.875 A 129.64582,129.64582 0 0 1 13.229166,142.875 129.64582,129.64582 0 0 1 142.875,13.229166 H 508 V 0 Z" />
    </clipPath>
    <clipPath
       clipPathUnits="userSpaceOnUse"
       id="clipPath44041">
      <path
         id="path44043"
         style="color:#000000;fill:#aa0000;stroke-width:0.790524;-inkscape-stroke:none"
         d="m 1319.6152,507.56445 -96.5761,55.75782 v 101.58398 l -87.9746,50.79102 V 817.2832 l -79.3711,45.82422 -79.37309,-45.82422 V 715.69727 l -96.57617,-55.75782 -87.97461,50.79102 -87.97461,-50.79102 -96.57617,55.75782 V 817.2832 l -79.37109,45.82422 -87.97461,-50.79101 -96.57813,55.75781 V 969.6582 l -79.37304,45.8262 -79.3711,-45.8262 V 868.07422 L 87.974609,812.31641 -8.6015625,868.07422 V 969.6582 l -87.9746095,50.791 v 111.5196 L 0,1187.7266 l 87.974609,-50.7911 87.974611,50.7911 87.97461,-50.7911 87.97461,50.7911 87.97265,-50.7911 87.97461,50.7911 87.97461,-50.7911 87.97461,50.7911 87.97461,-50.7911 87.97461,50.7911 87.97461,-50.7911 87.97465,50.7911 87.9746,-50.7911 87.9746,50.7911 87.9746,-50.7911 87.9726,50.7911 87.9747,-50.7911 87.9746,50.7911 87.9746,-50.7911 87.9746,50.7911 87.9746,-50.7911 87.9746,50.7911 96.5762,-55.7578 v -4.9668 -106.5528 l -87.9746,-50.791 v -91.65039 l 87.9746,-50.79101 v -4.96875 -106.55078 l -87.9746,-50.79102 V 563.32227 l -96.5762,-55.75782 -96.5781,55.75782 v 101.58398 l -79.3711,45.82422 -87.9746,-50.79102 -87.9746,50.79102 -79.3711,-45.82422 V 563.32227 Z m 0,19.86524 79.3731,45.82617 v 91.65039 l -39.6875,22.91211 -39.6856,22.91211 -79.3711,-45.82422 v -91.65039 z m 527.8477,0 79.3711,45.82617 v 91.65039 l -39.6856,22.91211 -39.6855,22.91211 -79.3731,-45.82422 v -91.65039 z m -1143.66798,152.37695 79.37305,45.82617 v 91.64844 l -79.37305,45.82617 -9.40234,-5.42773 -69.96875,-40.39844 v -91.64844 z m 175.94922,0 79.37109,45.82617 v 91.64844 l -79.37109,45.82617 -79.37109,-45.82617 v -91.64844 z m 527.84566,0 79.3731,45.82617 v 91.64844 l -79.3731,45.82617 -9.4023,-5.42773 -69.9687,-40.39844 v -91.64844 z m 175.9493,0 79.373,45.82617 v 91.64844 l -79.373,45.82617 -79.3711,-45.82617 v -91.64844 z m 175.9492,0 9.4023,5.42774 69.9688,40.39843 v 91.64844 l -69.9688,40.39844 -9.4023,5.42773 -79.3731,-45.82617 v -91.64844 z m -1319.61525,152.375 79.37109,45.82617 V 969.6582 L 439.87109,1015.4824 360.5,969.6582 v -91.65039 z m 175.94531,0 h 0.002 l 79.37305,45.82617 v 91.65039 l -22.67188,13.08985 -56.69921,32.73435 -79.37305,-45.8242 v -91.65039 z m 351.90039,0 h 0.002 l 79.36915,45.82617 v 91.65039 l -19.621,11.32813 -59.7501,34.49807 -79.37305,-45.8262 v -91.65039 z m 175.94725,0.002 69.9707,40.39649 9.4024,5.42773 v 91.65039 l -6.5274,3.76758 -72.8457,42.05667 -79.3711,-45.82425 v -91.65044 z m 351.9004,0 79.3711,45.82422 v 91.65039 l -79.3711,45.82425 -79.373,-45.82425 v -91.65044 z" />
    </clipPath>
    <clipPath
       clipPathUnits="userSpaceOnUse"
       id="clipPath44262">
      <rect
         style="opacity:1;fill:#000000;fill-opacity:1;stroke:none;stroke-width:4.552;stroke-miterlimit:4;stroke-dasharray:none"
         id="rect44264"
         width="508"
         height="285.75"
         x="-1.1368684e-13"
         y="-2.8421709e-14" />
    </clipPath>
    <clipPath
       clipPathUnits="userSpaceOnUse"
       id="clipPath44266">
      <rect
         style="opacity:1;fill:#000000;fill-opacity:1;stroke:none;stroke-width:4.552;stroke-miterlimit:4;stroke-dasharray:none"
         id="rect44268"
         width="508"
         height="285.75"
         x="-1.1368684e-13"
         y="-2.8421709e-14" />
    </clipPath>
    <linearGradient
       inkscape:collect="always"
       xlink:href="#linearGradient2208"
       id="linearGradient2210"
       x1="268.86627"
       y1="285.75"
       x2="268.86627"
       y2="259.44452"
       gradientUnits="userSpaceOnUse" />
  </defs>
  <g
     inkscape:label="Layer 1"
     inkscape:groupmode="layer"
     id="layer1">
    <path
       id="rect1147"
       style="opacity:1;fill:#0000ff;stroke-width:6.29669"
       d="M 377.60352 901.76758 C 377.08748 901.75066 376.36711 901.92708 375.19922 902.38672 C 374.54707 902.60283 374.44088 902.81904 374.73047 903.10742 C 375.02004 903.39561 375.01959 903.61201 374.62109 903.90039 C 374.00518 904.333 373.78724 908.51541 374.25781 911.36328 C 374.54752 913.23785 373.93199 915.07506 373.31641 914.17383 C 373.09901 913.84939 373.06306 915.54501 373.24414 918.53711 C 373.38893 921.20474 373.5332 925.67342 373.5332 928.44922 L 373.5332 933.46094 L 372.08594 933.75 C 371.28921 933.89377 370.2742 934.10832 369.83984 934.2168 L 369.00781 934.39844 L 368.93359 945.46484 L 368.82617 956.5332 L 366.29102 957.86523 C 364.87866 958.58618 363.50211 959.45268 363.17578 959.77734 C 362.84981 960.1017 362.41662 960.35352 362.19922 960.35352 C 361.87379 960.35352 361.76367 962.73216 361.76367 969.36523 C 361.76367 974.66443 361.61903 978.37891 361.4375 978.37891 C 361.25645 978.37891 360.82279 978.63004 360.5332 978.95508 C 359.99012 979.45976 359.95313 979.27889 359.95312 977.00781 C 359.95312 974.26837 359.77134 974.09053 357.23633 974.05273 C 354.73767 974.01668 354.52148 973.83586 354.52148 971.3125 C 354.52148 969.11376 354.44835 968.96992 353.54297 968.60938 C 352.99973 968.42905 352.05899 967.67215 351.44336 966.95117 C 350.39315 965.72532 350.13821 965.61787 348.14648 965.58008 L 346.00977 965.58008 L 345.82812 963.77734 C 345.68331 962.19142 345.53981 961.97566 344.7793 961.86719 C 344.3085 961.79511 343.62 961.36346 343.25781 960.9668 C 342.6784 960.24759 342.31552 960.17119 338.80273 960.20898 L 334.96484 960.24805 L 334.96484 954.73242 C 334.96484 949.57737 334.9283 949.14475 334.24023 948.74805 C 333.62487 948.3515 333.51562 947.88158 333.51562 945.64648 C 333.51563 943.1952 333.44423 943.01584 332.61133 942.61914 C 332.10413 942.40288 331.66992 941.89722 331.66992 941.46484 C 331.59732 940.77999 331.59597 940.78007 331.45117 941.53711 C 331.37873 941.96971 329.9665 943.70021 328.37305 945.39453 C 325.91057 947.99027 325.29609 948.46162 324.31836 948.42383 C 323.70273 948.42383 322.57882 948.53178 321.81836 948.67578 L 320.47852 948.89258 L 320.47852 958.01172 L 320.47852 967.13281 L 319.10352 967.31445 C 314.64899 967.96328 314.39637 968.03461 314.21484 968.68359 C 314.03375 969.29626 313.67131 969.36914 310.88281 969.36914 C 307.9493 969.36914 307.73107 969.33317 307.51367 968.57617 C 307.33264 967.81902 307.29669 967.81894 307.04297 968.50391 C 306.82557 969.08055 306.75308 969.00861 306.7168 968.10742 L 306.64453 967.02539 L 306.39062 968.10742 C 306.13711 969.26101 304.40009 970.41142 302.80664 970.44922 C 302.15471 970.44922 302.00977 970.66638 302.00977 971.67578 C 302.00977 973.7306 301.61155 975.10133 301.06836 974.88477 C 300.81482 974.7766 300.08918 975.06424 299.50977 975.46094 C 298.93035 975.89324 298.02673 976.2168 297.51953 976.2168 C 296.61432 976.2168 296.5773 976.14488 296.54102 973.76562 C 296.43245 966.91635 295.99786 958.58916 295.74414 958.30078 C 295.23716 957.79621 282.85223 957.72361 281.69336 958.22852 L 280.64258 958.625 L 280.57031 966.44922 L 280.49805 974.23438 L 280.31641 967.45703 C 280.09909 960.53554 279.99048 960.03389 278.57812 959.99609 C 278.36078 959.99609 278.10776 959.56226 278.03516 959.02148 C 277.9265 958.12041 277.74482 958.01224 276.11523 957.75977 C 275.10119 957.57926 274.01578 957.29199 273.68945 957.11133 C 273.32735 956.89476 271.44295 956.75195 269.45117 956.75195 C 266.73511 956.75195 265.79383 956.89432 265.43164 957.29102 C 265.17815 957.57932 264.59842 957.83203 264.16406 957.83203 C 263.72948 957.83203 262.82457 957.94036 262.20898 958.04883 L 261.08594 958.26562 L 261.08594 964.42969 C 261.08594 967.81822 260.97807 970.4858 260.86914 970.3418 C 260.76035 970.23363 260.5077 967.81854 260.32617 964.9707 C 259.78293 955.9221 259.81805 956.03125 255.61719 956.03125 L 252.75781 956.03125 L 252.7207 955.02148 L 252.68359 954.04688 L 252.43164 954.94922 C 252.21437 955.7786 251.92381 955.88628 249.31641 956.21094 C 246.09381 956.60745 245.98471 956.75182 245.91211 960.06836 C 245.87594 961.79878 245.87636 961.79748 244.42773 962.01367 L 242.97852 962.26758 L 242.97852 973.36914 C 242.97852 979.64168 242.83387 984.54582 242.65234 984.6543 C 242.47125 984.7983 242.07392 984.76277 241.74805 984.6543 C 241.27756 984.47405 241.16797 983.86056 241.16797 981.8418 C 241.16797 980.39983 241.05886 976.7596 240.91406 973.76758 L 240.69727 968.32227 L 239.75586 968.21484 C 238.85056 968.10667 238.81434 967.99929 238.63281 965.58398 L 238.48828 963.06055 L 238.27148 965.58398 C 238.09043 967.99899 238.05395 968.10637 237.07617 968.21484 C 236.17096 968.32301 236.09766 968.43056 236.09766 970.05273 L 236.09766 971.74805 L 233.45508 971.82031 C 232.04272 971.82031 230.33922 971.99903 229.75977 972.17969 L 228.67383 972.46875 L 228.56445 976.86719 C 228.49201 980.9405 228.41943 981.26562 227.76758 981.26562 C 226.75358 981.26562 226.35528 980.21913 226.10156 977.04688 C 225.84807 973.76666 225.70304 973.08231 225.23242 973.55078 C 225.05085 973.73095 225.05085 974.55971 225.23242 975.46094 C 225.44928 976.68656 225.37897 977.26328 224.98047 977.91211 C 224.65456 978.38077 224.50826 979.06619 224.61719 979.46289 C 224.87068 980.47229 224.25569 980.79554 220.85156 981.48047 C 216.43344 982.34522 213.31896 982.52691 213.10156 981.91406 C 212.99273 981.6617 212.77565 979.4268 212.63086 976.93945 L 212.37695 972.46875 L 211 972.07227 C 209.94979 971.78381 209.47985 971.38691 208.90039 970.19727 C 208.28476 968.9716 207.88602 968.6123 206.9082 968.43164 L 205.67773 968.21484 L 205.67773 962.48242 L 205.67773 956.78711 L 203.54102 956.35352 C 201.98383 956.06514 201.29669 955.74086 201.04297 955.16406 L 200.64453 954.4082 L 200.64453 955.20117 C 200.60836 955.92215 200.39066 955.95847 195.57422 956.21094 L 190.57617 956.46289 L 190.32227 958.66211 C 190.21379 959.85172 190.10547 964.71705 190.10547 969.43945 L 190.10547 978.05664 L 188.54688 977.94727 L 187.02734 977.83984 L 186.80859 975.74805 C 186.6638 974.5945 186.51987 973.62102 186.44727 973.54883 C 185.86776 973.11656 182.57195 972.71943 181.84766 973.00781 C 181.3769 973.18885 180.18281 973.33398 179.20508 973.33398 L 177.42969 973.33398 L 177.42969 975.67773 L 177.42969 978.01953 L 175.76367 978.01953 C 174.78562 978.01953 174.20677 978.16429 174.35156 978.38086 C 174.46004 978.59743 174.24225 978.74023 173.84375 978.74023 C 173.44543 978.74023 172.54163 979.02848 171.85352 979.35352 L 170.54883 980.00195 L 170.54883 983.42773 C 170.54883 985.87902 170.43998 986.67261 170.15039 986.24023 C 169.9693 985.87993 169.24471 985.519 168.55664 985.375 C 167.47025 985.19479 166.85502 984.5808 166.74609 983.60742 C 166.74609 983.39138 166.63698 983.06738 166.49219 982.88672 C 166.38358 982.67038 165.9849 981.15714 165.69531 979.46289 C 165.18811 976.83143 164.75391 975.4242 164.75391 976.43359 C 164.75391 976.83014 163.74005 982.92348 163.48633 984.04102 C 163.3415 984.68947 163.05288 984.86914 162.11133 984.86914 C 161.4957 984.86914 160.62586 985.12178 160.26367 985.41016 C 159.86536 985.69838 159.32208 985.95117 159.06836 985.95117 C 158.4886 985.95117 158.41673 984.11187 158.99609 983.53516 C 159.28603 983.24674 159.17813 983.03131 158.5625 982.70703 C 158.0917 982.45463 157.43994 981.95041 157.15039 981.58984 C 156.71585 981.04922 155.91902 980.86816 153.27539 980.6875 C 150.05276 980.43514 149.94201 980.39928 149.72461 979.49805 C 149.54351 978.66931 149.3262 978.52608 147.98633 978.48828 C 147.15338 978.48828 145.63407 978.27321 144.65625 978.05664 C 140.96246 977.19117 140.92509 977.19026 139.94727 977.94727 C 139.40412 978.37987 138.13615 978.8134 137.08594 978.92188 C 135.27526 979.17418 135.13146 979.24667 134.91406 980.32812 C 134.51575 982.13051 134.00958 980.75913 133.75586 977.1543 C 133.57477 974.91924 133.35757 974.05469 133.03125 974.05469 C 132.74154 974.05469 132.16092 973.47789 131.72656 972.79297 C 131.18337 971.96363 130.6037 971.53125 130.06055 971.53125 C 129.48122 971.53125 129.26367 971.3141 129.26367 970.70117 C 129.26367 969.65602 128.72205 968.86397 128.21484 969.15234 C 127.99788 969.29653 127.81641 969.79982 127.81641 970.30469 C 127.81641 970.9892 127.63546 971.16992 126.875 971.16992 C 125.67995 971.16992 124.55664 971.78367 124.55664 972.39648 C 124.55664 972.72115 124.30406 972.82918 123.79688 972.7207 C 123.32612 972.57651 122.81828 972.79201 122.34766 973.29688 C 121.94929 973.69329 121.33405 974.05469 120.93555 974.05469 C 120.28363 974.05469 120.24771 973.80193 120.32031 970.52148 C 120.35618 968.6109 120.24794 964.10597 120.06641 960.53711 C 119.74052 954.37274 119.70464 953.9748 118.58203 951.52344 C 117.27829 948.6756 116.58984 945.35893 116.58984 941.82617 C 116.58984 938.22122 115.97318 939.26837 115.68359 943.41406 C 115.53858 945.39673 115.32057 947.08992 115.17578 947.16211 C 115.06713 947.23449 113.80103 947.41459 112.38867 947.55859 L 109.81641 947.81055 L 109.3457 944.16992 C 109.05581 942.15113 108.76784 940.4218 108.62305 940.34961 C 108.47875 940.27746 108.26127 942.07868 108.15234 944.42188 C 107.97129 948.38722 107.86247 948.85755 106.48633 951.84961 L 105.00195 955.02148 L 104.96484 965.33203 C 104.92867 973.91167 104.56622 982.09307 104.3125 979.28125 C 104.27574 978.66821 104.20365 978.66918 103.91406 979.10156 C 103.73297 979.38986 103.29969 979.64258 102.9375 979.64258 C 102.57544 979.67829 102.32114 979.85765 102.35742 980.07422 C 102.46608 980.6512 99.316041 980.39894 98.591797 979.75 C 98.229654 979.46158 97.286959 979.02982 96.490234 978.77734 C 95.693552 978.52502 94.824032 978.23625 94.570312 978.16406 C 94.353358 978.05635 94.136719 978.1999 94.136719 978.48828 C 94.136719 978.8126 93.846114 979.10164 93.484375 979.17383 C 91.709872 979.57038 90.876953 978.45259 90.876953 975.71289 C 90.876953 973.11734 90.478496 971.85629 89.609375 971.53125 C 88.993516 971.31502 88.742078 970.8098 88.560547 969.65625 C 88.343277 968.1421 88.269812 968.07084 87.255859 968.21484 C 86.640273 968.28703 85.916541 968.17825 85.626953 967.92578 C 85.26481 967.63778 84.721101 967.60254 84.105469 967.7832 C 83.526056 967.92758 80.086458 968.07039 76.392578 968.14258 C 69.04117 968.21469 67.701172 968.46718 67.701172 969.87305 C 67.701172 970.55775 67.482275 970.77434 66.685547 970.88281 C 65.743908 970.99098 65.708535 971.09956 65.599609 973.1543 C 65.490997 976.3627 65.310452 976.83129 64.042969 977.26367 C 63.137583 977.58746 62.703618 977.51422 61.617188 976.9375 C 60.820248 976.54148 60.530386 976.25459 60.892578 976.2168 C 61.689575 976.2168 61.762462 975.49609 61.001953 975.49609 C 60.712339 975.49609 60.385105 975.13644 60.3125 974.66797 C 60.203585 974.23536 60.022988 973.3698 59.914062 972.79297 C 59.370757 970.3777 59.297964 968.93441 59.660156 968.57422 C 59.914292 968.32182 59.94982 967.96167 59.732422 967.5293 C 59.478702 967.13279 59.515023 966.55715 59.732422 965.9082 C 60.022009 965.22328 59.986481 964.82496 59.660156 964.39258 C 59.044244 963.6716 58.755634 943.62985 59.298828 941.07031 C 59.805848 938.65508 59.406426 937.78951 57.595703 937.46484 C 56.798979 937.35667 56.075723 936.99661 55.966797 936.74414 C 55.894358 936.49186 55.351833 936.20305 54.808594 936.13086 C 54.012141 936.05875 53.721305 935.77037 53.503906 934.86914 C 53.322856 934.22023 52.888736 933.53493 52.490234 933.31836 C 52.12791 933.13808 51.765964 932.59839 51.693359 932.16602 C 51.620921 931.62543 51.296264 931.3007 50.789062 931.22852 C 50.101077 931.12035 49.991738 930.83177 49.882812 929.42578 C 49.774157 927.91216 49.702084 927.73047 48.869141 927.73047 C 48.325996 927.73047 47.962891 927.51607 47.962891 927.19141 C 47.962891 926.8672 48.289146 926.64775 48.759766 926.68555 C 49.30308 926.68555 49.59375 926.50605 49.59375 926.10938 C 49.59375 925.677 49.303947 925.56731 48.326172 925.67578 C 47.348276 925.78414 47.058594 925.71258 47.058594 925.24414 C 47.058594 924.70382 47.347781 924.59563 49.013672 924.52344 C 50.244709 924.45136 50.135652 923.58594 48.904297 923.58594 C 48.143928 923.58594 47.783203 923.40549 47.783203 923.04492 C 47.783203 922.75651 48.036584 922.46875 48.326172 922.46875 C 48.615876 922.43247 49.085336 922.39715 49.302734 922.35938 C 50.027383 922.28734 50.100225 920.19793 49.412109 919.62109 C 48.977528 919.25902 48.543422 919.22146 47.457031 919.58203 C 46.696481 919.79807 45.972207 919.97852 45.863281 919.97852 C 45.755251 919.97852 45.574479 918.64479 45.429688 917.05859 C 45.103809 913.5617 44.523437 913.88637 44.523438 917.52734 C 44.523438 919.47376 44.414823 919.97852 43.980469 919.97852 C 43.690949 919.97852 43.4375 920.23115 43.4375 920.51953 C 43.4375 920.80783 43.690881 921.06055 43.980469 921.06055 C 44.777167 921.06055 44.631776 922.17796 43.798828 922.39453 C 43.400908 922.50247 43.074219 922.71928 43.074219 922.86328 C 43.074219 923.00739 43.40033 923.22356 43.798828 923.33203 C 44.704422 923.54837 44.776476 924.66602 43.871094 924.66602 C 43.508951 924.66602 42.92984 925.13418 42.603516 925.71094 C 41.987838 926.72018 41.987838 926.79253 42.603516 927.11719 C 43.110501 927.44158 43.14859 927.62081 42.822266 928.3418 C 42.605132 928.7744 42.315957 929.60447 42.207031 930.10938 C 42.025935 930.93851 41.698749 931.1531 40.177734 931.51367 L 38.367188 931.94727 L 38.367188 933.71289 C 38.367188 935.26299 38.258509 935.55147 37.498047 935.83984 C 37.027291 936.02009 36.447875 936.45193 36.230469 936.8125 C 35.904498 937.42705 35.10764 937.46281 23.265625 937.39062 C 10.482053 937.31857 4.0734741 936.88562 1.828125 935.98438 C 0.81417536 935.55162 0.52324561 935.55154 0.26953125 935.91211 C 0.13452743 936.14738 0.01756514 975.44199 0 1020.4512 L 0 1030 L 0 1080 L 463.52344 1080 L 1105.0801 1080 L 1920 1080 L 1920 1030 L 1920 967.46484 L 1918.5957 967.46484 C 1917.5764 967.46484 1914.2645 967.78251 1911.1426 968.09961 C 1908.0206 968.47941 1905.4086 968.66996 1905.2812 968.54297 C 1905.154 968.47955 1908.5293 966.57721 1912.7344 964.35742 C 1916.8757 962.20101 1920.1893 960.10774 1919.998 959.79102 C 1919.7432 959.47384 1915.2836 961.50335 1909.9316 964.23047 L 1900.248 969.30469 L 1890.3711 970.57227 C 1881.7699 971.71391 1861.4458 975.32948 1835.7695 980.33984 L 1827.9961 981.86133 L 1827.8066 980.5293 C 1827.6155 979.32423 1827.1051 979.19792 1822.1992 979.00781 C 1817.2296 978.81755 1816.2102 979.00688 1809.584 981.35352 C 1804.8693 983.06594 1801.2368 983.95508 1799.2617 983.95508 L 1796.2051 983.95508 L 1795.7578 986.49219 C 1795.4393 988.39492 1794.994 989.0921 1793.9746 989.3457 C 1779.2569 992.58026 1773.395 994.10288 1764.8574 996.83008 L 1754.6641 1000.127 L 1754.6641 996.83008 L 1754.6641 993.46875 L 1752.1152 993.46875 C 1750.2675 993.46875 1749.5664 993.2152 1749.5664 992.51758 C 1749.5664 991.75634 1748.7386 991.56641 1745.7441 991.56641 C 1742.7496 991.56641 1741.9219 991.75653 1741.9219 992.51758 C 1741.9219 993.21528 1741.1568 993.46875 1738.6719 993.46875 C 1735.0403 993.46875 1728.924 990.93038 1720.7051 986.04688 C 1716.8823 983.70017 1715.7988 982.74899 1715.7988 981.60742 C 1715.7988 980.52908 1715.4167 980.14844 1714.4609 980.14844 C 1713.3778 980.14844 1713.1857 979.83198 1713.377 978.62695 C 1713.6318 977.29482 1713.4408 977.04167 1712.0391 976.85156 C 1710.5097 976.6613 1710.3831 976.40713 1710.0645 972.85547 L 1709.7461 969.05078 L 1707.3242 969.05078 L 1704.9668 969.05078 L 1704.9668 973.36328 C 1704.9668 977.10532 1704.8398 977.61332 1703.8203 977.48633 C 1703.1195 977.35949 1702.6742 977.7401 1702.5469 978.69141 C 1702.3557 979.96004 1701.9731 980.14844 1699.4883 980.14844 L 1696.6855 980.14844 L 1696.6855 974.1875 L 1696.6855 968.16211 L 1698.7227 967.97266 L 1700.8262 967.7832 L 1698.1504 964.92773 L 1695.4746 962.07422 L 1695.4102 971.08008 L 1695.4102 980.15039 L 1691.5879 980.15039 L 1687.7656 980.15039 L 1687.7656 977.92969 C 1687.7656 975.96346 1687.5735 975.71094 1686.1719 975.71094 C 1684.7064 975.71094 1684.5801 975.51998 1684.5801 972.53906 L 1684.5801 969.36719 L 1682.0312 969.36719 L 1679.4824 969.36719 L 1679.4824 972.85547 C 1679.4824 975.51928 1679.2919 976.34375 1678.5273 976.34375 C 1677.8903 976.34375 1677.5703 976.97761 1677.5703 978.24609 L 1677.5703 980.15039 L 1671.5176 980.15039 L 1665.4648 980.15039 L 1665.4648 973.55273 C 1665.4648 968.47898 1665.2751 966.89423 1664.5742 966.64062 C 1664.0645 966.45038 1662.0884 963.40533 1660.1133 959.98047 C 1657.2462 954.84322 1656.5449 953.06726 1656.5449 950.7207 C 1656.5449 947.93024 1656.4824 947.80469 1654.6348 947.80469 C 1652.7872 947.80469 1652.7227 947.86774 1652.7227 950.78516 C 1652.7227 952.68788 1652.2762 954.52728 1651.5117 955.60547 L 1650.3652 957.38086 L 1649.9844 952.49805 C 1649.7295 949.83431 1649.5371 946.34439 1649.5371 944.82227 C 1649.5371 942.79277 1649.2829 942.0957 1648.582 942.0957 C 1648.0721 942.0957 1647.625 941.65163 1647.625 941.14453 L 1647.625 941.14258 C 1647.625 939.30331 1644.5016 940.06563 1641.9531 942.53906 C 1639.6594 944.75885 1639.4696 945.32974 1639.0234 949.51562 C 1638.7686 952.05252 1638.3225 954.14453 1638.0039 954.14453 C 1637.6852 954.14453 1637.4297 962.70706 1637.4297 974.12305 L 1637.4297 994.10156 L 1635.582 994.10156 C 1634.1166 994.10156 1633.6717 993.78422 1633.4805 992.64258 C 1633.2894 991.43751 1632.8429 991.24675 1629.5938 991.05664 L 1625.9629 990.86719 L 1625.9629 988.07617 L 1625.9629 985.22266 L 1623.4121 985.22266 C 1622.0104 985.22266 1620.8633 984.90499 1620.8633 984.58789 C 1620.8633 984.20729 1619.398 983.95312 1617.6777 983.95312 C 1615.8938 983.95312 1614.4922 984.20748 1614.4922 984.58789 C 1614.4922 984.90537 1613.345 985.22266 1611.9434 985.22266 L 1609.3965 985.22266 L 1609.3965 993.15039 L 1609.3965 1001.0781 L 1606.209 1001.0781 L 1603.0234 1001.0781 L 1603.0234 995.05273 C 1603.0234 989.47166 1602.9605 989.02734 1601.75 989.02734 C 1600.667 989.02734 1600.4766 988.58259 1600.4766 985.85547 L 1600.4766 982.68555 L 1595.0605 982.68555 C 1590.6644 982.68555 1589.6445 982.49544 1589.6445 981.73438 C 1589.6445 980.97318 1588.5614 980.7832 1583.5918 980.7832 L 1577.5391 980.7832 L 1577.5391 983.00195 C 1577.5391 984.52412 1577.2211 985.22266 1576.584 985.22266 C 1575.8192 985.22266 1575.627 984.27022 1575.627 980.46484 L 1575.627 975.70898 L 1571.8047 975.70898 L 1567.9824 975.70898 L 1567.9824 973.17188 C 1567.9824 970.82502 1567.855 970.63477 1566.1348 970.63477 C 1565.1153 970.63477 1563.9672 970.19073 1563.5215 969.68359 C 1562.2472 968.16135 1556.3854 968.41441 1554.9199 970 C 1554.2829 970.69763 1553.2653 971.26953 1552.5645 971.26953 C 1551.4815 971.26953 1551.416 972.09257 1551.416 984.52344 C 1551.416 997.20795 1551.3532 997.78055 1550.1426 998.09766 C 1549.2505 998.28792 1548.8691 998.98428 1548.8691 1000.0625 C 1548.8691 1001.5845 1548.6774 1001.7109 1546.1289 1001.7109 L 1543.4531 1001.7109 L 1543.6445 996.63867 C 1543.8357 992.45269 1543.7072 991.5007 1542.8789 991.18359 C 1541.9868 990.86649 1541.8594 988.58394 1541.8594 972.47461 L 1541.8594 954.14453 L 1540.2676 954.14453 C 1538.8021 954.14453 1538.6738 953.8906 1538.6738 951.60742 L 1538.6738 949.07031 L 1535.4883 949.07031 L 1532.3672 949.07031 L 1531.9199 945.90039 L 1531.5391 942.79297 L 1527.9062 942.03125 C 1524.5934 941.33328 1515.1009 941.65007 1513.6992 942.47461 C 1513.4445 942.66491 1513.1895 944.18708 1513.1895 945.96289 L 1513.1895 949.07031 L 1509.6855 949.07031 L 1506.1816 949.07031 L 1506.1816 951.92383 C 1506.1816 954.52426 1506.0533 954.7793 1504.5879 954.7793 L 1502.9961 954.7793 L 1502.9961 978.5625 L 1502.9961 1002.3457 L 1491.209 1002.3457 L 1479.4219 1002.3457 L 1479.4219 998.98438 C 1479.4219 995.94012 1479.1665 995.36952 1477.1914 993.4668 C 1475.9172 992.26181 1474.9609 990.6761 1474.9609 989.85156 C 1474.9609 988.70992 1474.5796 988.39258 1473.3691 988.39258 C 1472.1584 988.39258 1471.7754 988.70992 1471.7754 989.85156 C 1471.7754 990.73949 1470.6284 992.38913 1468.9082 994.10156 C 1466.4232 996.57507 1466.043 997.20909 1466.043 999.61914 C 1466.043 1001.6487 1465.7868 1002.3457 1465.0859 1002.3457 C 1464.3215 1002.3457 1464.1309 1003.1703 1464.1309 1005.834 C 1464.1309 1008.4978 1463.9403 1009.3223 1463.1758 1009.3223 C 1462.4748 1009.3223 1462.2187 1010.084 1462.2188 1012.4941 L 1462.2188 1015.6641 L 1456.8027 1015.6641 L 1451.3887 1015.6641 L 1451.3887 999.93555 L 1451.3887 984.14258 L 1449.4121 984.46094 C 1447.883 984.71458 1447.4374 984.461 1447.1191 983.38281 C 1446.8642 982.43135 1446.2911 982.05078 1444.9531 982.05078 C 1443.8063 982.05078 1442.786 981.54233 1442.3398 980.78125 C 1441.7027 979.82987 1440.8113 979.51367 1438.5176 979.51367 C 1435.8416 979.51367 1435.459 979.32233 1435.459 978.24414 C 1435.459 976.97554 1435.1421 976.97652 1423.1641 977.10352 C 1411.9506 977.29378 1410.9298 977.35637 1411.1211 978.37109 C 1411.3123 979.38571 1410.6762 979.51367 1405.834 979.51367 L 1400.418 979.51367 L 1400.418 975.89844 C 1400.418 972.72734 1400.1628 971.96619 1397.8691 968.92188 L 1395.2578 965.56055 L 1389.2051 965.56055 C 1383.662 965.56055 1383.0881 965.68654 1382.7695 966.82812 C 1382.5147 967.77985 1381.8768 968.09766 1380.3477 968.09766 C 1378.5 968.09766 1378.3083 968.28834 1378.627 969.68359 C 1378.8181 970.76178 1378.5642 971.39483 1377.8633 971.64844 C 1377.2896 971.8387 1376.8438 972.41034 1376.8438 972.91797 C 1376.8438 973.42545 1376.3981 973.80469 1375.8887 973.80469 C 1375.3786 973.80469 1374.9316 974.37659 1374.9316 975.07422 C 1374.9316 976.0256 1374.4867 976.3418 1373.3398 976.3418 C 1372.0652 976.3418 1371.7461 976.65925 1371.7461 977.92773 C 1371.7461 979.06961 1371.4283 979.51367 1370.4727 979.51367 C 1369.517 979.51367 1369.1973 979.95704 1369.1973 981.16211 C 1369.1973 982.81108 1367.9234 984.58789 1366.7129 984.58789 C 1366.2029 984.58789 1366.0117 988.58327 1366.0117 996.95508 L 1366.0117 1009.3223 L 1363.9102 1009.3223 L 1361.7441 1009.3223 L 1361.3613 1003.1074 C 1361.1061 999.74603 1360.916 995.11532 1360.916 992.83203 C 1360.916 986.10931 1360.3428 983.88865 1358.75 984.01562 C 1357.9854 984.07874 1356.9645 983.95378 1356.4551 983.76367 C 1355.9454 983.57315 1354.5433 983.25456 1353.3965 983.06445 L 1351.3594 982.68555 L 1351.3594 988.64648 C 1351.3594 992.83239 1351.6136 994.67217 1352.123 994.92578 C 1352.7601 995.11608 1352.8871 997.27255 1352.7598 1003.2344 L 1352.5703 1011.2246 L 1350.9766 1010.9082 C 1350.1483 1010.7176 1348.7474 1010.4635 1347.8555 1010.2734 C 1346.9635 1010.0832 1346.2617 1009.512 1346.2617 1009.0684 C 1346.2617 1008.561 1345.7516 1008.0534 1345.0508 1007.8633 C 1344.0951 1007.6096 1343.8412 1006.6577 1343.459 1001.457 C 1343.1407 997.52487 1343.2043 994.98757 1343.6504 994.48047 C 1344.0325 994.03653 1344.159 991.18292 1343.9043 986.93359 C 1343.522 980.46444 1343.459 980.14844 1342.1211 980.14844 C 1340.7828 980.14844 1340.6556 980.5276 1340.2734 986.55273 C 1339.9552 990.80206 1340.0187 993.21261 1340.4648 993.65625 C 1340.9109 994.10027 1341.1641 997.33458 1341.1641 1001.584 L 1341.1641 1008.752 L 1338.7441 1008.5605 L 1336.3867 1008.3711 L 1336.3867 993.7832 L 1336.3867 979.19727 L 1334.4121 979.00586 C 1332.5642 978.81556 1332.3733 979.00681 1332.0547 981.22656 C 1331.4176 985.0319 1331.5433 992.19922 1332.2441 992.19922 C 1332.6266 992.19922 1332.8828 995.30602 1332.8828 1000.3164 L 1332.8828 1008.498 L 1329.1875 1008.2441 C 1324.2816 1007.8636 1324.0896 1007.7991 1324.4082 1005.8965 C 1324.6631 1004.6912 1324.4716 1004.248 1323.707 1004.248 C 1323.1333 1004.248 1322.6875 1004.7565 1322.6875 1005.5176 C 1322.6875 1006.596 1322.2428 1006.7852 1319.4395 1006.7852 C 1316.7635 1006.7852 1316.1258 1006.5958 1315.8711 1005.5176 C 1315.4888 1004.0593 1314.4063 1003.8039 1314.4062 1005.1992 C 1314.4062 1006.3407 1311.5376 1006.4679 1307.7148 1005.4531 C 1306.3132 1005.0724 1304.084 1004.8197 1302.7461 1004.8828 L 1300.3887 1004.9473 L 1300.3887 1000.4434 L 1300.3887 996.00391 L 1297.5215 996.00391 L 1294.6543 996.00391 L 1294.6543 999.17578 C 1294.6543 1002.0302 1294.5274 1002.3457 1293.1895 1002.3457 C 1289.4941 1002.3457 1288.9199 1001.7752 1288.9199 998.16016 L 1288.9199 994.73633 L 1286.0527 994.73633 C 1283.1856 994.73633 1283.1855 994.73529 1283.1855 996.95508 L 1283.1855 999.11133 L 1274.0742 999.30273 L 1265.0273 999.49219 L 1264.8359 1001.2051 C 1264.6448 1002.7908 1264.3913 1002.9805 1262.0977 1002.9805 C 1259.6128 1002.9805 1259.6113 1002.9803 1259.6113 1000.4434 L 1259.6113 997.90625 L 1256.4902 997.90625 C 1253.4955 997.90625 1253.3685 997.96944 1252.9863 999.93555 L 1252.6035 1001.9648 L 1250.7559 1000.127 L 1248.8457 998.22266 L 1248.2715 985.85547 L 1247.6973 973.48828 L 1247.5703 985.53906 C 1247.5067 994.41827 1247.2523 997.90685 1246.6152 998.66797 C 1245.2769 1000.4437 1244.959 1000.0635 1244.959 996.63867 L 1244.959 993.4668 L 1241.7734 993.4668 L 1238.5879 993.4668 L 1238.5879 998.54102 C 1238.5879 1001.5219 1238.8425 1003.6152 1239.2246 1003.6152 C 1239.5431 1003.6152 1239.8613 1004.4394 1239.8613 1005.5176 C 1239.8613 1007.2933 1239.7336 1007.4199 1237.3125 1007.4199 L 1234.7637 1007.4199 L 1234.7637 1010.9082 C 1234.7637 1013.5086 1234.5101 1014.3965 1233.873 1014.3965 C 1233.3633 1014.3965 1232.5354 1014.5237 1232.0254 1014.7773 C 1231.3245 1015.031 1231.0061 1014.0147 1230.6875 1009.5117 C 1230.3688 1005.7698 1230.4313 1003.8692 1230.877 1003.7422 C 1231.3231 1003.6153 1231.5781 1001.5208 1231.5781 998.47656 L 1231.5781 993.4668 L 1229.0293 993.4668 L 1226.4824 993.4668 L 1226.4824 998.54102 C 1226.4824 1002.7904 1226.6737 1003.6152 1227.502 1003.6152 C 1228.2665 1003.6152 1228.4573 1003.9951 1228.1387 1005.0098 C 1227.9477 1005.8343 1227.7559 1008.244 1227.7559 1010.4004 L 1227.7559 1014.3965 L 1221.3848 1014.3965 L 1214.9492 1014.3965 L 1215.0137 1000.7598 L 1215.0762 987.125 L 1216.9883 987.125 L 1218.8359 987.125 L 1218.8359 979.51367 L 1218.8359 971.90234 L 1215.0762 971.90234 L 1211.3184 971.90234 L 1211.0625 979.00586 C 1210.9351 984.14311 1211.0633 986.36296 1211.6367 986.80664 C 1212.2739 987.314 1212.2744 989.66059 1211.5098 998.22266 C 1211.0001 1004.1209 1210.3627 1010.2112 1210.1719 1011.6699 L 1209.8535 1014.3965 L 1205.3926 1014.3965 L 1200.9961 1014.3965 L 1200.9961 1000.7598 L 1200.9961 987.06055 L 1202.9082 986.67969 L 1204.8203 986.30078 L 1204.8203 979.76758 L 1204.8203 972.66406 C 1204.8203 972.41023 1203.291 972.15629 1201.4434 972.0293 L 1198.002 971.83984 L 1197.6211 975.20117 C 1197.0479 979.89444 1197.0465 986.99835 1197.6836 987.25195 C 1197.9388 987.31541 1197.8119 993.15037 1197.4297 1000.127 C 1196.9836 1007.1035 1196.6016 1013.3179 1196.6016 1013.8887 C 1196.5378 1014.9033 1195.8368 1015.0313 1190.8672 1015.0312 C 1185.5153 1015.0312 1185.0699 1015.0941 1183.8594 1016.6797 C 1182.5853 1018.2652 1182.5843 1018.3295 1183.7949 1019.9785 C 1186.0886 1023.2765 1186.026 1024.2273 1183.2227 1025.1152 C 1181.1201 1025.6862 1180.2273 1025.6849 1178.4434 1024.9238 C 1176.0222 1023.9091 1175.6409 1022.8955 1175.3223 1015.9824 C 1175.1949 1012.5576 1175.0665 1012.1764 1173.7285 1011.9863 C 1172.7091 1011.7961 1172.1356 1011.2254 1171.8809 1009.8301 C 1171.4986 1007.9909 1171.3711 1007.9281 1169.0137 1008.3086 C 1163.6618 1009.1966 1159.0107 1009.4488 1157.418 1009.0684 C 1155.7614 1008.6878 1155.7617 1008.5624 1155.7617 1002.791 C 1155.7617 999.55646 1156.0157 996.63704 1156.334 996.32031 C 1156.6525 995.93979 1157.0353 993.34044 1157.2266 990.48633 L 1157.5449 985.34961 L 1155.1875 985.0332 C 1153.9133 984.90621 1152.8311 984.84313 1152.7676 984.90625 C 1152.6402 984.90625 1152.3216 989.21837 1151.9395 994.48242 C 1151.0475 1006.406 1150.9826 1006.7871 1149.3262 1006.7871 C 1147.9883 1006.7871 1147.9894 1006.532 1148.2441 1001.6484 C 1148.4353 998.47738 1148.8812 996.32063 1149.3906 996.00391 C 1149.8366 995.75019 1150.4099 993.40482 1150.7285 990.55078 C 1151.4931 983.19401 1151.5563 983.50998 1149.0078 982.68555 C 1147.7973 982.24149 1146.6508 982.05074 1146.5234 982.17773 C 1146.4597 982.24119 1145.9496 987.63341 1145.5039 994.03906 C 1144.6757 1005.2014 1144.6127 1005.644 1143.2109 1006.2148 C 1142.255 1006.5319 1141.7441 1007.2928 1141.7441 1008.2441 C 1141.7441 1011.4787 1134.3546 1013.0018 1130.9141 1010.4648 C 1129.0664 1009.1334 1128.9385 1009.1337 1126.8359 1010.1484 C 1124.9883 1010.9731 1124.6053 1011.0364 1124.2871 1010.2754 C 1123.9048 1009.1336 1120.082 1008.4362 1117.2148 1008.9434 C 1114.2204 1009.5141 1112.8824 1010.9736 1113.3281 1013.1934 L 1113.6465 1015.0312 L 1110.6523 1014.5879 C 1108.9958 1014.3976 1107.0216 1013.637 1106.1934 1012.9395 L 1104.9238 1011.7344 L 1104.9238 952.08594 L 1098.498 952.08594 L 1092.0703 952.08594 L 1091.9688 975.47461 L 1091.8145 998.91406 L 1087.8555 999.06641 L 1083.8457 999.2207 L 1083.8457 992.51562 C 1083.8457 986.32323 1083.7946 985.86328 1082.8691 985.86328 C 1082.355 985.86328 1081.7896 985.50506 1081.584 985.0957 C 1081.4298 984.68638 1080.9666 984.32813 1080.5039 984.32812 C 1080.0927 984.32812 1079.7324 983.96991 1079.7324 983.56055 C 1079.7324 982.94645 1079.0635 982.79297 1076.9043 982.79297 L 1074.0781 982.79297 L 1074.0781 980.49023 C 1074.0781 978.54552 1073.9228 978.1875 1073.0488 978.1875 C 1072.2262 978.1875 1072.0215 977.82786 1072.0215 976.34375 C 1072.0215 974.91082 1071.8663 974.55354 1071.1465 974.70703 C 1070.4267 974.80946 1070.1197 975.67861 1069.7598 978.85156 C 1069.451 981.56398 1069.0903 982.79297 1068.5762 982.79297 C 1068.165 982.79297 1067.9082 983.40696 1067.9082 984.32812 C 1067.9082 985.60757 1067.7028 985.86328 1066.623 985.86328 L 1065.3887 985.86328 L 1065.2344 992.36328 L 1065.0801 998.91406 L 1062.252 998.91406 L 1059.4238 998.91406 L 1059.168 1003.9297 L 1058.9102 1008.9453 L 1050.4277 1008.9453 L 1041.9453 1008.9453 L 1041.791 994.20508 L 1041.6875 979.51758 L 1039.7852 977.57227 L 1037.8828 975.62891 L 1027.0352 975.62891 L 1016.1875 975.62891 L 1014.0273 977.82812 L 1011.8691 980.0293 L 1011.8691 998.29883 L 1011.8691 1016.5703 L 1004.1562 1016.5703 L 996.44531 1016.5703 L 996.44531 1013.7559 L 996.44531 1010.9395 L 993.875 1010.9395 L 991.30469 1010.9395 L 991.30469 1013.7559 L 991.30469 1016.6211 L 987.85938 1016.4668 C 984.56903 1016.3133 984.36323 1016.2119 984.20898 1015.0859 C 984.1058 1014.3695 983.12911 1012.4752 981.99805 1010.8887 L 979.99414 1007.9219 L 979.99414 990.52148 C 979.99414 978.39245 979.78828 972.7122 979.37695 971.79102 C 978.70862 970.30691 978.19372 970.15255 977.52539 971.38086 C 977.01126 972.25091 976.75564 971.585 974.54492 963.3457 C 974.08223 961.50333 973.51623 959.81409 973.31055 959.60938 C 973.10494 959.4049 972.17932 962.11683 971.25391 965.69922 C 969.71156 971.43106 969.45486 972.0454 968.83789 971.22656 C 968.16956 970.35655 968.11812 970.3568 967.24414 971.17578 C 966.52433 971.9434 966.31893 973.37584 966.11328 980.08008 C 965.90767 985.81192 965.65019 988.16679 965.1875 988.32031 C 964.72481 988.47376 964.57031 990.82818 964.57031 997.89062 L 964.57031 1007.2559 L 961.64062 1007.2051 C 958.81303 1007.103 958.65811 1007.0518 958.50391 1005.6699 C 958.3497 1004.3905 958.19536 1004.2871 955.7793 1004.2871 L 953.25977 1004.2871 L 953.25977 1001.2676 C 953.25977 995.38217 952.74533 993.54038 950.89453 992.36328 C 949.91771 991.74915 949.14648 990.82819 949.14648 990.31641 C 949.14648 989.80462 948.73619 989.44727 948.11914 989.44727 C 947.55361 989.44727 947.08984 989.80548 947.08984 990.21484 C 947.08984 990.62417 946.1643 991.59601 945.0332 992.3125 L 942.97656 993.69531 L 942.97656 998.96484 L 942.97656 1004.2871 L 937.52734 1004.2871 C 933.0031 1004.2871 931.92429 1004.4416 931.41016 1005.1582 C 930.89603 1005.8235 929.91967 1005.9773 926.11523 1005.875 C 921.69383 1005.824 921.38477 1005.8753 921.38477 1006.8477 C 921.38477 1007.6153 921.02506 1007.8711 920.09961 1007.8711 C 919.17415 1007.8711 918.81445 1008.1269 918.81445 1008.8945 C 918.81445 1009.7134 918.45329 1009.918 917.01367 1009.918 C 915.21431 1009.918 915.21484 1009.9178 915.21484 1012.2207 C 915.21484 1013.9096 915.00893 1014.5234 914.44336 1014.5234 C 913.87783 1014.5234 913.67383 1015.1373 913.67383 1017.082 C 913.67383 1018.4638 913.46673 1019.6406 913.1582 1019.6406 C 912.9012 1019.6406 912.64453 1018.7194 912.64453 1017.5938 C 912.64453 1015.9049 912.4912 1015.5469 911.61719 1015.5469 C 910.74317 1015.5469 910.58789 1015.1884 910.58789 1013.0391 C 910.58789 1011.299 910.38197 1010.4293 909.81641 1010.2246 C 909.35368 1010.0712 909.04492 1009.304 909.04492 1008.3828 C 909.04492 1006.8987 908.94277 1006.8477 906.73242 1006.8477 L 904.41797 1006.8477 L 904.41797 1003.5195 C 904.41797 1000.9095 904.26541 1000.1934 903.64844 1000.1934 C 903.03154 1000.1934 902.87695 1000.9095 902.87695 1003.5195 C 902.87695 1006.4879 902.77475 1006.8477 901.90039 1006.8477 C 901.02637 1006.8477 900.871 1007.2559 900.7168 1009.252 L 900.5625 1011.709 L 895.31836 1011.8613 L 890.07422 1012.0156 L 887.9668 1010.1211 L 885.85938 1008.2285 L 884.36914 1009.6621 L 882.82617 1011.1465 L 882.82617 998.50391 L 882.82617 985.86328 L 881.54102 985.86328 C 880.82124 985.86328 880.25586 985.60747 880.25586 985.35156 C 880.25586 985.04429 879.89572 984.83984 879.48438 984.83984 C 878.91884 984.83984 878.71289 984.22719 878.71289 982.12891 L 878.71289 979.4668 L 870.12695 979.56836 L 861.54102 979.67188 L 861.69531 982.43555 C 861.79849 984.58496 861.64428 985.30112 861.02734 985.50586 C 860.30757 985.76173 860.20508 987.04146 860.20508 993.79688 C 860.20508 999.93813 860.05124 1001.7285 859.53711 1001.7285 C 857.89192 1001.7285 857.63477 1000.5 857.63477 992.66992 L 857.63477 984.83984 L 852.75 984.83984 L 847.86523 984.83984 L 847.86523 980.49023 L 847.86523 976.14062 L 845.29492 976.14062 C 843.08424 976.14062 842.72461 975.98727 842.72461 975.11719 C 842.72461 974.14483 842.36489 974.09375 838.09766 974.09375 L 833.4707 974.09375 L 833.4707 968.97461 L 833.4707 963.85742 L 829.61523 963.85742 L 825.75977 963.85742 L 825.75977 954.90234 L 825.75977 945.94531 L 817.79102 945.94531 L 809.82227 945.94531 L 809.51367 944.66602 C 809.35947 943.94949 809.04943 943.38672 808.84375 943.38672 C 808.63814 943.38672 808.17626 942.56849 807.81641 941.54492 C 806.99383 939.29315 805.29646 939.29291 804.2168 941.5957 C 803.80558 942.41458 803.34302 943.23319 803.08594 943.38672 C 802.88033 943.54017 802.57283 944.51318 802.36719 945.58789 C 802.16158 946.61146 801.80201 947.48047 801.54492 947.48047 C 801.28791 947.48047 801.08203 948.40142 801.08203 949.52734 C 801.08203 951.01149 800.87612 951.57422 800.31055 951.57422 C 799.69361 951.57422 799.53906 952.23922 799.53906 954.38867 C 799.53906 955.92399 799.33391 957.20508 799.02539 957.20508 C 798.7166 957.20508 798.51172 959.76286 798.51172 963.9082 C 798.51172 969.64005 798.40898 970.56248 797.74023 970.30664 C 797.07186 970.05077 796.96875 972.19879 796.96875 987.6543 C 796.96875 1004.9522 796.96771 1005.3105 795.93945 1005.3105 C 795.06548 1005.3105 794.91211 1004.9525 794.91211 1002.752 C 794.91211 1000.3466 794.80911 1000.1934 793.62695 1000.1934 C 792.34169 1000.1934 792.3418 1000.1424 792.3418 995.89453 L 792.3418 991.54492 L 790.43945 991.39062 L 788.48633 991.23828 L 788.48633 978.75 L 788.48633 966.31445 L 783.70508 961.65625 C 781.08311 959.04622 779.07685 956.69221 779.17969 956.33398 C 779.5395 955.4128 766.63632 955.36187 765.71094 956.2832 C 765.24825 956.74381 764.93916 956.43714 764.32227 955.00391 C 763.91105 953.98041 763.24336 952.34349 762.83203 951.37109 C 762.42082 950.39873 761.80328 946.91752 761.44336 943.69336 C 761.08355 940.41798 760.62033 937.75781 760.36328 937.75781 C 760.15767 937.75781 759.95313 938.52413 759.95312 939.44531 L 759.95117 939.44531 C 759.95117 940.41767 759.79716 941.28788 759.64258 941.44141 C 759.48837 941.59486 759.2826 943.28419 759.17969 945.17773 C 758.97408 948.9649 755.63301 958.22656 754.50195 958.22656 C 753.16529 958.22656 752.24023 968.66723 752.24023 983.40625 L 752.24023 995.58594 L 750.43945 995.58594 C 748.74282 995.58594 748.53729 995.38174 747.25195 992.77148 C 746.42938 991.13378 745.50562 989.95703 745.04297 989.95703 C 744.58024 989.95703 743.65461 991.13378 742.83203 992.77148 L 741.44336 995.58594 L 737.68945 995.58594 C 734.09066 995.58594 733.8861 995.63799 733.9375 996.71289 C 733.9889 997.73642 733.73184 997.88867 732.18945 997.88867 C 730.6471 997.88867 730.39053 997.68429 730.23633 996.60938 C 729.97932 994.86936 727.1517 992.00391 725.60938 992.00391 C 724.42691 992.00391 724.42646 991.95302 724.5293 986.68164 C 724.5807 983.76453 724.47709 981.10387 724.27148 980.79688 C 724.06588 980.541 723.80912 978.74862 723.60352 976.90625 L 723.29492 973.58008 L 718.77148 973.58008 C 713.01337 973.58008 712.65234 973.73284 712.65234 976.18945 C 712.65234 977.26412 712.4465 978.18555 712.18945 978.18555 C 711.93245 978.18555 711.67569 974.04114 711.52148 968.97461 C 711.4183 962.88447 711.1627 959.60943 710.80273 959.35352 C 710.44292 959.14867 710.13272 958.53366 709.97852 957.9707 C 709.87609 957.30543 709.46463 956.99918 708.84766 957.10156 C 708.28213 957.20399 707.82026 956.89567 707.66602 956.23047 C 707.51181 955.51398 706.94696 955.15625 706.17578 955.15625 C 704.99328 955.15625 704.94141 955.00348 704.94141 952.03516 L 704.94141 948.91211 L 702.93555 950.60156 C 701.59884 951.72748 700.87891 952.80187 700.87891 953.67188 C 700.8275 954.38834 700.26278 955.51434 699.54297 956.17969 C 698.82323 956.84496 698.25781 957.81833 698.25781 958.33008 C 698.25781 958.8419 698.05263 959.25 697.74414 959.25 C 697.48713 959.25 697.22852 959.91511 697.22852 960.78516 C 697.22852 961.60395 697.02333 962.32227 696.71484 962.32227 C 696.40606 962.32227 696.20117 965.75019 696.20117 971.5332 L 696.20117 980.74609 L 687.20312 980.74609 L 678.20703 980.74609 L 678.20703 984.07227 L 678.20703 987.39844 L 674.09375 987.39844 L 669.98047 987.39844 L 669.87891 1019.4863 C 669.86101 1025.6518 669.81738 1025.2824 669.78906 1030 L 666.375 1030 C 666.36795 1020.7672 666.22418 1011.6604 666.02344 1009.7617 L 665.71484 1006.334 L 663.76172 1006.334 C 661.96229 1006.334 661.75586 1006.1806 661.75586 1005.0547 C 661.75586 1003.4682 660.21295 1003.5182 658.77344 1005.207 C 658.20787 1005.8211 657.54087 1006.334 657.23242 1006.334 C 656.92363 1006.334 656.56374 1007.4077 656.46094 1008.7383 L 656.30664 1011.1953 L 656.20312 1008.7383 C 656.09996 1006.9983 655.89531 1006.334 655.33008 1006.334 C 654.71315 1006.334 654.55859 1005.669 654.55859 1003.5195 L 654.55859 1000.7051 L 652.75977 1000.7051 C 651.52586 1000.7051 650.95898 1000.9609 650.95898 1001.4727 C 650.95898 1001.882 650.7538 1002.2402 650.44531 1002.2402 C 650.13653 1002.2402 649.93164 1004.031 649.93164 1006.5898 C 649.93164 1010.1211 649.7772 1010.9395 649.16016 1010.9395 C 648.49186 1010.9395 648.38867 1009.7632 648.38867 1003.5195 L 648.38867 996.09766 L 637.02734 996.20117 L 625.61328 996.35352 L 625.5625 999.9375 C 625.5111 1003.4687 625.45937 1003.5184 624.12305 1003.6719 L 622.68359 1003.8262 L 622.68359 984.12305 L 622.68359 964.41992 L 618.36523 963.14062 C 616.00027 962.42416 613.79029 961.80859 613.5332 961.80859 C 613.22442 961.80859 612.9153 961.04228 612.8125 960.12109 C 612.70932 959.25112 612.34946 958.43164 612.04102 958.43164 C 611.6812 958.38062 611.21932 958.27759 611.01367 958.22656 C 610.75666 958.17554 610.44783 958.12438 610.24219 958.17578 C 609.98518 958.17578 609.83008 957.86816 609.83008 957.45898 C 609.83008 956.94716 609.31662 956.69141 608.33984 956.69141 C 606.9517 956.69141 606.79682 956.53857 606.64258 954.84961 C 606.5394 953.57016 606.1286 952.69932 605.35742 952.1875 C 604.175 951.47105 604.17578 951.47207 604.17578 953.57031 L 604.17578 955.66797 L 601.34766 955.66797 C 599.18834 955.66797 598.51953 955.82134 598.51953 956.43555 C 598.51953 956.94729 597.95453 957.20312 596.7207 957.20312 C 595.74388 957.20312 594.92188 957.40757 594.92188 957.71484 C 594.92188 957.97072 594.45807 958.22656 593.89258 958.22656 C 593.06996 958.22656 592.86523 958.58667 592.86523 960.01953 L 592.86523 961.81055 L 589.00977 961.81055 L 585.1543 961.81055 L 585.1543 984.02148 C 585.1543 1008.433 585.35929 1006.8457 582.01758 1006.8457 L 580.52734 1006.8457 L 580.52734 1003.2637 C 580.52734 1001.2166 580.32028 999.68164 580.01172 999.68164 C 579.75471 999.68164 579.49805 998.76069 579.49805 997.63477 L 579.49805 995.58594 L 577.18555 995.58594 L 574.87109 995.58594 L 574.87109 998.14648 L 574.87109 1000.7051 L 572.55859 1000.7051 L 570.24414 1000.7051 L 570.24414 1004.2871 L 570.24414 1007.8691 L 564.33203 1007.8691 L 558.41992 1007.8691 L 558.41992 1010.1719 C 558.41992 1011.4513 558.21474 1012.4746 557.90625 1012.4746 C 557.59746 1012.4746 557.39063 1009.0975 557.39062 1003.3145 C 557.39062 995.63775 557.28785 994.10349 556.61914 993.84766 C 556.15645 993.69421 555.84961 992.92513 555.84961 992.00391 L 555.84961 990.46875 L 550.19336 990.46875 C 546.74881 990.46875 544.53906 990.26434 544.53906 989.95703 C 544.53906 989.64976 544.0753 989.44531 543.50977 989.44531 C 542.63575 989.44531 542.48242 989.08727 542.48242 986.88672 C 542.48242 984.48139 541.91704 983.66279 541.19727 984.83984 C 540.73454 985.6075 536.46673 985.45313 536.1582 984.68555 C 535.9526 984.1738 535.79799 984.1738 535.23242 984.68555 C 534.82121 985.14612 532.97147 985.35156 530.04102 985.35156 L 525.51562 985.35156 L 525.51562 987.91016 L 525.51562 990.46875 L 519.60352 990.46875 L 513.69141 990.46875 L 513.69141 992.00391 C 513.69141 993.02748 513.43405 993.53906 512.91992 993.53906 C 512.40579 993.53906 512.14966 994.30758 512.04688 996.45703 C 511.89267 999.37415 511.89128 999.42462 510.24609 999.57812 L 508.55078 999.73242 L 508.55078 988.2168 C 508.55078 977.00895 508.60129 976.65039 509.57812 976.65039 C 510.40066 976.65039 510.60742 976.29225 510.60742 975.11523 C 510.60742 973.63113 510.50331 973.58008 508.29297 973.58008 C 506.69918 973.58008 505.87754 973.32429 505.67188 972.8125 C 505.41487 972.19836 504.23181 972.04492 499.50195 972.04492 L 493.64062 972.04492 L 493.64062 970.45898 C 493.64062 968.7701 492.09879 966.67251 491.6875 967.84961 C 491.43049 968.61727 481.81641 968.71879 481.81641 967.95117 C 481.81641 967.6439 480.9944 967.43945 480.01758 967.43945 C 478.78368 967.43945 478.2168 967.69528 478.2168 968.20703 C 478.2168 968.61635 477.75498 968.97461 477.18945 968.97461 C 476.36688 968.97461 476.16016 969.33309 476.16016 970.71484 L 476.16016 972.4043 L 470.66016 972.50586 C 467.6269 972.50586 465.05525 972.76167 464.84961 973.01758 C 464.6954 973.27345 463.51316 973.58124 462.2793 973.68359 C 462.22754 973.68719 462.20767 973.69176 462.1582 973.69531 C 462.15229 973.69625 462.14654 973.6962 462.14062 973.69727 C 460.81665 973.79295 460.28256 973.88906 460.08984 974.32031 C 459.8557 974.30489 459.54355 974.54131 458.88867 975.16992 C 457.91098 976.14323 457.73115 976.21547 457.69336 975.63867 C 457.65708 975.24212 457.43998 975.60241 457.22266 976.35938 C 456.93273 977.26032 456.67946 977.62161 456.49805 977.36914 C 456.35322 977.11742 455.84702 976.93555 455.33984 976.93555 C 454.61546 976.93555 454.4707 976.75666 454.4707 975.85547 C 454.4707 974.95469 454.32497 974.77344 453.56445 974.77344 C 452.65914 974.77344 452.36967 975.27717 453.02148 975.67383 C 453.85442 976.17828 452.91365 976.39648 450.05273 976.39648 C 447.08161 976.39648 447.04657 976.39537 447.11914 975.49414 C 447.2278 973.94404 446.90167 972.97093 446.32227 973.1875 C 445.92353 973.36767 445.85134 973.25851 445.99609 972.82617 C 446.10419 972.50189 446.03178 972.25 445.81445 972.25 C 445.19858 972.25 445.34495 971.24143 446.10547 970.48438 C 446.75574 969.83532 446.75447 969.83472 446.06641 969.40234 C 445.12485 968.82555 444.98077 969.00584 444.9082 971.06055 L 444.86914 972.79102 L 443.16797 972.75391 C 441.75537 972.75391 441.53906 972.82543 441.86523 973.25781 C 442.37222 973.83457 441.71935 974.41211 440.56055 974.41211 C 440.05364 974.41211 439.94554 974.23094 440.12695 973.58203 C 440.23543 973.14946 440.34375 972.60915 440.34375 972.39258 C 440.34375 972.14045 440.70519 971.85261 441.17578 971.74414 L 441.97266 971.49219 L 441.14062 971.16602 C 440.70607 970.98596 440.34375 970.66113 440.34375 970.48047 C 440.34375 969.90386 436.9745 970.30144 436.50391 970.98633 C 436.21436 971.38356 435.99782 971.45477 435.81641 971.16602 C 435.67157 970.94756 435.27419 970.87786 434.91211 970.98633 C 434.18795 971.20263 433.75316 970.80621 434.11523 970.19336 C 434.2601 970.01311 434.9837 969.61696 435.74414 969.40039 C 437.26517 968.89575 437.48216 968.3916 436.28711 968.21094 C 435.56261 968.0666 435.63627 967.99346 436.72266 967.70508 C 437.91793 967.34459 438.38732 966.55101 437.22852 966.76758 C 436.93863 966.83943 436.72266 966.58796 436.72266 966.26367 C 436.72266 965.75918 436.46871 965.90241 435.59961 966.76758 C 434.47683 967.92124 433.64344 968.10296 434.54883 967.02148 C 434.94708 966.55282 434.91053 966.37183 434.29492 965.93945 C 433.67961 965.50681 433.53584 965.00174 433.49805 962.80273 C 433.46176 960.74799 433.28151 960.02789 432.73828 959.45117 C 432.12286 958.80226 432.01367 958.18793 432.01367 955.01562 C 432.01367 952.81664 431.86967 951.33984 431.65234 951.33984 C 431.43502 951.33984 431.28906 952.38402 431.28906 953.75391 C 431.28906 956.4941 430.96342 956.60321 430.74609 953.93555 C 430.52877 951.6645 430.05765 950.40203 429.15234 949.86133 C 428.78989 949.60901 428.53763 949.1763 428.64648 948.92383 C 428.75533 948.67196 428.64701 948.45703 428.42969 948.45703 C 428.21263 948.45703 428.0293 948.23955 428.0293 947.95117 C 428.0293 947.4104 426.87196 946.5451 425.64062 946.14844 C 424.98868 945.96815 424.84353 946.07639 424.66211 947.01367 C 424.37241 948.34758 423.86598 948.41977 423.50391 947.08594 C 423.25056 946.18471 423.21281 946.22064 422.74219 947.87891 C 421.98175 950.76284 421.22277 951.26789 416.80469 951.73633 C 414.70425 951.9529 412.8928 952.24077 412.74805 952.38477 C 412.60329 952.4929 412.45965 955.26929 412.42188 958.51367 C 412.38567 964.10125 412.34935 964.46246 411.625 965.11133 L 410.82812 965.79492 L 411.625 965.58008 C 412.42021 965.36378 412.45703 965.43496 412.45703 967.27344 L 412.41992 969.18359 L 411.40625 967.99414 C 410.28369 966.69659 409.55859 966.51708 409.55859 967.5625 C 409.55859 968.03105 409.30547 968.2832 408.87109 968.2832 C 407.96571 968.2832 405.75586 970.26658 406.08203 970.77148 C 406.22679 970.98748 406.19193 971.16797 405.97461 971.16797 C 405.7554 971.16797 405.68412 971.41865 405.79297 971.70703 C 406.08267 972.39366 405.10397 972.43102 404.01758 971.74609 C 402.78625 970.98887 400.61403 970.70051 400.25195 971.27734 C 400.10712 971.52967 399.3104 971.99873 398.51367 972.28711 C 397.60829 972.61154 397.0296 973.07934 396.95703 973.51172 C 396.73978 974.6655 396.16016 975.02694 396.16016 974.01758 C 396.16016 973.54892 395.83406 972.75487 395.43555 972.25 C 394.74748 971.34836 394.74636 971.34933 394.20312 972.07031 C 393.84099 972.53897 393.55243 972.68216 393.29883 972.42969 C 392.97292 972.10525 392.53842 962.48022 391.95898 942.2207 C 391.8143 937.71452 391.56077 934.03711 391.41602 934.03711 C 391.2346 934.03711 391.08984 934.25414 391.08984 934.4707 C 391.08984 934.72302 390.72641 934.39804 390.25586 933.78516 C 389.53155 932.70406 389.31471 932.5957 387.43164 932.5957 C 385.87436 932.5957 385.25917 932.73957 384.75195 933.31641 C 384.02768 934.10965 382.4704 934.29126 382.2168 933.57031 C 382.14472 933.35405 381.92751 928.73959 381.74609 923.4043 C 381.56513 918.03298 381.31077 913.99536 381.16602 914.42773 C 380.94869 915.00453 380.66001 915.11238 379.86328 915.00391 C 379.28388 914.93179 378.59623 914.60794 378.37891 914.35547 C 378.01675 913.92309 378.0889 913.88628 378.92188 914.21094 C 379.46505 914.39084 379.97235 914.57227 380.04492 914.57227 C 380.15377 914.57227 380.25908 912.08476 380.29688 909.05664 C 380.40552 903.61318 380.40734 903.57735 379.50195 902.82031 C 378.99501 902.38775 378.34225 901.95418 378.05273 901.8457 L 378.06055 901.8457 C 377.92474 901.80063 377.77553 901.77322 377.60352 901.76758 z M 378.26953 903.75781 C 378.55753 903.75781 378.70455 903.93653 378.5957 904.11719 C 378.37879 904.44074 377.6942 904.29525 377.69141 903.90039 C 377.69141 903.82858 377.94321 903.75781 378.26953 903.75781 z M 377.97852 906.5625 C 378.32819 906.46286 378.91205 906.71395 379.21094 907.14648 C 379.35569 907.36279 379.50195 907.9036 379.50195 908.33594 C 379.50195 909.05681 379.32012 909.1667 378.125 909.12891 C 377.40122 909.12891 377.00135 909.02058 377.21875 908.91211 C 377.90685 908.65979 377.79851 908.08203 377.07422 908.08203 C 376.53073 908.08203 376.53186 908.04757 377.03906 907.61523 C 377.36494 907.39893 377.65396 907.00172 377.72656 906.78516 C 377.77184 906.66803 377.86196 906.59571 377.97852 906.5625 z M 378.60742 909.67773 C 378.73642 909.67489 378.8495 909.70525 378.92188 909.77734 C 379.03071 909.88555 379.03071 910.13725 378.92188 910.28125 C 378.66838 910.71359 377.68945 910.67791 377.68945 910.28125 C 377.68945 909.98392 378.22042 909.68627 378.60742 909.67773 z M 378.74023 911.32617 C 379.17492 911.32617 379.35811 911.57844 379.32031 912.11914 C 379.2479 913.27307 378.23506 913.3821 378.19727 912.22852 C 378.16102 911.57984 378.30589 911.32617 378.74023 911.32617 z M 47.621094 920.14648 C 47.888164 920.07902 48.269815 920.15881 48.794922 920.375 C 49.881355 920.80757 49.481606 921.42187 48.105469 921.42188 C 47.272533 921.42188 47.01998 921.27707 47.128906 920.80859 C 47.20132 920.42989 47.354024 920.21395 47.621094 920.14648 z M 46.115234 921.06055 C 46.477249 921.06055 46.693359 921.38598 46.693359 921.81836 C 46.693359 922.68368 45.861216 922.57498 45.679688 921.67383 C 45.606841 921.31337 45.78891 921.06055 46.115234 921.06055 z M 47.183594 923.26367 C 47.394115 923.2248 47.318405 923.39451 47.019531 923.9082 C 46.440118 924.80973 45.789215 924.882 45.462891 924.125 C 45.35398 923.80075 45.462366 923.58398 45.751953 923.58398 C 46.041707 923.58398 46.548676 923.47566 46.875 923.36719 C 47.010823 923.31312 47.11342 923.27663 47.183594 923.26367 z M 46.21875 925.88281 C 46.32282 925.89184 46.422888 925.96323 46.513672 926.10742 C 46.658466 926.32372 46.621695 926.68382 46.404297 926.90039 C 46.187118 927.11658 45.970631 927.1165 45.789062 926.82812 C 45.644271 926.61184 45.681039 926.25172 45.898438 926.03516 C 46.007002 925.92706 46.11468 925.87379 46.21875 925.88281 z M 48.349609 928.74219 C 48.445812 928.74217 48.550766 928.78364 48.650391 928.88281 C 48.975819 929.20725 48.903208 930.07227 48.541016 930.07227 C 48.360139 930.07227 48.142129 929.81963 48.033203 929.53125 L 48.035156 929.53125 C 47.845008 929.12592 48.061003 928.74224 48.349609 928.74219 z M 16.876953 939.59766 C 16.990081 939.60687 17.088913 939.6804 17.179688 939.80664 C 17.324516 940.02321 20.511359 940.16602 26.341797 940.16602 C 31.339334 940.16602 35.54051 940.31078 35.830078 940.52734 C 36.300698 940.8158 36.373047 942.43716 36.373047 951.52148 C 36.373047 963.38168 36.446103 963.05783 33.947266 962.69727 C 33.186804 962.58917 30.433575 962.26494 27.826172 961.97656 C 25.182505 961.68815 22.865841 961.29079 22.648438 961.07422 C 22.394952 960.8219 22.213245 958.04626 22.140625 953.57617 C 22.031968 945.39259 22.104284 945.57422 18.736328 945.57422 C 16.455034 945.57422 16.454888 945.53872 16.201172 942.87109 C 16.092515 941.86185 15.948285 941.78838 14.173828 941.5 C 11.78365 941.10341 11.855787 940.38228 14.318359 940.23828 L 14.318359 940.23633 C 15.259916 940.16455 16.274782 939.94824 16.492188 939.76758 C 16.636971 939.64229 16.763826 939.58844 16.876953 939.59766 z M 1917.6152 969.45508 C 1918.0951 969.43525 1918.4063 969.46349 1918.4062 969.55859 C 1918.4062 969.8757 1912.9262 972.53906 1912.2891 972.53906 C 1911.7792 972.53906 1912.0354 970.69954 1912.5449 970.38281 C 1913.2139 970.00223 1916.1757 969.51455 1917.6152 969.45508 z M 412.31836 969.79102 C 412.39355 969.80949 412.44827 970.00521 412.41992 970.30273 C 412.41992 970.69996 412.31198 970.80791 412.20312 970.51953 L 412.20117 970.51953 C 412.09421 970.26698 412.12943 969.94246 412.23828 969.83398 C 412.26549 969.79788 412.2933 969.78486 412.31836 969.79102 z M 1908.0762 971.27148 C 1909.1868 971.30183 1909.4863 971.76234 1909.4863 972.79297 C 1909.4863 973.99796 1908.9123 974.56911 1906.7461 975.45703 C 1905.2807 976.09127 1903.8788 976.72457 1903.5605 976.85156 C 1903.3061 976.97837 1903.1152 975.96361 1903.1152 974.56836 C 1903.1152 972.28511 1903.3059 972.0308 1905.0898 971.65039 C 1906.4517 971.38878 1907.4098 971.25328 1908.0762 971.27148 z M 437.1543 971.88867 C 437.87857 971.88867 439.36592 972.75369 439.32812 973.15039 C 439.29186 973.72745 438.53125 973.79941 438.53125 973.22266 C 438.53125 972.86058 438.24069 972.75444 437.625 972.89844 C 436.97326 973.00672 436.7207 972.89917 436.7207 972.4668 C 436.7207 972.14255 436.93697 971.88867 437.1543 971.88867 z M 1917.7695 971.9043 C 1918.1519 971.9043 1918.4063 973.36404 1918.4062 975.33008 L 1918.4062 978.75391 L 1915.6035 979.70508 L 1912.7988 980.65625 L 1912.5449 977.48633 C 1912.3538 974.37865 1912.4173 974.251 1914.7109 973.10938 C 1916.0489 972.47517 1917.3873 971.9043 1917.7695 971.9043 z M 1898.9785 971.95508 C 1900.1258 971.87643 1900.2159 972.87244 1900.0566 975.33008 C 1899.8017 979.07196 1900.248 978.6282 1893.6855 981.22852 C 1893.1122 981.4822 1892.9199 980.59449 1892.9199 977.99414 L 1892.9199 974.37891 L 1895.5977 973.17383 C 1897.2224 972.43655 1898.2901 972.00227 1898.9785 971.95508 z M 1889.3184 973.29102 C 1891.1084 973.1488 1890.4049 974.1966 1887.5059 975.58398 C 1883.9379 977.29656 1884.002 977.29527 1884.002 975.39258 C 1884.002 974.25071 1884.319 973.80859 1885.2109 973.80859 L 1885.2109 973.80664 C 1885.8481 973.80664 1887.3133 973.61784 1888.3965 973.42773 C 1888.7549 973.35638 1889.0626 973.31133 1889.3184 973.29102 z M 435.49609 973.39648 C 435.57128 973.41497 435.626 973.61071 435.59766 973.9082 C 435.59766 974.30543 435.48776 974.41338 435.37891 974.125 L 435.37695 974.125 C 435.26999 973.87241 435.30717 973.54793 435.41602 973.43945 C 435.44323 973.40336 435.47103 973.39032 435.49609 973.39648 z M 436.9707 973.44141 C 437.19992 973.48024 437.44336 973.81861 437.44336 974.19727 C 437.44336 974.41345 437.26337 974.37747 437.00977 974.125 C 436.79395 973.90877 436.68329 973.62019 436.75586 973.51172 C 436.8193 973.44863 436.8943 973.42846 436.9707 973.44141 z M 438.74805 974.08984 C 439.14679 974.08984 439.25436 974.19817 438.96484 974.30664 C 438.71112 974.41285 438.38619 974.378 438.27734 974.26953 C 438.1363 974.16155 438.35138 974.05222 438.74805 974.08984 z M 1880.0098 974.65234 C 1880.7445 974.61962 1880.8164 975.06057 1880.8164 976.53516 C 1880.8164 978.18416 1880.4332 978.81785 1879.2227 979.38867 C 1876.4192 980.65708 1875.7188 980.33978 1875.7188 977.92969 C 1875.7187 976.6612 1876.1003 975.58402 1876.4824 975.45703 C 1876.9284 975.26651 1878.0758 975.01238 1879.0312 974.82227 C 1879.4454 974.72713 1879.7649 974.66325 1880.0098 974.65234 z M 1890.373 975.71094 L 1890.373 979.32617 L 1890.373 983.00391 L 1887.6328 984.08203 C 1886.1674 984.71601 1884.702 985.22461 1884.4473 985.22461 C 1884.1928 985.22461 1884.002 983.82858 1884.002 982.05273 L 1884 982.05273 C 1884 978.88156 1883.9999 978.8824 1887.1855 977.29688 L 1890.373 975.71094 z M 1909.168 975.71094 C 1909.3592 975.71094 1909.4863 977.10593 1909.4863 978.81836 C 1909.4863 981.67236 1909.3597 981.92623 1907.7031 982.30664 C 1906.7474 982.4969 1905.3459 982.81475 1904.5176 983.06836 C 1903.2433 983.44892 1903.1152 983.25782 1903.1152 980.97461 C 1903.1152 978.6914 1903.3064 978.43734 1905.9824 977.10547 C 1907.5752 976.34439 1909.0406 975.71094 1909.168 975.71094 z M 1872.5254 975.81836 C 1873.1346 975.84511 1873.1699 976.48838 1873.1699 978.62891 C 1873.1699 981.67316 1873.1059 981.73627 1870.6211 982.81445 L 1868.0723 983.89258 L 1868.0723 980.08594 C 1868.0723 976.97822 1868.2645 976.34375 1869.1562 976.34375 C 1869.7934 976.34375 1870.9405 976.15495 1871.7051 975.96484 C 1872.0555 975.8697 1872.3223 975.80944 1872.5254 975.81836 z M 1864.25 977.61328 C 1864.5689 977.61328 1864.8863 979.19902 1865.0137 981.22852 C 1865.2048 984.71675 1865.1412 984.78001 1863.166 985.66797 C 1859.9805 986.93642 1859.791 986.80976 1859.791 982.43359 C 1859.791 978.43814 1859.7906 978.37455 1861.7656 977.99414 C 1862.8488 977.80384 1863.9953 977.61328 1864.25 977.61328 z M 1856.3809 978.26953 C 1857.8233 978.05251 1857.8951 979.18282 1857.752 983.13086 L 1857.5605 987.95117 L 1855.1387 988.77539 L 1852.7812 989.59961 L 1852.7812 984.52539 C 1852.7813 979.70525 1852.8447 979.45168 1854.4375 978.88086 C 1855.2658 978.56375 1855.9 978.34187 1856.3809 978.26953 z M 96.560547 979.45898 C 96.995132 979.45898 97.465293 979.60375 97.574219 979.82031 C 97.863923 980.28875 97.030927 980.28875 96.306641 979.82031 C 95.872294 979.53193 95.908745 979.45898 96.560547 979.45898 z M 187.56836 979.63281 C 187.59095 979.63511 187.61377 979.64876 187.63867 979.67578 C 187.81979 979.82005 187.92886 981.01086 187.89258 982.30859 C 187.85671 984.4715 187.82084 984.57948 187.53125 983.49805 L 187.5293 983.49805 C 187.15591 982.21374 187.22952 979.59837 187.56836 979.63281 z M 1849.4043 979.83203 C 1849.9143 979.64173 1850.234 981.22786 1850.3613 985.0332 L 1850.5508 990.48828 L 1848.5137 991.375 C 1847.3668 991.81902 1846.219 992.20117 1845.9004 992.20117 C 1845.6452 992.20117 1845.3266 989.66336 1845.1992 986.49219 L 1845.0723 980.84766 L 1846.8555 980.4668 C 1847.8112 980.213 1848.9586 979.95902 1849.4043 979.83203 z M 1880.8164 980.15039 L 1880.8164 982.30664 C 1880.8164 983.51163 1881.0064 984.90769 1881.1973 985.47852 C 1881.4521 986.11264 1880.8797 986.74665 1879.6055 987.38086 C 1876.6109 988.96641 1876.2912 988.7127 1876.4824 985.09766 C 1876.6736 982.05336 1876.8015 981.73566 1878.7129 980.97461 L 1880.8164 980.15039 z M 1918.4062 980.21289 L 1918.4062 983.51172 L 1918.4062 986.87305 L 1915.5391 987.95117 L 1912.6074 988.96484 L 1912.7988 985.41406 L 1912.9902 981.79883 L 1915.666 981.03711 L 1918.4062 980.21289 z M 1899.5117 980.48242 C 1899.9037 980.54559 1899.9297 981.06105 1899.9297 982.36914 C 1899.9297 984.77919 1899.3552 985.22444 1894.959 986.17578 C 1893.0475 986.5563 1892.9199 986.49283 1892.9199 984.9707 C 1892.9199 983.82913 1893.494 983.0668 1894.832 982.36914 C 1895.8514 981.86178 1897.4439 981.10226 1898.3359 980.78516 C 1898.9093 980.5711 1899.2765 980.44452 1899.5117 980.48242 z M 1843.2891 980.78516 C 1843.6077 980.78516 1843.8613 983.57522 1843.8613 987 L 1843.8613 993.21484 L 1841.7598 993.97656 C 1840.6129 994.42051 1839.4657 994.73633 1839.2109 994.73633 C 1838.956 994.73633 1838.7656 991.88384 1838.7656 988.45898 L 1838.7656 982.17969 L 1840.7402 981.48242 C 1841.8871 981.10186 1843.0343 980.78516 1843.2891 980.78516 z M 1872.916 983.32031 C 1873.0434 983.32031 1873.1699 984.84237 1873.1699 986.68164 C 1873.1699 989.91624 1873.1052 990.0436 1871.0664 990.80469 C 1868.072 991.88287 1868.0723 991.88281 1868.0723 988.39453 C 1868.0723 985.35027 1868.1372 985.22478 1870.3672 984.27344 C 1871.6414 983.76577 1872.7886 983.32031 1872.916 983.32031 z M 1713.9883 983.40234 C 1714.2541 983.34883 1715.2088 983.95506 1718.6016 986.23828 C 1721.0226 987.88725 1725.7389 990.4251 1728.9883 991.94727 C 1732.6836 993.65969 1734.9121 995.05517 1734.9121 995.68945 C 1734.9121 997.08474 1734.1484 996.89317 1728.6055 994.16602 C 1724.3367 992.00961 1713.8867 984.5266 1713.8867 983.63867 C 1713.8867 983.51182 1713.8997 983.42018 1713.9883 983.40234 z M 1908.291 983.46484 C 1909.4607 983.37877 1909.4863 984.28044 1909.4863 986.61914 C 1909.4863 990.044 1909.4855 990.10809 1907.0645 990.86914 C 1905.7902 991.31312 1904.3246 991.82027 1903.8789 991.94727 C 1903.3056 992.20095 1903.1152 991.37574 1903.1152 988.77539 C 1903.1152 985.5408 1903.2416 985.16067 1904.707 984.58984 C 1906.4752 983.92391 1907.5892 983.51649 1908.291 983.46484 z M 1890.0137 984.70117 C 1890.4198 984.73287 1890.373 985.19171 1890.373 986.11133 C 1890.373 987.37981 1889.8618 987.82393 1887.377 988.64844 C 1883.7454 989.917 1884.002 989.9167 1884.002 988.39453 C 1884.002 987.44319 1884.8292 986.74535 1886.9316 985.85742 C 1888.7476 985.06461 1889.6075 984.66947 1890.0137 984.70117 z M 1713.377 985.28711 C 1713.5044 985.28711 1715.4173 986.87274 1717.7109 988.77539 C 1720.0046 990.67812 1724.7817 993.65974 1728.3496 995.43555 C 1734.4021 998.41642 1734.9121 998.79548 1734.9121 1000.5078 C 1734.9121 1001.5226 1734.6581 1002.3477 1734.3398 1002.3477 C 1733.193 1002.3477 1718.0293 997.14647 1715.6719 995.94141 L 1713.25 994.73828 L 1713.25 989.98047 C 1713.25 987.38019 1713.3131 985.22361 1713.377 985.28711 z M 1899.9297 985.92188 L 1899.9297 989.66406 L 1899.9297 993.3418 L 1896.9355 994.35742 C 1895.3427 994.92828 1893.9399 995.30863 1893.8125 995.18164 C 1893.7486 995.1183 1893.558 993.53156 1893.4941 991.62891 L 1893.2402 988.20508 L 1896.5527 987.0625 L 1899.9297 985.92188 z M 1864.5234 986.74219 C 1865.575 986.62761 1865.5234 987.41941 1865.5234 989.59961 C 1865.5234 992.70733 1865.4597 992.83381 1863.166 993.78516 C 1861.8918 994.29286 1860.8096 994.6752 1860.7461 994.61133 C 1860.6821 994.48452 1860.3631 993.08743 1860.1719 991.375 C 1859.7258 988.64784 1859.8535 988.33185 1861.1914 987.82422 C 1862.8639 987.20584 1863.8925 986.81094 1864.5234 986.74219 z M 1881.1016 988.45117 C 1881.4679 988.47494 1881.4516 988.80871 1881.3242 989.47461 C 1881.1968 990.04543 1880.0509 990.86882 1878.7129 991.3125 C 1876.6741 992.01001 1876.3555 992.01005 1876.3555 991.18555 C 1876.3555 990.67818 1877.3754 989.79087 1878.5859 989.2832 C 1879.9875 988.71236 1880.7352 988.42741 1881.1016 988.45117 z M 1917.4316 988.6582 C 1918.48 988.58079 1918.4062 989.49769 1918.4062 992.07422 C 1918.4062 996.19697 1918.0238 996.64063 1914.5195 996.64062 C 1912.7354 996.64062 1912.6719 996.5765 1912.6719 993.46875 C 1912.6719 990.74159 1912.8637 990.17024 1914.0742 989.72656 C 1915.7706 989.10818 1916.8026 988.70465 1917.4316 988.6582 z M 1890.373 989.09375 L 1890.373 992.89844 C 1890.373 996.9575 1890.2446 997.14742 1885.5938 998.28906 C 1884.0009 998.66959 1884.002 998.60612 1884.002 994.80078 C 1884.002 992.64437 1884.065 990.93164 1884.1289 990.93164 C 1884.2564 990.93164 1885.6579 990.48757 1887.3145 989.98047 L 1890.373 989.09375 z M 1857.8789 989.15625 L 1857.8789 992.45508 C 1857.8789 995.62618 1857.8142 995.75259 1855.7754 996.51367 C 1852.7809 997.59186 1852.7812 997.59183 1852.7812 994.23047 C 1852.7812 991.18617 1852.8452 991.12223 1855.3301 990.10742 L 1857.8789 989.15625 z M 948.11719 989.95703 C 948.42597 989.95703 948.63281 990.06006 948.63281 990.16211 C 948.63281 990.31556 948.42567 990.57093 948.11719 990.72461 C 947.86018 990.87806 947.60352 990.77503 947.60352 990.51953 C 947.60352 990.21226 947.86007 989.95703 948.11719 989.95703 z M 1872.875 991.63867 C 1873.2334 991.61491 1873.2021 991.85247 1873.043 992.32812 C 1872.7244 993.21601 1868.0723 994.86456 1868.0723 994.10352 C 1868.0723 993.72295 1869.0929 993.02468 1870.3672 992.51758 C 1871.7689 991.94685 1872.5166 991.66244 1872.875 991.63867 z M 1908.7227 991.69336 C 1909.3598 991.50306 1909.4867 992.07303 1909.3594 994.16602 L 1909.168 996.95703 L 1906.1094 997.14844 C 1903.1784 997.3387 1903.1152 997.27493 1903.1152 995.5625 C 1903.1152 994.04037 1903.4976 993.5961 1905.4727 992.89844 C 1906.8106 992.39111 1908.2765 991.88347 1908.7227 991.69336 z M 1793.5918 992.20117 C 1795.2485 992.20117 1795.5037 992.39068 1795.3125 993.5957 C 1795.1851 994.67389 1794.6121 995.1191 1793.3379 995.24609 C 1791.8723 995.43636 1791.6172 995.2449 1791.6172 993.84961 C 1791.6172 992.45421 1791.8715 992.20117 1793.5918 992.20117 z M 1850.1387 992.32812 C 1850.8698 992.3659 1850.8711 993.16806 1850.8711 995.30859 C 1850.8711 998.22601 1850.7423 998.479 1848.8945 999.11328 C 1845.9 1000.128 1845.7734 1000.0656 1845.7734 996.76758 C 1845.7734 993.91354 1845.8999 993.66052 1847.875 992.96289 C 1848.9979 992.55856 1849.7 992.30548 1850.1387 992.32812 z M 1880.7012 992.32812 C 1881.4653 992.4421 1881.4457 993.39841 1881.3262 995.81641 L 1881.1348 999.49414 L 1878.7129 999.68555 L 1876.3555 999.875 L 1876.3555 996.76758 C 1876.3555 993.78674 1876.4824 993.53272 1878.3301 992.89844 C 1879.5008 992.49413 1880.2427 992.25976 1880.7012 992.32812 z M 1788.7129 992.86523 C 1789.2378 992.96222 1789.7052 993.38313 1789.8965 994.16797 C 1790.4062 996.07066 1789.9602 996.64062 1788.0488 996.64062 C 1786.6472 996.64063 1786.4572 996.3874 1786.6484 994.86523 C 1786.8077 993.43823 1787.8381 992.70358 1788.7129 992.86523 z M 1784.3242 993.7207 C 1784.6216 993.76035 1784.6017 994.27118 1784.4824 995.5 C 1784.2275 998.10035 1782.0605 998.92358 1782.0605 996.38672 C 1782.0605 995.43534 1782.5701 994.48393 1783.3984 994.10352 C 1783.8524 993.84191 1784.1458 993.69692 1784.3242 993.7207 z M 1779.5645 994.42773 C 1780.1648 994.33855 1780.1649 994.80129 1780.0215 996.51367 C 1779.8941 998.41636 1779.5758 998.92379 1778.3652 999.05078 C 1777.0271 999.24108 1776.8986 999.05021 1777.0898 997.21094 C 1777.2173 995.75227 1777.7286 995.05424 1778.748 994.67383 C 1779.0984 994.54698 1779.3644 994.45746 1779.5645 994.42773 z M 1843.6074 994.73828 C 1843.7348 994.73828 1843.8613 996.13327 1843.8613 997.8457 C 1843.8613 1000.7632 1843.7343 1001.0162 1841.8867 1001.6504 C 1838.8921 1002.6652 1838.7656 1002.6019 1838.7656 999.49414 C 1838.7656 996.83044 1838.8924 996.57734 1841.0586 995.68945 C 1842.3329 995.18179 1843.4801 994.73828 1843.6074 994.73828 z M 1864.8867 994.80078 C 1865.3964 994.80078 1864.9511 995.24577 1863.9316 995.68945 C 1862.8485 996.19693 1861.5739 996.57617 1861.0645 996.57617 C 1860.5547 996.57617 1860.9365 996.13313 1862.0195 995.68945 C 1863.039 995.18194 1864.3772 994.80078 1864.8867 994.80078 z M 1872.3516 994.84961 C 1873.12 994.88801 1873.1699 995.62661 1873.1699 997.5293 C 1873.1699 1000.1296 1873.043 1000.3188 1871.1953 1000.6992 C 1868.1373 1001.27 1868.0723 1001.2712 1868.0723 998.60742 C 1868.0723 996.38759 1868.2649 996.06975 1870.0488 995.43555 C 1871.1718 995.055 1871.8905 994.82657 1872.3516 994.84961 z M 1899.4824 995.16602 C 1899.8965 995.19771 1899.9297 995.49955 1899.9297 996.07031 C 1899.9297 997.02177 1899.484 997.27539 1897.7637 997.27539 C 1896.5531 997.27539 1895.1516 997.46419 1894.5781 997.6543 C 1894.0044 997.8446 1893.5586 997.78157 1893.5586 997.46484 C 1893.5586 997.14778 1894.9601 996.44969 1896.7441 995.87891 C 1898.2733 995.37147 1899.0683 995.13432 1899.4824 995.16602 z M 1774.6953 995.41992 C 1775.5107 995.37234 1775.6895 996.03816 1775.6895 997.8457 C 1775.6895 999.74843 1775.4342 1000.3831 1774.4785 1000.6367 C 1773.4588 1000.8904 1773.2049 1000.51 1773.0137 998.48047 C 1772.8863 996.83154 1773.077 995.94306 1773.6504 995.68945 C 1774.0805 995.53088 1774.4235 995.43578 1774.6953 995.41992 z M 1770.8555 996.73242 C 1771.2288 996.83277 1771.2285 997.47326 1771.2285 999.17773 C 1771.2285 1001.017 1770.9107 1001.8405 1769.9551 1002.3477 C 1768.7447 1002.9819 1768.6797 1002.8552 1768.6797 1000.1914 C 1768.6797 998.22535 1768.9984 997.27509 1769.6992 997.02148 C 1770.2726 996.80745 1770.6315 996.67221 1770.8555 996.73242 z M 1713.9199 996.83008 C 1714.6208 996.92522 1716.0536 997.49659 1718.9844 998.66992 C 1721.5966 999.74811 1726.3105 1001.3973 1729.4961 1002.4121 C 1732.6181 1003.3635 1734.7211 1004.1875 1734.084 1004.1875 C 1733.447 1004.2508 1733.002 1004.7585 1733.002 1005.5195 C 1733.002 1006.2172 1732.8735 1006.7871 1732.7461 1006.7871 C 1732.0453 1006.7871 1722.1066 1002.9193 1717.8379 1001.0801 C 1714.5248 999.55787 1713.25 998.67024 1713.25 997.8457 C 1713.25 997.11635 1713.2191 996.73494 1713.9199 996.83008 z M 1356.7754 997.27539 C 1357.5398 997.27539 1357.7324 998.47973 1357.7324 1004.5684 C 1357.7324 1010.657 1357.5399 1011.8613 1356.7754 1011.8613 C 1356.0105 1011.8613 1355.8203 1010.657 1355.8203 1004.5684 C 1355.8203 998.47973 1356.0108 997.27539 1356.7754 997.27539 z M 1864.707 997.34766 C 1865.4755 997.39969 1865.5234 997.88446 1865.5234 999.11328 C 1865.5234 1000.6354 1865.2054 1000.9536 1863.5488 1001.334 C 1860.5543 1001.9048 1860.4277 1001.8411 1860.4277 999.875 C 1860.4277 998.35287 1860.7459 998.0367 1862.4023 997.65625 C 1863.5253 997.44221 1864.246 997.31644 1864.707 997.34766 z M 1794.084 997.46289 C 1794.706 997.44989 1794.8027 998.51096 1794.8027 1002.7285 L 1794.8027 1008.2461 L 1793.2109 1006.7871 C 1791.8728 1005.5187 1791.6172 1004.6956 1791.6172 1001.5879 C 1791.6172 999.55838 1791.8728 997.9082 1792.1914 997.9082 C 1792.51 997.9082 1793.2098 997.71941 1793.7832 997.5293 C 1793.8947 997.48966 1793.9951 997.46475 1794.084 997.46289 z M 1789.0254 997.88086 C 1790.1633 997.81845 1790.3438 998.92276 1790.3438 1002.3477 L 1790.3438 1006.7871 L 1788.4316 1006.7871 L 1786.5195 1006.7871 L 1786.5195 1002.7285 C 1786.5195 999.62084 1786.7745 998.60616 1787.5391 998.28906 C 1788.1603 998.05124 1788.6461 997.90166 1789.0254 997.88086 z M 1692.2246 997.91016 L 1694.4551 997.91016 C 1695.6657 997.91016 1696.6855 998.03645 1696.6855 998.22656 C 1696.6855 998.41686 1695.6657 1000.0651 1694.4551 1001.9043 L 1692.2246 1005.2031 L 1692.2246 1001.5234 L 1692.2246 997.91016 z M 1698.5957 999.17773 C 1699.4239 999.17773 1701.2086 1001.144 1701.8457 1002.793 C 1702.1644 1003.6175 1702.4199 1006.9157 1702.4199 1010.0234 L 1702.4199 1015.668 L 1700.1895 1015.668 C 1698.2142 1015.668 1697.959 1015.4773 1697.959 1014.082 C 1697.959 1013.1941 1697.6409 1012.4961 1697.3223 1012.4961 C 1696.9399 1012.4961 1696.6855 1011.798 1696.6855 1010.9102 C 1696.6855 1009.5146 1696.4302 1009.3242 1694.4551 1009.3242 C 1691.4606 1009.3242 1691.5885 1008.2467 1695.1562 1003.2363 C 1696.7491 1001.0165 1698.341 999.17773 1698.5957 999.17773 z M 1858.0469 999.28125 C 1858.4849 999.3526 1858.5156 999.71598 1858.5156 1000.4453 C 1858.5156 1001.8407 1858.1971 1002.0308 1854.8203 1002.6016 C 1853.0998 1002.9187 1852.7813 1002.7296 1852.7812 1001.7148 C 1852.7813 1000.827 1853.4821 1000.3191 1855.1387 999.875 C 1856.7634 999.43106 1857.6089 999.2099 1858.0469 999.28125 z M 1784.2773 999.51172 C 1785.0658 999.47903 1785.2461 1000.5242 1785.2461 1003.4258 C 1785.2461 1006.5971 1785.1814 1006.7871 1783.6523 1006.7871 C 1782.1868 1006.7871 1782.0605 1006.5981 1782.0605 1003.6172 C 1782.0605 1001.2072 1782.3158 1000.3191 1783.2715 999.875 C 1783.6856 999.65303 1784.0145 999.52261 1784.2773 999.51172 z M 1713.5684 1000.7637 L 1719.4941 1003.3008 C 1722.6798 1004.6961 1725.2914 1006.0903 1725.1641 1006.4707 C 1725.0367 1006.7881 1723.4441 1007.1679 1721.6602 1007.2949 C 1718.6018 1007.4852 1718.3477 1007.6135 1718.3477 1009.0723 C 1718.3477 1010.1508 1718.028 1010.5938 1717.0723 1010.5938 C 1716.1802 1010.5937 1715.7988 1011.037 1715.7988 1012.1152 C 1715.7988 1013.4471 1714.1422 1014.9067 1713.4414 1014.209 C 1713.314 1014.0187 1713.315 1010.9745 1713.3789 1007.3594 L 1713.5684 1000.7637 z M 1778.875 1001.0801 C 1779.9584 1001.0801 1780.1484 1001.5248 1780.1484 1004.252 C 1780.1484 1005.9644 1780.0219 1007.4219 1779.8945 1007.4219 C 1778.8751 1007.4219 1777.5996 1005.0756 1777.5996 1003.2363 C 1777.5996 1001.5236 1777.8556 1001.0801 1778.875 1001.0801 z M 1850.332 1001.2422 C 1850.7263 1001.2511 1850.8711 1001.5716 1850.8711 1002.2852 C 1850.8711 1003.4269 1850.4886 1003.6172 1848.3223 1003.6172 C 1845.519 1003.6172 1844.8816 1002.7299 1847.3027 1002.0957 C 1848.131 1001.9054 1849.2781 1001.5241 1849.8516 1001.334 C 1850.0427 1001.2706 1850.2006 1001.2392 1850.332 1001.2422 z M 1843.2754 1003.3203 C 1843.5203 1003.3639 1843.6385 1003.4586 1843.543 1003.6172 C 1843.3518 1003.9344 1842.3959 1004.252 1841.5039 1004.252 C 1840.5479 1004.252 1839.9761 1004.125 1840.1035 1003.998 C 1840.677 1003.5225 1842.5407 1003.1895 1843.2754 1003.3203 z M 1886.6777 1008.6914 C 1887.6333 1008.6914 1887.8242 1009.324 1887.8242 1012.5586 L 1887.8242 1016.3652 L 1878.2676 1015.9219 C 1868.7741 1015.4779 1868.709 1015.4777 1868.709 1016.873 C 1868.709 1018.0779 1868.3914 1018.2051 1864.25 1018.2051 L 1859.791 1018.2051 L 1859.791 1015.0332 C 1859.791 1011.3547 1858.3894 1011.8617 1874.7637 1009.959 C 1880.6889 1009.2613 1886.1043 1008.6914 1886.6777 1008.6914 z "
       transform="scale(0.26458333)" />
    <path
       d="m 148.18774,118.00804 c -0.1003,0.62187 -0.0702,2.53763 0.0401,2.53763 0.0602,0 0.1003,-0.55166 0.1003,-1.45437 0,-0.80241 -0.0201,-1.45437 -0.0401,-1.45437 -0.0201,0 -0.0602,0.17051 -0.1003,0.37111 z"
       id="path1759"
       style="fill:#000000;stroke:none;stroke-width:0.0100301" />
    <path
       d="m 112.78138,121.73925 c -0.0401,0.0702 -0.0502,0.15045 -0.0201,0.18054 0.0903,0.0903 0.19058,-0.0401 0.14043,-0.18054 -0.0401,-0.11033 -0.0602,-0.11033 -0.12037,0 z"
       id="path1761"
       style="fill:#000000;stroke:none;stroke-width:0.0100301" />
    <path
       d="m 109.75228,122.70214 c -0.18054,0.1304 -0.18054,0.14043 0.0401,0.0802 0.12037,-0.0301 0.25076,-0.0903 0.28085,-0.14042 0.0802,-0.14042 -0.1003,-0.11033 -0.32097,0.0602 z"
       id="path1763"
       style="fill:#000000;stroke:none;stroke-width:0.0100301" />
    <path
       d="m 110.16352,123.0532 c -0.0301,0.0502 -0.01,0.1003 0.0401,0.1003 0.0602,0 0.11033,-0.0501 0.11033,-0.1003 0,-0.0602 -0.0201,-0.1003 -0.0401,-0.1003 -0.0301,0 -0.0802,0.0401 -0.11033,0.1003 z"
       id="path1765"
       style="fill:#000000;stroke:none;stroke-width:0.0100301" />
    <path
       d="m 150.37431,124.14648 c 0.0301,0.18054 0.0602,0.37112 0.0602,0.42127 0,0.0502 0.0502,0.0903 0.1003,0.0903 0.11033,0 0.0301,-0.45136 -0.12036,-0.70211 -0.0602,-0.1003 -0.0802,-0.0401 -0.0401,0.19057 z"
       id="path1767"
       style="fill:#000000;stroke:none;stroke-width:0.0100301" />
    <rect
       style="opacity:1;fill:url(#linearGradient2210);stroke-width:4.55988;fill-opacity:1"
       id="rect2092"
       width="508"
       height="32.470173"
       x="0"
       y="253.27982" />
  </g>
</svg>
