<?xml version="1.0" encoding="UTF-8" standalone="no"?>
<!-- Created with Inkscape (http://www.inkscape.org/) -->

<svg
   width="1920"
   height="1080"
   viewBox="0 0 507.99999 285.75001"
   version="1.1"
   id="svg5"
   inkscape:version="1.1.2 (0a00cf5339, 2022-02-04)"
   sodipodi:docname="top_solid_notch.svg"
   xmlns:inkscape="http://www.inkscape.org/namespaces/inkscape"
   xmlns:sodipodi="http://sodipodi.sourceforge.net/DTD/sodipodi-0.dtd"
   xmlns="http://www.w3.org/2000/svg"
   xmlns:svg="http://www.w3.org/2000/svg">
  <sodipodi:namedview
     id="namedview7"
     pagecolor="#ffffff"
     bordercolor="#999999"
     borderopacity="1"
     inkscape:pageshadow="0"
     inkscape:pageopacity="0"
     inkscape:pagecheckerboard="0"
     inkscape:document-units="mm"
     showgrid="false"
     units="px"
     width="1920px"
     inkscape:snap-page="true"
     inkscape:zoom="0.37727624"
     inkscape:cx="914.44932"
     inkscape:cy="705.05368"
     inkscape:window-width="1920"
     inkscape:window-height="1019"
     inkscape:window-x="0"
     inkscape:window-y="0"
     inkscape:window-maximized="1"
     inkscape:current-layer="layer1"
     showguides="true">
    <inkscape:grid
       type="xygrid"
       id="grid1010" />
  </sodipodi:namedview>
  <defs
     id="defs2">
    <clipPath
       clipPathUnits="userSpaceOnUse"
       id="clipPath6148">
      <rect
         style="fill:#e6e6e6;stroke:none;stroke-width:2.11069;stroke-linecap:round;paint-order:markers fill stroke"
         id="rect6150"
         width="508"
         height="168.06055"
         x="-11.989936"
         y="264.11856" />
    </clipPath>
  </defs>
  <g
     inkscape:label="Layer 1"
     inkscape:groupmode="layer"
     id="layer1">
    <path
       id="rect10577"
       style="opacity:1;stroke-width:3.77953;stroke-linecap:round;paint-order:markers fill stroke"
       d="M 741.375 0 L 741.375 0.001953125 L 718.18555 0.001953125 C 718.58701 0.001953125 718.98649 0.011294094 719.38281 0.03125 C 719.77913 0.051205906 720.17177 0.08165438 720.5625 0.12109375 C 720.95319 0.1605369 721.34192 0.20913529 721.72656 0.26757812 C 722.11117 0.32602474 722.49303 0.39373305 722.87109 0.47070312 C 723.62723 0.62464328 724.36871 0.81584498 725.0957 1.0410156 C 725.8227 1.2661885 726.53448 1.5257835 727.22852 1.8183594 C 727.92255 2.1109364 728.59864 2.4368167 729.25586 2.7929688 C 729.91312 3.1491212 730.55134 3.5352709 731.16797 3.9511719 C 731.7846 4.367082 732.38094 4.8113813 732.95312 5.2832031 C 733.52531 5.7550261 734.07374 6.2534256 734.59766 6.7773438 C 735.12157 7.3012619 735.61996 7.8516424 736.0918 8.4238281 C 736.5636 8.9960142 737.00793 9.5904044 737.42383 10.207031 C 737.83973 10.823658 738.22784 11.461899 738.58398 12.119141 C 738.94002 12.776382 739.26602 13.452457 739.55859 14.146484 C 739.85113 14.840513 740.11075 15.552309 740.33594 16.279297 C 740.5612 17.006285 740.75032 17.749738 740.9043 18.505859 C 740.9814 18.883919 741.04922 19.26381 741.10742 19.648438 C 741.166 20.033063 741.21617 20.421787 741.25586 20.8125 C 741.29517 21.203214 741.32567 21.597817 741.3457 21.994141 C 741.3646 22.390463 741.375 22.788 741.375 23.189453 L 741.375 36.324219 C 741.375 36.725672 741.38629 37.123209 741.40625 37.519531 C 741.42621 37.915854 741.4547 38.310458 741.49414 38.701172 C 741.53358 39.091885 741.58413 39.480608 741.64258 39.865234 C 741.70102 40.249861 741.76873 40.629753 741.8457 41.007812 C 741.99965 41.763934 742.18889 42.507387 742.41406 43.234375 C 742.63923 43.961363 742.89883 44.673159 743.19141 45.367188 C 743.48398 46.061215 743.80986 46.73729 744.16602 47.394531 C 744.52217 48.051772 744.91027 48.690014 745.32617 49.306641 C 745.74207 49.923268 746.18638 50.517658 746.6582 51.089844 C 747.13003 51.66203 747.62843 52.21241 748.15234 52.736328 C 748.67626 53.260246 749.22469 53.758646 749.79688 54.230469 C 750.36905 54.702291 750.9654 55.146599 751.58203 55.5625 C 752.19866 55.978401 752.8369 56.364552 753.49414 56.720703 C 754.15138 57.076855 754.82746 57.402738 755.52148 57.695312 C 756.21551 57.987888 756.92731 58.247484 757.6543 58.472656 C 758.38129 58.697828 759.12278 58.889027 759.87891 59.042969 C 760.25697 59.11994 760.63881 59.187648 761.02344 59.246094 C 761.40806 59.304539 761.79679 59.353136 762.1875 59.392578 C 762.57821 59.43202 762.97086 59.462462 763.36719 59.482422 C 763.76351 59.502382 764.163 59.511719 764.56445 59.511719 L 1155.4355 59.511719 C 1155.837 59.511719 1156.2365 59.502382 1156.6328 59.482422 C 1157.0291 59.462462 1157.4218 59.43202 1157.8125 59.392578 C 1158.2032 59.353136 1158.5919 59.304539 1158.9766 59.246094 C 1159.3612 59.187648 1159.743 59.11994 1160.1211 59.042969 C 1160.8772 58.889027 1161.6187 58.697828 1162.3457 58.472656 C 1163.0727 58.247484 1163.7845 57.987888 1164.4785 57.695312 C 1165.1725 57.402738 1165.8486 57.076855 1166.5059 56.720703 C 1167.1631 56.364552 1167.8013 55.978401 1168.418 55.5625 C 1169.0346 55.146599 1169.6309 54.702291 1170.2031 54.230469 C 1170.7753 53.758646 1171.3237 53.260246 1171.8477 52.736328 C 1172.3716 52.21241 1172.87 51.66203 1173.3418 51.089844 C 1173.8136 50.517658 1174.2579 49.923268 1174.6738 49.306641 C 1175.0897 48.690014 1175.4778 48.051772 1175.834 47.394531 C 1176.1901 46.73729 1176.516 46.061215 1176.8086 45.367188 C 1177.1012 44.673159 1177.3608 43.961363 1177.5859 43.234375 C 1177.8111 42.507387 1178.0004 41.763934 1178.1543 41.007812 C 1178.2313 40.629753 1178.299 40.249861 1178.3574 39.865234 C 1178.4159 39.480608 1178.4664 39.091885 1178.5059 38.701172 C 1178.5453 38.310458 1178.5738 37.915854 1178.5938 37.519531 C 1178.6136 37.123209 1178.625 36.725672 1178.625 36.324219 L 1178.625 23.189453 L 1178.625 0.001953125 L 1178.625 0 L 1155.4355 0 L 764.56445 0 L 741.375 0 z M 1178.625 0.001953125 L 1178.627 23.189453 C 1178.627 22.788 1178.6374 22.390463 1178.6562 21.994141 C 1178.6751 21.597817 1178.7045 21.203214 1178.7441 20.8125 C 1178.7834 20.421787 1178.8359 20.033063 1178.8945 19.648438 C 1178.9531 19.26381 1179.019 18.883919 1179.0957 18.505859 C 1179.2495 17.749738 1179.4388 17.006285 1179.6641 16.279297 C 1179.8893 15.552309 1180.1488 14.840513 1180.4414 14.146484 C 1180.7339 13.452457 1181.0599 12.776382 1181.416 12.119141 C 1181.772 11.461899 1182.1603 10.823658 1182.5762 10.207031 C 1182.9921 9.5904044 1183.4364 8.9960142 1183.9082 8.4238281 C 1184.38 7.8516424 1184.8784 7.3012619 1185.4023 6.7773438 C 1185.9263 6.2534256 1186.4747 5.7550261 1187.0469 5.2832031 C 1187.6191 4.8113813 1188.2154 4.367073 1188.832 3.9511719 C 1189.4487 3.5352709 1190.087 3.1491197 1190.7441 2.7929688 C 1191.4014 2.4368163 1192.0774 2.1109345 1192.7715 1.8183594 C 1193.4655 1.5257824 1194.1773 1.2661874 1194.9043 1.0410156 C 1195.6313 0.81584271 1196.3728 0.62464517 1197.1289 0.47070312 C 1197.507 0.39373305 1197.8888 0.32602096 1198.2734 0.26757812 C 1198.6581 0.20913151 1199.0468 0.16053312 1199.4375 0.12109375 C 1199.8282 0.0816506 1200.2209 0.051209685 1200.6172 0.03125 C 1201.0135 0.011294094 1201.413 0.001953125 1201.8145 0.001953125 L 1178.625 0.001953125 z M 759.87891 0.46875 C 759.12278 0.62269163 758.38129 0.81389059 757.6543 1.0390625 C 756.92731 1.2642344 756.21551 1.5238312 755.52148 1.8164062 C 754.82746 2.1089814 754.15138 2.4348642 753.49414 2.7910156 C 752.8369 3.147167 752.19866 3.5333182 751.58203 3.9492188 C 750.9654 4.3651192 750.36905 4.8113804 749.79688 5.2832031 C 749.22469 5.7550259 748.67626 6.2534259 748.15234 6.7773438 C 747.62843 7.3012615 747.13003 7.849689 746.6582 8.421875 C 746.18638 8.994061 745.74207 9.5904045 745.32617 10.207031 C 744.91027 10.823658 744.52217 11.459946 744.16602 12.117188 C 743.80986 12.774428 743.48398 13.452456 743.19141 14.146484 C 742.89883 14.840512 742.63923 15.550356 742.41406 16.277344 C 742.18889 17.004332 741.99965 17.747785 741.8457 18.503906 C 741.99965 17.747785 742.18889 17.004332 742.41406 16.277344 C 742.63923 15.550356 742.89883 14.840512 743.19141 14.146484 C 743.48398 13.452456 743.80986 12.774428 744.16602 12.117188 C 744.52217 11.459946 744.91027 10.823658 745.32617 10.207031 C 745.74207 9.5904045 746.18638 8.994061 746.6582 8.421875 C 747.13003 7.849689 747.62843 7.3012615 748.15234 6.7773438 C 748.67626 6.2534259 749.22469 5.7550259 749.79688 5.2832031 C 750.36905 4.8113804 750.9654 4.3651192 751.58203 3.9492188 C 752.19866 3.5333182 752.8369 3.147167 753.49414 2.7910156 C 754.15138 2.4348642 754.82746 2.1089814 755.52148 1.8164062 C 756.21551 1.5238312 756.92731 1.2642344 757.6543 1.0390625 C 758.38129 0.81389059 759.12278 0.62269163 759.87891 0.46875 z M 1160.1211 0.46875 C 1160.8772 0.62269163 1161.6187 0.81389059 1162.3457 1.0390625 C 1163.0727 1.2642344 1163.7845 1.5238312 1164.4785 1.8164062 C 1165.1725 2.1089814 1165.8486 2.4348642 1166.5059 2.7910156 C 1167.1631 3.147167 1167.8013 3.5333182 1168.418 3.9492188 C 1169.0346 4.3651192 1169.6309 4.8113804 1170.2031 5.2832031 C 1170.7753 5.7550259 1171.3237 6.2534259 1171.8477 6.7773438 C 1172.3716 7.3012615 1172.87 7.849689 1173.3418 8.421875 C 1173.8136 8.994061 1174.2579 9.5904045 1174.6738 10.207031 C 1175.0897 10.823658 1175.4778 11.459946 1175.834 12.117188 C 1176.1901 12.774428 1176.516 13.452456 1176.8086 14.146484 C 1177.1012 14.840512 1177.3608 15.550356 1177.5859 16.277344 C 1177.8111 17.004332 1178.0004 17.747785 1178.1543 18.503906 C 1178.0004 17.747785 1177.8111 17.004332 1177.5859 16.277344 C 1177.3608 15.550356 1177.1012 14.840512 1176.8086 14.146484 C 1176.516 13.452456 1176.1901 12.774428 1175.834 12.117188 C 1175.4778 11.459946 1175.0897 10.823658 1174.6738 10.207031 C 1174.2579 9.5904045 1173.8136 8.994061 1173.3418 8.421875 C 1172.87 7.849689 1172.3716 7.3012615 1171.8477 6.7773438 C 1171.3237 6.2534259 1170.7753 5.7550259 1170.2031 5.2832031 C 1169.6309 4.8113804 1169.0346 4.3651192 1168.418 3.9492188 C 1167.8013 3.5333182 1167.1631 3.147167 1166.5059 2.7910156 C 1165.8486 2.4348642 1165.1725 2.1089814 1164.4785 1.8164062 C 1163.7845 1.5238312 1163.0727 1.2642344 1162.3457 1.0390625 C 1161.6187 0.81389059 1160.8772 0.62269163 1160.1211 0.46875 z "
       transform="scale(0.26458333)" />
  </g>
</svg>
