<?xml version="1.0" encoding="UTF-8" standalone="no"?>
<!-- Created with Inkscape (http://www.inkscape.org/) -->

<svg
   width="1920"
   height="1080"
   viewBox="0 0 507.99999 285.75001"
   version="1.1"
   id="svg5"
   inkscape:version="1.1.2 (0a00cf5339, 2022-02-04)"
   sodipodi:docname="bottom_paper_tear.svg"
   xmlns:inkscape="http://www.inkscape.org/namespaces/inkscape"
   xmlns:sodipodi="http://sodipodi.sourceforge.net/DTD/sodipodi-0.dtd"
   xmlns:xlink="http://www.w3.org/1999/xlink"
   xmlns="http://www.w3.org/2000/svg"
   xmlns:svg="http://www.w3.org/2000/svg">
  <sodipodi:namedview
     id="namedview7"
     pagecolor="#ffffff"
     bordercolor="#999999"
     borderopacity="1"
     inkscape:pageshadow="0"
     inkscape:pageopacity="0"
     inkscape:pagecheckerboard="0"
     inkscape:document-units="mm"
     showgrid="false"
     units="px"
     width="1920px"
     inkscape:snap-page="true"
     inkscape:zoom="0.5"
     inkscape:cx="894"
     inkscape:cy="659"
     inkscape:window-width="1920"
     inkscape:window-height="1026"
     inkscape:window-x="0"
     inkscape:window-y="0"
     inkscape:window-maximized="1"
     inkscape:current-layer="layer1"
     showguides="false" />
  <defs
     id="defs2">
    <linearGradient
       inkscape:collect="always"
       id="linearGradient2335">
      <stop
         style="stop-color:#000000;stop-opacity:1"
         offset="0"
         id="stop2331" />
      <stop
         style="stop-color:#0000ff;stop-opacity:0;"
         offset="1"
         id="stop2333" />
    </linearGradient>
    <radialGradient
       inkscape:collect="always"
       xlink:href="#linearGradient2335"
       id="radialGradient2337"
       cx="222.70319"
       cy="-76.908104"
       fx="222.70319"
       fy="-76.908104"
       r="254.001"
       gradientTransform="matrix(3.3088829e-5,0.09251875,-1.2434045,0,155.03233,241.64592)"
       gradientUnits="userSpaceOnUse" />
  </defs>
  <g
     inkscape:label="Layer 1"
     inkscape:groupmode="layer"
     id="layer1">
    <path
       style="fill:#0000ff;stroke:none;stroke-width:0.10749px;stroke-linecap:butt;stroke-linejoin:miter;stroke-opacity:1"
       d="m 306.51772,263.07083 c -1.35061,0.003 -2.70049,0.0191 -3.27268,0.038 -0.59825,0.0197 -1.04516,0.11052 -1.63711,0.1349 -3.32102,0.13686 -7.24617,-0.0799 -10.6412,0 -4.41375,0.10394 -11.49323,0.40198 -13.09687,0.26981 -0.34515,-0.0285 -0.45299,-0.11479 -0.81907,-0.13491 -0.51777,-0.0284 -1.1194,0.0285 -1.63711,0 -0.36608,-0.0201 -0.47339,-0.10645 -0.81857,-0.1349 -0.73604,-0.0607 -9.45123,0.3393 -10.64172,0.40471 -0.57881,-0.0318 -1.09139,-0.0899 -1.63711,-0.1349 -0.4067,-0.0335 -1.68587,-0.18925 -2.45514,-0.13491 -1.68242,0.11885 -3.17488,0.3093 -4.91133,0.40471 -3.19701,0.17566 -9.83937,-0.17902 -13.09739,0 -0.57883,0.0318 -1.09139,0.0902 -1.63711,0.13519 -0.54568,0 -1.11939,-0.0285 -1.63711,0 -0.73215,0.0402 -0.86534,0.26981 -1.63711,0.26981 -0.38587,0 -0.49801,-0.0999 -0.81907,-0.13519 -0.86211,-0.0947 -3.24522,-0.24986 -4.09226,-0.26981 -1.34052,-0.0316 -7.81422,-0.0981 -9.00462,0 -0.34514,0.0285 -0.49748,0.0999 -0.81855,0.13519 -1.96854,0.21632 -4.29188,0.13462 -6.54844,0.13462 -0.81856,0 -1.77509,0.0748 -2.45618,0 -2.09062,-0.22974 -3.09592,-0.7009 -5.72936,-0.80942 -2.07768,-0.0856 -5.36684,0 -7.36752,0 h -17.18964 c -1.60372,0 -2.54633,0.30271 -4.09329,0.40471 -1.54125,0.10162 -2.94348,-0.14914 -4.09226,0.1349 -0.21531,0.0532 -0.2817,0.0736 -0.42788,0.11156 -0.36778,0.0379 -1.17768,0.15321 -2.84685,0.42834 -0.64214,-0.0706 -1.03447,-0.19062 -1.63711,-0.27009 -0.76821,-0.10131 -1.50971,-0.22526 -2.45567,-0.26981 -0.79068,-0.0373 -1.62711,-0.0205 -2.45928,-0.009 -0.0155,-0.15619 -0.37059,-0.10775 -0.80667,0.009 -0.003,0 -0.006,0 -0.009,0 0.001,0 0.006,3e-4 0.007,3e-4 -0.67183,0.17991 -1.533,0.52088 -1.64486,0.53932 -1.12499,0.18544 -2.62989,0.30169 -4.09226,0.40499 -1.03985,0.0735 -7.36183,0.034 -8.18554,0 -1.39617,-0.0575 -0.54798,-0.27094 -0.81907,-0.40499 -0.17481,-0.0865 -3.18577,-0.53377 -3.27422,-0.53961 -0.76001,-0.0501 -1.63709,0 -2.45567,0 -1.36428,0 -2.87304,-0.10057 -4.09329,0 -5.72313,0.47168 -5.30503,0.6748 -11.45976,0.6748 -0.55019,0 -1.97204,0.0398 -2.45515,0 -1.49337,-0.12308 -6.86585,-1.26402 -7.36751,-1.21441 -1.32354,0.1309 -2.06945,0.38067 -3.27473,0.53961 -0.93164,0.12285 -3.44584,-0.0994 -4.09226,-0.1349 -1.81198,-0.0996 -3.82039,0 -5.7304,0 h -4.09226 c -0.27287,0 -0.62612,-0.0318 -0.81907,0 -0.600129,0.0989 -2.41153,0.81307 -4.092772,0.67451 -1.28588,-0.10598 -2.814659,-0.64926 -3.274219,-0.67451 -2.035625,-0.11185 -5.098399,-0.0263 -7.400581,-0.007 -0.08586,-0.0266 -0.537559,0.007 -0.784966,0.007 h -3.274218 c -4.020593,0 -2.282436,-0.0115 -6.548438,0.2698 -0.253333,0.0167 -0.575027,-0.0201 -0.81907,0 -0.345131,0.0285 -0.472901,0.10646 -0.818039,0.1349 -0.244046,0.0201 -0.592048,-0.0249 -0.819071,0 -0.642146,0.0706 -0.994965,0.19924 -1.637109,0.26981 -1.435867,0.15778 -3.274184,-0.17986 -4.911328,-0.26981 -3.951864,-0.21713 -10.90834,0.24782 -12.27832,0.13491 -2.266477,-0.1868 -4.317323,-0.67452 -7.367511,-0.67452 -0.756761,0 -1.714349,0.36397 -2.455664,0.40471 -0.119819,0.007 -4.072594,0.13327 -4.093289,0.1349 -1.637133,0.13494 -2.455135,0.53988 -4.092258,0.6748 -1.504521,0.124 -1.326269,-0.23906 -1.637109,-0.2698 -1.259986,-0.12461 -2.667786,-0.21135 -4.093289,-0.27009 -1.323549,-0.0546 -2.797985,0.0711 -4.092257,0 -0.366078,-0.0201 -0.47393,-0.10646 -0.819072,-0.13491 -1.220258,-0.10056 -2.798495,-0.0711 -4.092773,0 -0.732152,0.0402 -0.927754,0.21969 -1.63711,0.26981 -1.278808,0.0903 -2.848868,0.0326 -4.09329,0.13519 -0.545718,0.045 -0.207903,0.2698 -0.818038,0.2698 -0.771761,0 -0.946827,-0.21291 -1.637109,-0.2698 -1.484507,-0.12235 -3.426821,-0.25754 -4.911328,-0.13519 -0.3451392,0.0284 -0.4529899,0.11507 -0.8190714,0.13519 -1.4803366,0.0813 -5.441411,-0.13876 -6.83834213,0.0568 -0.14958519,0.0209 8.4852e-4,0.98994 -0.083715819,1.02128 H 0 c 0.00748987,0.012 0.00692533,0.33431 0.00826823,0.64223 H 0 V 285.75 H 508.00103 V 266.17848 L 1.153418,265.5377 507.99999,266.1782 c -0.0177,-0.0285 0.006,-1.48856 -0.0419,-1.52169 -0.57124,-0.3952 -3.1994,-1.08743 -5.79964,-0.87312 -1.13044,0.0932 -2.38898,0.66001 -2.45618,0.6748 -0.2748,0.0604 -2.99879,0.11222 -3.27422,0.1349 -0.6903,0.0569 -0.99499,0.19925 -1.63711,0.26981 -0.68112,0.0748 -1.63701,0 -2.45568,0 -5.19149,0 -1.97895,-0.0819 -6.54844,-0.40471 -5.47475,-0.38676 -9.18104,0.24059 -13.91594,-0.5399 -0.19294,-0.0318 0.12205,-0.0947 0,-0.1349 -0.63688,-0.20996 -2.84673,-0.40471 -4.09276,-0.40471 -0.3859,0 -0.51724,0.0952 -0.81857,0.13491 -1.06529,0.14048 -2.02803,0.31337 -3.27472,0.4047 -1.96215,0.14375 -3.17183,0.13491 -4.91133,0.13491 -1.85338,0 -7.0344,0.0949 -8.18555,0 -0.87995,-0.0725 -1.75953,-0.15514 -2.45514,-0.26981 -0.99698,-0.16434 -0.38394,-0.30138 -1.63764,-0.40471 -1.89392,-0.15609 -5.1902,0.0598 -7.36698,0 -2.22721,-0.0612 -3.46035,-0.1349 -5.7299,-0.1349 H 429.305 c -0.81856,0 -1.69508,-0.0501 -2.45514,0 -0.71655,0.0472 -0.96703,0.2067 -1.63711,0.26981 -1.2758,0.12017 -2.71746,0.18476 -4.09329,0.2698 -0.80791,0.0499 -1.5928,0.1349 -2.45565,0.1349 -0.61013,0 -1.05828,-0.10309 -1.63711,-0.1349 -4.20082,-0.23081 -9.49995,0.12132 -13.91595,0 -2.62345,-0.0721 -3.55968,-0.33044 -4.91133,-0.40471 -2.13182,-0.11713 -5.39202,0.16277 -7.367,0 -0.87995,-0.0725 -1.50178,-0.23047 -2.45618,-0.2698 -1.32355,-0.0546 -2.72799,0 -4.09226,0 -0.81857,0 -1.72403,-0.0603 -2.45618,0 -0.69027,0.0569 -0.90495,0.22958 -1.63711,0.2698 -1.44515,0.0794 -4.82854,0 -6.54844,0 -2.08028,0 -10.06107,-0.11532 -11.46026,0 -3.82001,0.31484 2.18289,-0.045 -1.63711,0.26981 -0.41101,0.0339 -18.35865,0.0257 -18.82678,0 -1.33008,-0.0731 -1.61771,-0.33645 -3.27421,-0.40471 -5.27521,-0.21738 -4.70829,0.18554 -7.36751,0.40471 -1.70209,0.14028 -4.65492,-0.078 -6.54844,0 -0.59193,0.0244 -1.05831,0.1031 -1.63711,0.1349 -0.24712,0.0136 -6.24118,-0.24447 -6.54844,-0.2698 -0.34515,-0.0285 -0.47344,-0.10646 -0.81856,-0.13491 -0.74952,-0.0618 -3.66742,0.0176 -4.09329,0 0,-2e-5 -1.63711,-0.26977 -1.63711,-0.2698 -0.57402,-0.0315 -1.92519,-0.0412 -3.27576,-0.038 z"
       id="path1068" />
    <path
       style="fill:url(#radialGradient2337);stroke:none;stroke-width:0.10749px;stroke-linecap:butt;stroke-linejoin:miter;stroke-opacity:1;fill-opacity:1"
       d="m 306.51772,263.07083 c -1.35061,0.003 -2.70049,0.0191 -3.27268,0.038 -0.59825,0.0197 -1.04516,0.11052 -1.63711,0.1349 -3.32102,0.13686 -7.24617,-0.0799 -10.6412,0 -4.41375,0.10394 -11.49323,0.40198 -13.09687,0.26981 -0.34515,-0.0285 -0.45299,-0.11479 -0.81907,-0.13491 -0.51777,-0.0284 -1.1194,0.0285 -1.63711,0 -0.36608,-0.0201 -0.47339,-0.10645 -0.81857,-0.1349 -0.73604,-0.0607 -9.45123,0.3393 -10.64172,0.40471 -0.57881,-0.0318 -1.09139,-0.0899 -1.63711,-0.1349 -0.4067,-0.0335 -1.68587,-0.18925 -2.45514,-0.13491 -1.68242,0.11885 -3.17488,0.3093 -4.91133,0.40471 -3.19701,0.17566 -9.83937,-0.17902 -13.09739,0 -0.57883,0.0318 -1.09139,0.0902 -1.63711,0.13519 -0.54568,0 -1.11939,-0.0285 -1.63711,0 -0.73215,0.0402 -0.86534,0.26981 -1.63711,0.26981 -0.38587,0 -0.49801,-0.0999 -0.81907,-0.13519 -0.86211,-0.0947 -3.24522,-0.24986 -4.09226,-0.26981 -1.34052,-0.0316 -7.81422,-0.0981 -9.00462,0 -0.34514,0.0285 -0.49748,0.0999 -0.81855,0.13519 -1.96854,0.21632 -4.29188,0.13462 -6.54844,0.13462 -0.81856,0 -1.77509,0.0748 -2.45618,0 -2.09062,-0.22974 -3.09592,-0.7009 -5.72936,-0.80942 -2.07768,-0.0856 -5.36684,0 -7.36752,0 h -17.18964 c -1.60372,0 -2.54633,0.30271 -4.09329,0.40471 -1.54125,0.10162 -2.94348,-0.14914 -4.09226,0.1349 -0.21531,0.0532 -0.2817,0.0736 -0.42788,0.11156 -0.36778,0.0379 -1.17768,0.15321 -2.84685,0.42834 -0.64214,-0.0706 -1.03447,-0.19062 -1.63711,-0.27009 -0.76821,-0.10131 -1.50971,-0.22526 -2.45567,-0.26981 -0.79068,-0.0373 -1.62711,-0.0205 -2.45928,-0.009 -0.0155,-0.15619 -0.37059,-0.10775 -0.80667,0.009 -0.003,0 -0.006,0 -0.009,0 0.001,0 0.006,3e-4 0.007,3e-4 -0.67183,0.17991 -1.533,0.52088 -1.64486,0.53932 -1.12499,0.18544 -2.62989,0.30169 -4.09226,0.40499 -1.03985,0.0735 -7.36183,0.034 -8.18554,0 -1.39617,-0.0575 -0.54798,-0.27094 -0.81907,-0.40499 -0.17481,-0.0865 -3.18577,-0.53377 -3.27422,-0.53961 -0.76001,-0.0501 -1.63709,0 -2.45567,0 -1.36428,0 -2.87304,-0.10057 -4.09329,0 -5.72313,0.47168 -5.30503,0.6748 -11.45976,0.6748 -0.55019,0 -1.97204,0.0398 -2.45515,0 -1.49337,-0.12308 -6.86585,-1.26402 -7.36751,-1.21441 -1.32354,0.1309 -2.06945,0.38067 -3.27473,0.53961 -0.93164,0.12285 -3.44584,-0.0994 -4.09226,-0.1349 -1.81198,-0.0996 -3.82039,0 -5.7304,0 h -4.09226 c -0.27287,0 -0.62612,-0.0318 -0.81907,0 -0.600129,0.0989 -2.41153,0.81307 -4.092772,0.67451 -1.28588,-0.10598 -2.814659,-0.64926 -3.274219,-0.67451 -2.035625,-0.11185 -5.098399,-0.0263 -7.400581,-0.007 -0.08586,-0.0266 -0.537559,0.007 -0.784966,0.007 h -3.274218 c -4.020593,0 -2.282436,-0.0115 -6.548438,0.2698 -0.253333,0.0167 -0.575027,-0.0201 -0.81907,0 -0.345131,0.0285 -0.472901,0.10646 -0.818039,0.1349 -0.244046,0.0201 -0.592048,-0.0249 -0.819071,0 -0.642146,0.0706 -0.994965,0.19924 -1.637109,0.26981 -1.435867,0.15778 -3.274184,-0.17986 -4.911328,-0.26981 -3.951864,-0.21713 -10.90834,0.24782 -12.27832,0.13491 -2.266477,-0.1868 -4.317323,-0.67452 -7.367511,-0.67452 -0.756761,0 -1.714349,0.36397 -2.455664,0.40471 -0.119819,0.007 -4.072594,0.13327 -4.093289,0.1349 -1.637133,0.13494 -2.455135,0.53988 -4.092258,0.6748 -1.504521,0.124 -1.326269,-0.23906 -1.637109,-0.2698 -1.259986,-0.12461 -2.667786,-0.21135 -4.093289,-0.27009 -1.323549,-0.0546 -2.797985,0.0711 -4.092257,0 -0.366078,-0.0201 -0.47393,-0.10646 -0.819072,-0.13491 -1.220258,-0.10056 -2.798495,-0.0711 -4.092773,0 -0.732152,0.0402 -0.927754,0.21969 -1.63711,0.26981 -1.278808,0.0903 -2.848868,0.0326 -4.09329,0.13519 -0.545718,0.045 -0.207903,0.2698 -0.818038,0.2698 -0.771761,0 -0.946827,-0.21291 -1.637109,-0.2698 -1.484507,-0.12235 -3.426821,-0.25754 -4.911328,-0.13519 -0.3451392,0.0284 -0.4529899,0.11507 -0.8190714,0.13519 -1.4803366,0.0813 -5.441411,-0.13876 -6.83834213,0.0568 -0.14958519,0.0209 8.4852e-4,0.98994 -0.083715819,1.02128 H 0 c 0.00748987,0.012 0.00692533,0.33431 0.00826823,0.64223 H 0 V 285.75 H 508.00103 V 266.17848 L 1.153418,265.5377 507.99999,266.1782 c -0.0177,-0.0285 0.006,-1.48856 -0.0419,-1.52169 -0.57124,-0.3952 -3.1994,-1.08743 -5.79964,-0.87312 -1.13044,0.0932 -2.38898,0.66001 -2.45618,0.6748 -0.2748,0.0604 -2.99879,0.11222 -3.27422,0.1349 -0.6903,0.0569 -0.99499,0.19925 -1.63711,0.26981 -0.68112,0.0748 -1.63701,0 -2.45568,0 -5.19149,0 -1.97895,-0.0819 -6.54844,-0.40471 -5.47475,-0.38676 -9.18104,0.24059 -13.91594,-0.5399 -0.19294,-0.0318 0.12205,-0.0947 0,-0.1349 -0.63688,-0.20996 -2.84673,-0.40471 -4.09276,-0.40471 -0.3859,0 -0.51724,0.0952 -0.81857,0.13491 -1.06529,0.14048 -2.02803,0.31337 -3.27472,0.4047 -1.96215,0.14375 -3.17183,0.13491 -4.91133,0.13491 -1.85338,0 -7.0344,0.0949 -8.18555,0 -0.87995,-0.0725 -1.75953,-0.15514 -2.45514,-0.26981 -0.99698,-0.16434 -0.38394,-0.30138 -1.63764,-0.40471 -1.89392,-0.15609 -5.1902,0.0598 -7.36698,0 -2.22721,-0.0612 -3.46035,-0.1349 -5.7299,-0.1349 H 429.305 c -0.81856,0 -1.69508,-0.0501 -2.45514,0 -0.71655,0.0472 -0.96703,0.2067 -1.63711,0.26981 -1.2758,0.12017 -2.71746,0.18476 -4.09329,0.2698 -0.80791,0.0499 -1.5928,0.1349 -2.45565,0.1349 -0.61013,0 -1.05828,-0.10309 -1.63711,-0.1349 -4.20082,-0.23081 -9.49995,0.12132 -13.91595,0 -2.62345,-0.0721 -3.55968,-0.33044 -4.91133,-0.40471 -2.13182,-0.11713 -5.39202,0.16277 -7.367,0 -0.87995,-0.0725 -1.50178,-0.23047 -2.45618,-0.2698 -1.32355,-0.0546 -2.72799,0 -4.09226,0 -0.81857,0 -1.72403,-0.0603 -2.45618,0 -0.69027,0.0569 -0.90495,0.22958 -1.63711,0.2698 -1.44515,0.0794 -4.82854,0 -6.54844,0 -2.08028,0 -10.06107,-0.11532 -11.46026,0 -3.82001,0.31484 2.18289,-0.045 -1.63711,0.26981 -0.41101,0.0339 -18.35865,0.0257 -18.82678,0 -1.33008,-0.0731 -1.61771,-0.33645 -3.27421,-0.40471 -5.27521,-0.21738 -4.70829,0.18554 -7.36751,0.40471 -1.70209,0.14028 -4.65492,-0.078 -6.54844,0 -0.59193,0.0244 -1.05831,0.1031 -1.63711,0.1349 -0.24712,0.0136 -6.24118,-0.24447 -6.54844,-0.2698 -0.34515,-0.0285 -0.47344,-0.10646 -0.81856,-0.13491 -0.74952,-0.0618 -3.66742,0.0176 -4.09329,0 0,-2e-5 -1.63711,-0.26977 -1.63711,-0.2698 -0.57402,-0.0315 -1.92519,-0.0412 -3.27576,-0.038 z"
       id="path1557" />
    <path
       id="path1469"
       style="fill:#ffffff;stroke:none;stroke-width:0.0626104px;stroke-linecap:butt;stroke-linejoin:miter;stroke-opacity:1"
       d="m 405.36098,261.61309 c -0.45222,-0.003 -0.90434,0.006 -1.09655,0.0383 0,3e-5 -0.5481,0.27324 -0.54831,0.27326 -0.14259,0.0178 -1.11972,-0.0626 -1.37069,0 -0.11557,0.0288 -0.15802,0.10808 -0.27359,0.13692 -0.10292,0.0257 -2.11038,0.28699 -2.19314,0.27326 -0.19381,-0.0322 -0.35007,-0.11192 -0.54828,-0.13663 -0.63407,-0.0791 -1.62262,0.14214 -2.19259,0 -0.89045,-0.22206 -0.70085,-0.63043 -2.46728,-0.41018 -0.55469,0.0692 -0.65121,0.33614 -1.09657,0.41018 -0.15677,0.026 -6.16654,0.0343 -6.30415,0 -1.27914,-0.31899 0.73142,0.0455 -0.54773,-0.27355 -0.46853,-0.11684 -3.14084,0 -3.83742,0 -0.57592,0 -1.70922,0.0804 -2.19314,0 -0.24517,-0.0408 -0.31715,-0.21562 -0.54828,-0.27326 -0.24517,-0.0611 -0.54834,0 -0.82245,0 -0.45681,0 -0.92693,-0.0553 -1.37014,0 -0.31958,0.0398 -0.52778,0.19978 -0.82242,0.27326 -0.66132,0.16493 -1.75286,-0.11869 -2.46673,0 -0.45261,0.0752 -0.76639,0.33716 -1.64484,0.41018 -1.47872,0.12293 -3.25321,-0.23385 -4.65987,0 -0.19383,0.0322 -0.34399,0.13663 -0.54828,0.13663 -0.28892,0 -0.55134,-0.086 -0.82187,-0.13663 -0.46072,-0.0862 -0.94352,-0.1515 -1.37072,-0.27326 -0.22437,-0.064 -0.30833,-0.22569 -0.54828,-0.27355 -0.25451,-0.0508 -0.54833,0 -0.82241,0 h -1.37018 c -0.75995,0 -1.1732,0.0746 -1.91897,0.13663 -0.72892,0.0606 -1.83256,-0.15816 -2.46673,0 -0.41981,0.10469 -0.21446,0.24368 -0.54828,0.41018 -0.23292,0.11619 -0.52722,0.1998 -0.82187,0.27327 -0.38546,0.0961 -2.12081,0 -2.74141,0 -0.5825,0 -0.98729,0.009 -1.64432,-0.13664 -0.41746,-0.0925 -0.73983,-0.26755 -1.09655,-0.40989 -0.10095,-0.0403 -0.14493,-0.13692 -0.27414,-0.13692 -0.41723,0 -1.15746,0.19746 -1.37073,0.41018 -0.0409,0.0408 0.0647,0.10445 0,0.13663 -1.58547,0.79081 -2.82662,0.15524 -4.65985,0.54711 -1.5301,0.32707 -0.45416,0.4099 -2.19259,0.4099 -0.2741,0 -0.59435,0.0758 -0.82241,0 -0.21504,-0.0715 -0.31657,-0.21562 -0.54773,-0.27327 -0.0922,-0.023 -1.00451,-0.0754 -1.09656,-0.13663 -0.0225,-0.015 -0.44393,-0.58934 -0.82244,-0.68374 -0.75848,-0.18914 -1.52336,0.31843 -1.83461,0.71718 -0.4913,0.0187 -1.00921,0.0635 -1.28008,0.0185 -0.12257,-0.0204 -0.15857,-0.10779 -0.27414,-0.13663 -0.49709,-0.12397 -1.14721,0.0127 -1.6443,0.13663 -0.23114,0.0576 -0.28984,0.27356 -0.54828,0.27356 -0.20431,0 -0.0914,-0.22798 -0.27415,-0.27356 -0.41669,-0.10394 -0.9425,-0.0451 -1.37069,-0.13663 -0.23754,-0.0508 -0.30256,-0.23254 -0.54773,-0.27326 -0.43341,-0.072 -0.96211,-0.1019 -1.37073,0 -0.11555,0.0288 -0.15155,0.11622 -0.27413,0.13663 -0.43338,0.0721 -0.92751,-0.0553 -1.37073,0 -0.47731,0.0595 -0.94821,0.147 -1.37014,0.27326 -0.10413,0.0311 -0.0445,0.3992 -0.54828,0.27356 -0.54819,-0.13672 -0.8225,-0.54674 -1.37073,-0.68345 -0.007,-0.002 -1.33,-0.13023 -1.37014,-0.13692 -0.24822,-0.0413 -0.56901,-0.41019 -0.82242,-0.41019 -1.02136,0 -1.70834,0.49447 -2.46727,0.68374 -0.45876,0.11441 -2.78829,-0.35664 -4.11158,-0.13663 -0.54821,0.0911 -1.16348,0.43313 -1.6443,0.27326 -0.21501,-0.0715 -0.33325,-0.20176 -0.54828,-0.27326 -0.0761,-0.0253 -0.19239,0.0204 -0.27414,0 -0.11557,-0.0288 -0.15858,-0.10808 -0.27415,-0.13692 -0.0817,-0.0204 -0.18931,0.017 -0.27413,0 -1.42849,-0.28503 -0.84628,-0.27327 -2.19259,-0.27327 h -1.09656 c -0.0829,0 -0.23412,-0.0341 -0.26283,-0.007 -0.77088,-0.0193 -1.79642,-0.10611 -2.47804,0.007 -0.15387,0.0256 -0.66598,0.57607 -1.09659,0.68345 -0.56295,0.14039 -1.16917,-0.58322 -1.37014,-0.68345 -0.0646,-0.0322 -0.18328,0 -0.27469,0 h -1.37014 c -0.63957,0 -1.31226,-0.10087 -1.919,0 -0.21647,0.036 -1.0582,0.26082 -1.37015,0.13634 -0.40359,-0.16104 -0.65338,-0.41389 -1.09659,-0.54652 -0.16797,-0.0503 -1.96664,1.10555 -2.46669,1.23026 -0.16179,0.0403 -0.63821,0 -0.82245,0 -2.06093,0 -1.92103,-0.20582 -3.83743,-0.68374 -0.40861,-0.1019 -0.91389,0 -1.37072,0 -0.27408,0 -0.56736,-0.0508 -0.82186,0 -0.0296,0.006 -1.03803,0.45952 -1.09657,0.54711 -0.0908,0.13582 0.19338,0.3519 -0.27414,0.41019 -0.27582,0.0344 -2.39266,0.0744 -2.74086,0 -0.48968,-0.10468 -0.99401,-0.2223 -1.37071,-0.41019 -0.0375,-0.0187 -0.32559,-0.36453 -0.55055,-0.54682 0,0 0.002,-2.9e-4 0.002,-2.9e-4 h -0.003 c -0.14601,-0.11821 -0.2647,-0.16718 -0.27018,-0.009 -0.27865,-0.0117 -0.55879,-0.0286 -0.82355,0.009 -0.31676,0.0451 -0.56519,0.17091 -0.82243,0.27356 -0.2018,0.0805 -0.33326,0.20176 -0.54829,0.27326 -0.55892,-0.27877 -0.83012,-0.39539 -0.95327,-0.43382 -0.0489,-0.0384 -0.0706,-0.0591 -0.14273,-0.113 -0.38468,-0.28779 -0.85462,-0.0337 -1.37072,-0.13663 -0.518,-0.10335 -0.8337,-0.41018 -1.37071,-0.41018 h -5.75587 c -0.66993,0 -1.771,-0.0867 -2.46672,0 -0.88182,0.10995 -1.21893,0.58759 -1.91899,0.82037 -0.22806,0.0758 -0.54833,0 -0.82244,0 -0.75561,0 -1.53339,0.0825 -2.19257,-0.13664 -0.10752,-0.0358 -0.15858,-0.10808 -0.27415,-0.13692 -0.39859,-0.0994 -2.56612,-0.032 -3.01499,0 -0.28364,0.0202 -1.08203,0.17757 -1.37072,0.27356 -0.10752,0.0358 -0.14494,0.13663 -0.27415,0.13663 -0.25843,0 -0.30312,-0.23255 -0.54827,-0.27327 -0.17337,-0.0288 -0.36557,0 -0.54829,0 -0.18274,-0.0456 -0.3539,-0.10473 -0.54772,-0.13692 -1.09096,-0.18138 -3.31519,0.17798 -4.38572,0 -0.58146,-0.0967 -1.08148,-0.28947 -1.64485,-0.40989 -0.25759,-0.0551 -0.68569,0.10266 -0.82187,0.13663 -0.18274,0.0456 -0.35446,0.10444 -0.54828,0.13663 -0.39863,-0.0663 -3.31683,-0.47165 -3.56329,-0.41018 -0.11559,0.0288 -0.15156,0.1165 -0.27414,0.13692 -0.17336,0.0288 -0.37493,-0.0288 -0.54829,0 -0.12259,0.0204 -0.15857,0.10779 -0.27414,0.13663 -0.53699,0.13392 -2.90776,-0.16824 -4.38572,-0.27355 -1.13684,-0.081 -2.45123,0.13866 -3.5633,0 -0.19819,-0.0247 -0.34795,-0.11638 -0.54827,-0.13635 -0.1916,-0.0191 -0.64376,-0.0353 -1.09601,-0.0387 -0.45224,-0.003 -0.90436,0.006 -1.09658,0.038 0,3e-5 -0.54808,0.27381 -0.54827,0.27384 -0.1426,0.0178 -1.11974,-0.0626 -1.37073,0 -0.11556,0.0288 -0.15854,0.1075 -0.27414,0.13634 -0.10292,0.0257 -2.10981,0.28728 -2.19257,0.27355 -0.1938,-0.0322 -0.35008,-0.11192 -0.54829,-0.13663 -0.63404,-0.0791 -1.62318,0.14213 -2.19314,0 -0.89044,-0.22207 -0.70029,-0.63072 -2.46672,-0.41047 -0.55468,0.0692 -0.65118,0.33643 -1.09657,0.41047 -0.15674,0.026 -6.16652,0.0343 -6.30414,0 -1.27916,-0.319 0.73084,0.0457 -0.54829,-0.27326 -0.46853,-0.11685 -3.14083,0 -3.83744,0 -0.57591,0 -1.70865,0.0804 -2.19258,0 -0.24515,-0.0408 -0.31714,-0.2162 -0.54828,-0.27384 -0.24515,-0.0611 -0.54833,0 -0.82242,0 -0.45683,0 -0.92696,-0.0553 -1.37016,0 -0.31959,0.0398 -0.52834,0.20035 -0.82299,0.27384 -0.66132,0.16491 -1.75287,-0.11869 -2.46671,0 -0.45263,0.0752 -0.76583,0.33687 -1.6443,0.40989 -1.47872,0.12293 -3.2532,-0.23386 -4.65986,0 -0.19383,0.0322 -0.34399,0.13664 -0.54828,0.13664 -0.28893,0 -0.5519,-0.086 -0.82243,-0.13664 -0.46071,-0.0862 -0.94351,-0.15179 -1.37072,-0.27355 -0.22437,-0.0639 -0.30834,-0.22569 -0.54828,-0.27355 -0.25451,-0.0508 -0.54775,0 -0.82186,0 h -1.37071 c -0.75997,0 -1.17265,0.0752 -1.91844,0.13721 -0.72889,0.0606 -1.8331,-0.15816 -2.46729,0 -0.4198,0.10468 -0.21444,0.24338 -0.54828,0.40989 -0.23294,0.11619 -0.52721,0.20008 -0.82186,0.27356 -0.38547,0.0961 -2.12026,0 -2.74086,0 -0.58248,0 -0.98783,0.009 -1.64486,-0.13692 -0.41747,-0.0925 -0.73984,-0.26784 -1.09657,-0.41019 -0.10095,-0.0403 -0.14494,-0.13634 -0.27415,-0.13634 -0.41725,0 -1.15688,0.19716 -1.37014,0.40989 -0.0409,0.0408 0.0647,0.10445 0,0.13664 -1.5855,0.7908 -2.82661,0.15494 -4.65986,0.54681 -1.5301,0.32707 -0.45476,0.41018 -2.19315,0.41018 -0.27413,0 -0.59379,0.0758 -0.82186,0 -0.21502,-0.0715 -0.31714,-0.21591 -0.54829,-0.27355 -0.0922,-0.023 -1.0045,-0.0754 -1.09657,-0.13663 -0.0225,-0.015 -0.4439,-0.58904 -0.82243,-0.68345 -0.50174,-0.12512 -1.00258,0.0572 -1.37694,0.30873 -0.37434,-0.25147 -0.87473,-0.43383 -1.37638,-0.30873 -0.37853,0.0944 -0.79992,0.66847 -0.82243,0.68345 -0.0921,0.0612 -1.00434,0.11365 -1.09657,0.13663 -0.23115,0.0576 -0.33326,0.20206 -0.54828,0.27355 -0.22807,0.0758 -0.54774,0 -0.82187,0 -1.73839,0 -0.66304,-0.0831 -2.19314,-0.41018 -1.83325,-0.39187 -3.07436,0.24399 -4.65986,-0.54681 -0.0647,-0.0322 0.0409,-0.0959 0,-0.13664 -0.21326,-0.21273 -0.95289,-0.40989 -1.37014,-0.40989 -0.12921,0 -0.17326,0.0961 -0.27415,0.13634 -0.35673,0.14235 -0.67909,0.31765 -1.09657,0.41019 -0.65703,0.14565 -1.06238,0.13692 -1.64486,0.13692 -0.62061,0 -2.35539,0.0961 -2.74086,0 -0.29464,-0.0735 -0.58892,-0.15737 -0.82186,-0.27356 -0.33384,-0.16651 -0.12848,-0.30521 -0.54828,-0.40989 -0.63419,-0.15816 -1.73839,0.0606 -2.46729,0 -0.74579,-0.062 -1.15847,-0.13721 -1.91844,-0.13721 h -1.37071 c -0.27411,0 -0.56735,-0.0508 -0.82186,0 -0.23994,0.0479 -0.32391,0.20961 -0.54828,0.27355 -0.42721,0.12176 -0.91001,0.18739 -1.37072,0.27355 -0.27053,0.0506 -0.5335,0.13664 -0.82242,0.13664 -0.2043,0 -0.35446,-0.10441 -0.54829,-0.13664 -1.40666,-0.23386 -3.18114,0.12293 -4.65986,0 -0.87847,-0.073 -1.19168,-0.33465 -1.6443,-0.40989 -0.71384,-0.11869 -1.80538,0.16491 -2.46672,0 -0.29465,-0.0735 -0.50283,-0.23399 -0.82242,-0.27384 -0.4432,-0.0553 -0.91389,0 -1.37072,0 -0.27409,0 -0.57727,-0.0611 -0.82242,0 -0.23114,0.0576 -0.30313,0.23307 -0.54829,0.27384 -0.48392,0.0804 -1.61666,0 -2.19257,0 -0.69661,0 -3.36891,-0.11685 -3.83744,0 -1.27913,0.31899 0.73088,-0.0457 -0.54828,0.27326 -0.13763,0.0343 -6.14741,0.026 -6.30415,0 -0.44539,-0.074 -0.54188,-0.3413 -1.09657,-0.41047 -1.76643,-0.22025 -1.57627,0.1884 -2.46672,0.41047 -0.56996,0.14213 -1.5591,-0.0791 -2.19314,0 -0.19821,0.0247 -0.35392,0.10442 -0.54772,0.13663 -0.0828,0.0137 -2.09026,-0.24788 -2.19315,-0.27355 -0.11558,-0.0288 -0.15857,-0.10753 -0.27414,-0.13634 -0.25097,-0.0626 -1.22811,0.0178 -1.37071,0 -1.9e-4,-3e-5 -0.54772,-0.27381 -0.54772,-0.27384 -0.19213,-0.0319 -0.64453,-0.0413 -1.09657,-0.038 h -5.7e-4 c -0.45205,0.003 -0.90393,0.0195 -1.09544,0.0387 -0.20032,0.02 -0.35007,0.11164 -0.54828,0.13635 -1.11207,0.13866 -2.42647,-0.081 -3.563295,0 -1.47797,0.10531 -3.848736,0.40747 -4.385719,0.27355 -0.115574,-0.0288 -0.151561,-0.11625 -0.274141,-0.13663 -0.173367,-0.0288 -0.37493,0.0288 -0.548287,0 -0.122582,-0.0204 -0.158568,-0.10809 -0.274143,-0.13692 -0.246467,-0.0615 -3.164658,0.3439 -3.563289,0.41018 -0.193818,-0.0322 -0.365551,-0.0911 -0.548285,-0.13663 -0.136188,-0.034 -0.564269,-0.1917 -0.821863,-0.13663 -0.563364,0.12042 -1.063398,0.31322 -1.644856,0.40989 -1.070531,0.17798 -3.294758,-0.18138 -4.385718,0 -0.193823,0.0322 -0.364983,0.0914 -0.547719,0.13692 -0.182725,0 -0.374926,-0.0288 -0.548286,0 -0.245163,0.0407 -0.289855,0.27327 -0.548285,0.27327 -0.12921,0 -0.166635,-0.10088 -0.274145,-0.13663 -0.288679,-0.096 -1.08708,-0.25334 -1.370713,-0.27356 -0.448877,-0.032 -2.616394,-0.0994 -3.015003,0 -0.115572,0.0288 -0.166632,0.10117 -0.274141,0.13692 -0.659176,0.21918 -1.436959,0.13664 -2.192578,0.13664 -0.274098,0 -0.594362,0.0758 -0.822428,0 -0.700051,-0.23278 -1.036613,-0.71042 -1.918432,-0.82037 -0.695721,-0.0867 -1.797356,0 -2.467287,0 H 61.25073 c -0.537013,0 -0.852709,0.30683 -1.370713,0.41018 -0.516094,0.10296 -0.985477,-0.15116 -1.370148,0.13663 -0.0721,0.0539 -0.09435,0.0746 -0.143302,0.113 -0.123153,0.0384 -0.394342,0.15505 -0.953269,0.43382 -0.21502,-0.0715 -0.346489,-0.19274 -0.548287,-0.27326 -0.257238,-0.10265 -0.505668,-0.22842 -0.82243,-0.27356 -0.26476,-0.0378 -0.544905,-0.0209 -0.823559,-0.009 -0.0052,-0.15825 -0.124153,-0.10928 -0.270179,0.009 h -0.0028 c 3.36e-4,0 0.002,2.9e-4 0.0023,2.9e-4 -0.224966,0.18229 -0.513095,0.52814 -0.550552,0.54682 -0.376708,0.18789 -0.880468,0.30551 -1.370148,0.41019 -0.348196,0.0744 -2.465605,0.0344 -2.741429,0 -0.467512,-0.0583 -0.183365,-0.27437 -0.274142,-0.41019 -0.05853,-0.0876 -1.066388,-0.54119 -1.096002,-0.54711 -0.254495,-0.0508 -0.548326,0 -0.82243,0 -0.456834,0 -0.962109,-0.1019 -1.370713,0 -1.916413,0.47792 -1.776499,0.68374 -3.837435,0.68374 -0.184232,0 -0.660088,0.0403 -0.82186,0 -0.500062,-0.12471 -2.299303,-1.28052 -2.467285,-1.23026 -0.443192,0.13263 -0.69298,0.38548 -1.09657,0.54652 -0.311964,0.12448 -1.153693,-0.10035 -1.370148,-0.13634 -0.606749,-0.10087 -1.279427,0 -1.919,0 h -1.370147 c -0.09137,0 -0.209533,-0.0322 -0.274143,0 -0.200957,0.10023 -0.807743,0.82384 -1.370715,0.68345 -0.430581,-0.10738 -0.942686,-0.65786 -1.096568,-0.68345 -0.68164,-0.11332 -1.707154,-0.0265 -2.47805,-0.007 -0.02875,-0.0269 -0.179968,0.007 -0.262813,0.007 h -1.096572 c -1.34631,0 -0.764089,-0.0118 -2.192576,0.27327 -0.08483,0.017 -0.192423,-0.0204 -0.274143,0 -0.115566,0.0288 -0.158572,0.1081 -0.274143,0.13692 -0.08172,0.0204 -0.198122,-0.0253 -0.274141,0 -0.215025,0.0715 -0.333261,0.20176 -0.548286,0.27326 -0.480805,0.15987 -1.096086,-0.18212 -1.64429,-0.27326 -1.323296,-0.22001 -3.652832,0.25104 -4.111575,0.13663 -0.758938,-0.18927 -1.445919,-0.68374 -2.467286,-0.68374 -0.253405,0 -0.57363,0.36891 -0.821862,0.41019 -0.04013,0.007 -1.363784,0.13527 -1.370713,0.13692 -0.5482,0.13671 -0.822517,0.54673 -1.370714,0.68345 -0.503795,0.12564 -0.443633,-0.24241 -0.547719,-0.27356 -0.421911,-0.12626 -0.893379,-0.21374 -1.3707142,-0.27326 -0.443196,-0.0553 -0.937322,0.0721 -1.370714,0 -0.122582,-0.0204 -0.15857,-0.10781 -0.274142,-0.13663 -0.4086092,-0.1019 -0.9367546,-0.072 -1.3701479,0 -0.2451638,0.0407 -0.310756,0.22248 -0.5482857,0.27326 -0.4282143,0.0915 -0.9540141,0.0327 -1.3707142,0.13663 -0.182736,0.0456 -0.069831,0.27356 -0.2741428,0.27356 -0.2584263,0 -0.3171418,-0.21592 -0.5482846,-0.27356 -0.4970937,-0.12396 -1.1471979,-0.2606 -1.6442905,-0.13663 -0.1155708,0.0288 -0.1515593,0.11625 -0.2741428,0.13663 -0.4956962,0.0824 -1.8222311,-0.14018 -2.2899983,0.0579 -0.022272,0.009 -0.023807,0.21538 -0.022086,0.4367 H 8.1e-4 c 0.00164,0.008 0.00132,0.25571 0.00164,0.42258 -0.00135,0.0501 0.00237,0.1702 -0.00245,0.17555 h 0.00285 c 5.864e-4,0.43936 0.00208,0.92293 0.011892,0.94345 0.1912788,0.40043 1.0714999,1.10179 1.9422225,0.88465 0.3785228,-0.0944 0.7999305,-0.66875 0.8224285,-0.68373 0.092026,-0.0612 1.0043424,-0.11366 1.0965714,-0.13664 0.2311396,-0.0576 0.3327081,-0.20176 0.547719,-0.27326 0.2280728,-0.0758 0.5483142,0 0.8224286,0 1.738398,0 0.6624755,0.0828 2.192575,0.4099 1.8332527,0.39186 3.074368,-0.24371 4.659861,0.54709 0.06461,0.0322 -0.04086,0.0959 0,0.13664 0.213269,0.21273 0.953476,0.41019 1.370714,0.41019 0.129214,0 0.173252,-0.0964 0.274143,-0.13664 0.35672,-0.14234 0.679104,-0.31765 1.096571,-0.41019 0.65703,-0.14565 1.061806,-0.13662 1.644289,-0.13662 0.620613,0 2.355964,-0.0961 2.741429,0 0.294648,0.0735 0.588928,0.15707 0.821862,0.27326 0.333839,0.1665 0.128482,0.30549 0.548284,0.41019 0.634189,0.15815 1.737816,-0.0606 2.466719,0 0.745792,0.062 1.15904,0.13662 1.919,0.13662 h 1.370147 c 0.274101,0 0.567917,0.0508 0.822428,0 0.23994,-0.0479 0.323906,-0.20931 0.548286,-0.27326 0.427197,-0.12176 0.910007,-0.18739 1.370714,-0.27355 0.270529,-0.0506 0.532929,-0.13664 0.821861,-0.13664 0.2043,0 0.354464,0.10441 0.548287,0.13664 1.406655,0.23385 3.181145,-0.12292 4.65986,0 0.878476,0.073 1.192252,0.33494 1.644855,0.41019 0.713844,0.11868 1.80483,-0.16493 2.466154,0 0.29466,0.0735 0.503407,0.23341 0.822995,0.27326 0.443195,0.0553 0.913313,0 1.370148,0 0.274101,0 0.57726,0.0611 0.822428,0 0.231132,-0.0576 0.303122,-0.2325 0.548285,-0.27326 0.483909,-0.0805 1.61722,0 2.193141,0 0.696589,0 3.368908,0.11684 3.837432,0 1.279137,-0.319 -0.731429,0.0457 0.547722,-0.27327 0.137624,-0.0343 6.147393,-0.026 6.304151,0 0.445376,0.074 0.541878,0.34073 1.09657,0.40989 1.766428,0.22025 1.576829,-0.18783 2.467285,-0.40989 0.56995,-0.14214 1.558527,0.079 2.192577,0 0.198207,-0.0247 0.354466,-0.1047 0.548283,-0.13692 0.08275,-0.0137 2.090256,0.24789 2.193143,0.27355 0.115574,0.0288 0.158013,0.10781 0.273576,0.13664 0.250989,0.0626 1.22811,-0.0178 1.370713,0 2.9e-4,2e-5 0.548377,0.27322 0.548377,0.27326 0.384453,0.0639 1.809391,0.0382 2.192577,0 0.200327,-0.02 0.350076,-0.11192 0.548284,-0.13664 1.112049,-0.13866 2.426446,0.081 3.56329,0 1.477962,-0.1053 3.848733,-0.40718 4.385718,-0.27326 0.115575,0.0288 0.151553,0.11625 0.274143,0.13664 0.173354,0.0288 0.374361,-0.0288 0.547718,0 0.122578,0.0204 0.159138,0.1078 0.27471,0.13662 0.246476,0.0615 3.164656,-0.34361 3.563291,-0.40989 0.193817,0.0322 0.365547,0.0911 0.548283,0.13663 0.136186,0.034 0.564267,0.1917 0.821861,0.13664 0.563361,-0.12042 1.063398,-0.31352 1.644858,-0.41019 1.070532,-0.17798 3.294759,0.18137 4.385719,0 0.193823,-0.0322 0.364988,-0.0911 0.547718,-0.13664 0.18273,0 0.374926,0.0288 0.548284,0 0.245165,-0.0408 0.289858,-0.27354 0.548287,-0.27354 0.129208,0 0.166638,0.10116 0.274142,0.13692 0.288683,0.096 1.087079,0.25303 1.370713,0.27326 0.448886,0.032 2.616401,0.0994 3.015006,0 0.115575,-0.0288 0.16663,-0.10089 0.274143,-0.13664 0.659177,-0.21918 1.436952,-0.13662 2.192576,-0.13662 0.274097,0 0.594367,-0.0758 0.822427,0 0.70005,0.23276 1.03717,0.71012 1.918995,0.82007 0.69572,0.0867 1.7968,0 2.46672,0 h 5.75644 c 0.537,0 0.85216,-0.30654 1.37014,-0.40989 0.5161,-0.10297 0.98604,0.15087 1.37071,-0.13692 0.0721,-0.0539 0.0944,-0.0743 0.1433,-0.11271 0.12315,-0.0384 0.39379,-0.15505 0.95271,-0.43382 0.21503,0.0715 0.34649,0.19274 0.54829,0.27327 0.25723,0.10264 0.50566,0.22812 0.82242,0.27326 0.26475,0.0378 0.54492,0.0209 0.82357,0.009 0.005,0.15825 0.12413,0.10929 0.27017,-0.009 10e-4,0 0.002,-2.9e-4 0.003,-2.9e-4 h -0.002 c 0.22495,-0.18229 0.5131,-0.52785 0.55055,-0.54653 0.37671,-0.18789 0.88047,-0.30551 1.37015,-0.41018 0.34821,-0.0744 2.4656,-0.0344 2.74143,0 0.4675,0.0583 0.18337,0.27435 0.27415,0.41018 0.0585,0.0876 1.06693,0.54061 1.09656,0.54653 0.25449,0.0508 0.54777,0 0.82187,0 0.45683,0 0.96211,0.1019 1.37071,0 1.91641,-0.47792 1.7765,-0.68345 3.83744,-0.68345 0.18423,0 0.66066,-0.0403 0.82242,0 0.50006,0.12471 2.29872,1.28082 2.46671,1.23055 0.4432,-0.13263 0.69299,-0.38606 1.09658,-0.5471 0.31197,-0.12447 1.15369,0.10093 1.37014,0.13692 0.60675,0.10087 1.27944,0 1.919,0 h 1.37015 c 0.0914,0 0.20956,0.0322 0.27415,0 0.20095,-0.10024 0.80774,-0.82384 1.37071,-0.68345 0.43059,0.10738 0.94268,0.65786 1.09657,0.68345 0.68163,0.11332 1.70716,0.0265 2.47805,0.007 0.0288,0.0269 0.17996,-0.007 0.26282,-0.007 h 1.09656 c 1.34632,0 0.76409,0.0115 2.19258,-0.27356 0.0848,-0.0169 0.19243,0.0204 0.27414,0 0.11557,-0.0288 0.15857,-0.10781 0.27414,-0.13662 0.0818,-0.0204 0.19815,0.0253 0.27415,0 0.21503,-0.0715 0.33328,-0.20178 0.54829,-0.27327 0.48081,-0.15987 1.09608,0.18212 1.64428,0.27327 1.3233,0.22 3.65284,-0.25104 4.11157,-0.13664 0.75894,0.18927 1.44591,0.68374 2.46729,0.68374 0.2534,0 0.57365,-0.3692 0.82187,-0.41048 0.0401,-0.007 1.36378,-0.13497 1.3707,-0.13662 0.5482,-0.13672 0.82196,-0.54674 1.37016,-0.68345 0.50379,-0.12564 0.4442,0.24211 0.54829,0.27326 0.42192,0.12626 0.89336,0.21403 1.37071,0.27355 0.4432,0.0553 0.93733,-0.072 1.3707,0 0.1226,0.0204 0.15858,0.10781 0.27415,0.13664 0.40863,0.10189 0.93676,0.072 1.37015,0 0.24517,-0.0408 0.31076,-0.2225 0.54829,-0.27327 0.4282,-0.0915 0.95402,-0.033 1.37071,-0.13692 0.18276,-0.0456 0.0698,-0.27326 0.27414,-0.27326 0.25842,0 0.31657,0.21562 0.54772,0.27326 0.4971,0.12397 1.14776,0.26088 1.64486,0.13692 0.11557,-0.0288 0.15154,-0.11653 0.27414,-0.13692 0.35846,-0.0596 1.1487,0.0389 1.73718,0.0239 0.58854,0.0151 1.37918,-0.0835 1.73775,-0.0239 0.12259,0.0204 0.15857,0.10808 0.27415,0.13692 0.4971,0.12396 1.14775,-0.0129 1.64485,-0.13692 0.23115,-0.0576 0.2893,-0.27326 0.54772,-0.27326 0.20433,0 0.0914,0.22769 0.27414,0.27326 0.41669,0.10394 0.94251,0.0454 1.37071,0.13692 0.23753,0.0508 0.30312,0.23249 0.54829,0.27327 0.4334,0.072 0.96153,0.10189 1.37015,0 0.11557,-0.0288 0.15155,-0.11622 0.27414,-0.13664 0.43339,-0.072 0.92752,0.0553 1.37072,0 0.47734,-0.0595 0.94879,-0.14729 1.37071,-0.27355 0.10413,-0.0311 0.0445,-0.3989 0.54829,-0.27326 0.5482,0.13671 0.82194,0.54673 1.37014,0.68345 0.007,0.002 1.3306,0.12993 1.37072,0.13662 0.24821,0.0413 0.56846,0.41048 0.82186,0.41048 1.02139,0 1.70834,-0.49447 2.46728,-0.68374 0.45874,-0.1144 2.78829,0.35664 4.11159,0.13664 0.5482,-0.0912 1.16347,-0.43314 1.64428,-0.27327 0.21501,0.0715 0.33326,0.20176 0.54829,0.27327 0.076,0.0253 0.19237,-0.0204 0.27414,0 0.11557,0.0288 0.15858,0.10779 0.27415,0.13662 0.0818,0.0204 0.1893,-0.0169 0.27413,0 1.42849,0.28504 0.84627,0.27356 2.19259,0.27356 h 1.09656 c 0.0829,0 0.23399,0.0341 0.26282,0.007 0.77089,0.0194 1.7964,0.10612 2.47804,-0.007 0.1539,-0.0256 0.66598,-0.57607 1.09658,-0.68345 0.56297,-0.14039 1.16976,0.58321 1.37071,0.68345 0.0646,0.0322 0.18273,0 0.27415,0 h 1.37014 c 0.63957,0 1.31224,0.10087 1.91899,0 0.21646,-0.036 1.05818,-0.26139 1.37016,-0.13692 0.40358,0.16104 0.65338,0.41447 1.09656,0.5471 0.168,0.0503 1.96723,-1.10584 2.46729,-1.23055 0.16176,-0.0403 0.63762,0 0.82186,0 2.06093,0 1.92103,0.20553 3.83744,0.68345 0.4086,0.1019 0.91388,0 1.37071,0 0.27409,0 0.56738,0.0508 0.82187,0 0.0296,-0.006 1.03803,-0.45895 1.09656,-0.54653 0.0908,-0.13583 -0.19336,-0.35189 0.27415,-0.41018 0.27583,-0.0344 2.39322,-0.0744 2.74143,0 0.48968,0.10467 0.99343,0.22229 1.37014,0.41018 0.0375,0.0187 0.32559,0.36424 0.55055,0.54653 h -0.002 c 0.001,0 0.002,2.9e-4 0.003,2.9e-4 0.14604,0.11822 0.26469,0.16718 0.27017,0.009 0.27865,0.0117 0.55882,0.0286 0.82356,-0.009 0.31677,-0.0451 0.56519,-0.17062 0.82243,-0.27326 0.2018,-0.0805 0.33326,-0.20178 0.54829,-0.27327 0.55892,0.27877 0.82957,0.39539 0.9527,0.43382 0.0489,0.0384 0.0711,0.0588 0.1433,0.11271 0.38468,0.28779 0.85462,0.034 1.37072,0.13692 0.51799,0.10335 0.83313,0.40989 1.37014,0.40989 h 5.75643 c 0.66994,0 1.77101,0.0867 2.46672,0 0.88183,-0.10995 1.21896,-0.58731 1.919,-0.82007 0.22807,-0.0758 0.54832,0 0.82243,0 0.75562,0 1.5334,-0.0826 2.19258,0.13662 0.10752,0.0358 0.15857,0.1078 0.27414,0.13664 0.3986,0.0994 2.56612,0.032 3.015,0 0.28364,-0.0202 1.08203,-0.17728 1.37072,-0.27326 0.10752,-0.0358 0.14493,-0.13692 0.27414,-0.13692 0.25843,0 0.30311,0.23277 0.54828,0.27354 0.17336,0.0288 0.36557,0 0.54829,0 0.18273,0.0456 0.3539,0.1044 0.54772,0.13664 1.09096,0.18137 3.3152,-0.17798 4.38572,0 0.58146,0.0967 1.0815,0.28977 1.64485,0.41019 0.2576,0.055 0.68567,-0.10267 0.82186,-0.13664 0.18274,-0.0456 0.35447,-0.10445 0.54829,-0.13663 0.39863,0.0663 3.31682,0.47136 3.56329,0.40989 0.11559,-0.0288 0.15214,-0.11621 0.27471,-0.13662 0.17337,-0.0288 0.37437,0.0288 0.54772,0 0.12259,-0.0204 0.15857,-0.1078 0.27414,-0.13664 0.53699,-0.13392 2.90776,0.16796 4.38572,0.27326 1.13685,0.081 2.45123,-0.13866 3.56329,0 0.1982,0.0247 0.34796,0.11667 0.54828,0.13664 0.38319,0.0382 1.80813,0.0639 2.19259,0 0,-4e-5 0.54806,-0.27324 0.54827,-0.27326 0.1426,-0.0178 1.11973,0.0626 1.37072,0 0.11556,-0.0288 0.15801,-0.1078 0.27358,-0.13664 0.10292,-0.0257 2.11038,-0.28727 2.19314,-0.27355 0.19382,0.0322 0.35007,0.11221 0.54828,0.13692 0.63405,0.079 1.62262,-0.14214 2.19258,0 0.89044,0.22206 0.70086,0.63014 2.46729,0.40989 0.55468,-0.0692 0.65119,-0.33585 1.09656,-0.40989 0.15676,-0.026 6.16653,-0.0343 6.30415,0 1.27915,0.31899 -0.73141,-0.0457 0.54773,0.27327 0.46853,0.11684 3.14084,0 3.83743,0 0.57592,0 1.70921,-0.0805 2.19314,0 0.24517,0.0408 0.31715,0.21562 0.54827,0.27326 0.24517,0.0611 0.54835,0 0.82245,0 0.45681,0 0.92694,0.0553 1.37015,0 0.31958,-0.0398 0.52833,-0.19979 0.82299,-0.27326 0.66133,-0.16493 1.75229,0.11868 2.46615,0 0.45258,-0.0752 0.7664,-0.33717 1.64485,-0.41019 1.47872,-0.12292 3.25321,0.23385 4.65987,0 0.19384,-0.0322 0.344,-0.13664 0.54827,-0.13664 0.28893,0 0.55136,0.0861 0.82187,0.13664 0.46072,0.0862 0.94352,0.15179 1.37073,0.27355 0.22437,0.064 0.30832,0.2254 0.54827,0.27326 0.25451,0.0508 0.54831,0 0.82242,0 h 1.37014 c 0.75999,0 1.17324,-0.0746 1.919,-0.13662 0.72893,-0.0606 1.83256,0.15815 2.46674,0 0.4198,-0.1047 0.21443,-0.24369 0.54827,-0.41019 0.23294,-0.11619 0.52778,-0.1998 0.82245,-0.27326 0.38545,-0.0961 2.12024,0 2.74085,0 0.5825,0 0.98725,-0.009 1.64428,0.13662 0.41748,0.0925 0.73985,0.26785 1.09659,0.41019 0.10084,0.0403 0.14491,0.13664 0.27414,0.13664 0.41722,0 1.15742,-0.19746 1.37072,-0.41019 0.0409,-0.0408 -0.0647,-0.10445 0,-0.13664 1.58547,-0.7908 2.8266,-0.15523 4.65984,-0.54709 1.53011,-0.32708 0.45417,-0.4099 2.19259,-0.4099 0.27411,0 0.59436,-0.0758 0.82242,0 0.215,0.0715 0.31715,0.21562 0.54828,0.27326 0.0922,0.023 1.00395,0.0754 1.096,0.13664 0.0225,0.015 0.44391,0.58933 0.82245,0.68373 0.75833,0.18911 1.52323,-0.31818 1.83458,-0.71688 0.49135,-0.0187 1.00924,-0.0638 1.2801,-0.0187 0.12259,0.0204 0.15857,0.10779 0.27414,0.13663 0.49709,0.12397 1.1472,-0.0127 1.64429,-0.13663 0.23116,-0.0576 0.28985,-0.27326 0.54831,-0.27326 0.2043,0 0.0914,0.22769 0.27413,0.27326 0.41671,0.10394 0.9425,0.0451 1.3707,0.13663 0.23754,0.0508 0.30314,0.23283 0.54831,0.27355 0.43337,0.0721 0.96152,0.1019 1.37014,0 0.11557,-0.0288 0.15155,-0.1165 0.27414,-0.13691 0.43337,-0.0721 0.92752,0.0553 1.37072,0 0.47732,-0.0595 0.94881,-0.14701 1.3707,-0.27327 0.10412,-0.0311 0.0439,-0.3989 0.54772,-0.27326 0.54819,0.13671 0.82251,0.54673 1.3707,0.68344 0.007,0.002 1.33062,0.12994 1.37072,0.13664 0.24825,0.0413 0.56847,0.41018 0.82187,0.41018 1.02136,0 1.70835,-0.49447 2.46728,-0.68373 0.45876,-0.11442 2.78828,0.35692 4.11157,0.13691 0.54822,-0.0911 1.16349,-0.43342 1.64432,-0.27355 0.215,0.0715 0.33324,0.20205 0.54827,0.27355 0.076,0.0253 0.19235,-0.0204 0.27414,0 0.11556,0.0288 0.15857,0.1078 0.27414,0.13664 0.0818,0.0204 0.18931,-0.017 0.27414,0 1.42849,0.28502 0.84629,0.27326 2.19259,0.27326 h 1.09656 c 0.0829,0 0.23408,0.0344 0.26282,0.007 0.77089,0.0194 1.7964,0.10583 2.47805,-0.007 0.15387,-0.0256 0.66599,-0.57607 1.09655,-0.68345 0.56299,-0.14039 1.1692,0.58322 1.37018,0.68345 0.0646,0.0322 0.18328,0 0.27468,0 h 1.37015 c 0.63957,0 1.31226,0.10087 1.919,0 0.21646,-0.036 1.05819,-0.26082 1.37014,-0.13634 0.4036,0.16104 0.65338,0.41418 1.09659,0.54681 0.16797,0.0503 1.96723,-1.10584 2.46729,-1.23055 0.16176,-0.0403 0.63762,0 0.82186,0 2.06093,0 1.92104,0.20582 3.83743,0.68374 0.40861,0.1019 0.91385,0 1.37073,0 0.27407,0 0.56736,0.0508 0.82183,0 0.0296,-0.006 1.03807,-0.45952 1.09659,-0.54711 0.0908,-0.13582 -0.19338,-0.3516 0.27414,-0.40989 0.27581,-0.0344 2.39321,-0.0744 2.74141,0 0.48971,0.10467 0.99346,0.222 1.37015,0.40989 0.0375,0.0187 0.32559,0.36454 0.55057,0.54682 0,0 -0.002,2.9e-4 -0.002,2.9e-4 h 0.003 c 0.14602,0.11821 0.26469,0.16718 0.27017,0.009 0.27867,0.0117 0.55881,0.0286 0.82358,-0.009 0.31674,-0.0451 0.56519,-0.17091 0.82241,-0.27355 0.20182,-0.0805 0.33328,-0.20178 0.54828,-0.27327 0.55893,0.27876 0.83013,0.39567 0.95328,0.43411 0.0489,0.0384 0.0712,0.0588 0.14331,0.11271 0.38466,0.28779 0.85406,0.0336 1.37014,0.13663 0.51801,0.10335 0.83371,0.41047 1.37073,0.41047 h 5.75585 c 0.66993,0 1.77156,0.0867 2.46728,0 0.88184,-0.10996 1.21838,-0.58788 1.91846,-0.82065 0.22806,-0.0758 0.5483,0 0.82241,0 0.7556,0 1.53338,-0.0823 2.19256,0.13691 0.10753,0.0358 0.15858,0.1078 0.27414,0.13664 0.39864,0.0994 2.56614,0.032 3.01501,0 0.28365,-0.0202 1.08203,-0.17757 1.37072,-0.27355 0.10753,-0.0358 0.14495,-0.13664 0.27414,-0.13664 0.25842,0 0.30314,0.23283 0.54828,0.27355 0.17336,0.0288 0.36558,0 0.54831,0 0.18274,0.0456 0.35389,0.10445 0.54769,0.13664 1.09097,0.18138 3.31519,-0.17799 4.38574,0 0.58145,0.0967 1.08148,0.28948 1.64486,0.40989 0.25759,0.055 0.68566,-0.10266 0.82185,-0.13663 0.18276,-0.0456 0.35447,-0.10445 0.5483,-0.13663 0.3986,0.0663 3.31682,0.47194 3.56329,0.41047 0.11556,-0.0288 0.15156,-0.1168 0.27414,-0.13721 0.17335,-0.0288 0.37491,0.0288 0.54828,0 0.12258,-0.0204 0.15857,-0.10779 0.27414,-0.13663 0.53699,-0.13392 2.90776,0.16853 4.38573,0.27384 1.13683,0.081 2.45121,-0.13866 3.56328,0 0.19819,0.0247 0.34795,0.11637 0.54828,0.13634 0.1916,0.0191 0.64374,0.035 1.09601,0.0383 v 2.9e-4 c 0.45222,0.003 0.90492,-0.006 1.09713,-0.0383 0,-3e-5 0.54753,-0.27352 0.54773,-0.27355 0.1426,-0.0178 1.11972,0.0626 1.3707,0 0.11559,-0.0288 0.15857,-0.10779 0.27414,-0.13664 0.10292,-0.0257 2.1104,-0.28726 2.19316,-0.27354 0.19379,0.0322 0.34952,0.11192 0.54771,0.13663 0.63406,0.0791 1.6232,-0.14214 2.19314,0 0.89045,0.22206 0.70029,0.63072 2.46673,0.41047 0.55469,-0.0692 0.65117,-0.33643 1.09656,-0.41047 0.15675,-0.026 6.16655,-0.0343 6.30415,0 1.27917,0.31899 -0.73084,-0.0455 0.54828,0.27355 0.46852,0.11684 3.14085,0 3.83745,0 0.57589,0 1.70864,-0.0805 2.19256,0 0.24517,0.0408 0.31715,0.21591 0.54828,0.27355 0.24517,0.0611 0.54834,0 0.82245,0 0.45681,0 0.92752,0.0553 1.3707,0 0.31961,-0.0398 0.52777,-0.20007 0.82244,-0.27355 0.66132,-0.16492 1.75287,0.11869 2.46671,0 0.4526,-0.0752 0.76583,-0.33716 1.6443,-0.41018 1.4787,-0.12293 3.2532,0.23386 4.65985,0 0.19384,-0.0322 0.344,-0.13664 0.54828,-0.13664 0.28892,0 0.5519,0.086 0.82245,0.13664 0.4607,0.0862 0.94349,0.15179 1.37069,0.27354 0.22438,0.0639 0.30836,0.2257 0.54831,0.27356 0.25451,0.0508 0.54775,0 0.82183,0 h 1.37073 c 0.75995,0 1.17265,-0.0749 1.91842,-0.13692 0.72892,-0.0606 1.8331,0.15816 2.46731,0 0.41979,-0.10468 0.21443,-0.24367 0.54828,-0.41018 0.23294,-0.11619 0.5272,-0.19979 0.82187,-0.27327 0.38544,-0.0961 2.12024,0 2.74084,0 0.5825,0 0.98784,-0.009 1.64487,0.13663 0.41748,0.0925 0.73985,0.26784 1.09657,0.41018 0.10084,0.0403 0.14493,0.13664 0.27415,0.13664 0.41726,0 1.15687,-0.19745 1.37015,-0.41018 0.0409,-0.0408 -0.0647,-0.10445 0,-0.13664 1.5855,-0.79079 2.82659,-0.15494 4.65984,-0.54681 1.5301,-0.32707 0.45475,-0.4099 2.19314,-0.4099 0.27414,0 0.5938,-0.0758 0.82186,0 0.21504,0.0715 0.31715,0.21562 0.54831,0.27326 0.0922,0.023 1.00449,0.0754 1.09656,0.13664 0.0225,0.015 0.44391,0.58904 0.82241,0.68345 0.87073,0.21714 1.75096,-0.48423 1.94224,-0.88465 0.009,-0.0205 0.011,-0.50434 0.0113,-0.94374 h 0.004 c -0.005,-0.006 -10e-4,-0.13285 -0.002,-0.19054 0.001,-0.15727 0.001,-0.39995 0.002,-0.40759 h -0.005 c 0.002,-0.22133 1.4e-4,-0.42699 -0.0221,-0.43641 -0.46778,-0.19813 -1.7943,0.0245 -2.29001,-0.0579 -0.12258,-0.0204 -0.15857,-0.10779 -0.27414,-0.13663 -0.49709,-0.12396 -1.14776,0.0127 -1.64486,0.13663 -0.23117,0.0576 -0.2893,0.27326 -0.54772,0.27326 -0.20431,0 -0.0914,-0.22769 -0.27415,-0.27326 -0.41667,-0.10394 -0.9425,-0.0451 -1.37069,-0.13663 -0.23754,-0.0508 -0.30314,-0.23278 -0.54831,-0.27355 -0.43338,-0.0721 -0.9615,-0.1019 -1.37015,0 -0.11556,0.0288 -0.15152,0.1165 -0.27414,0.13691 -0.43337,0.0721 -0.9275,-0.0553 -1.37069,0 -0.47734,0.0595 -0.9488,0.14701 -1.37072,0.27327 -0.10413,0.0311 -0.0445,0.3989 -0.54828,0.27326 -0.54822,-0.13671 -0.82196,-0.54673 -1.37015,-0.68344 -0.007,-0.002 -1.33062,-0.12995 -1.37072,-0.13664 -0.24822,-0.0413 -0.56847,-0.41018 -0.82187,-0.41018 -1.02138,0 -1.70835,0.49447 -2.46728,0.68373 -0.45872,0.11441 -2.78828,-0.35692 -4.11157,-0.13691 -0.54821,0.0911 -1.16348,0.43343 -1.6443,0.27355 -0.21501,-0.0715 -0.33325,-0.20205 -0.54828,-0.27355 -0.076,-0.0253 -0.19236,0.0204 -0.27414,0 -0.11557,-0.0288 -0.15858,-0.1078 -0.27415,-0.13664 -0.0817,-0.0204 -0.18931,0.0169 -0.27414,0 -1.42849,-0.28503 -0.84625,-0.27326 -2.19258,-0.27326 h -1.09656 c -0.0829,0 -0.234,-0.0344 -0.26283,-0.007 -0.77088,-0.0194 -1.79639,-0.10582 -2.47804,0.007 -0.15387,0.0256 -0.66599,0.57607 -1.09656,0.68345 -0.56298,0.14039 -1.16978,-0.58321 -1.37072,-0.68345 -0.0646,-0.0322 -0.18273,0 -0.27414,0 h -1.37015 c -0.63956,0 -1.31226,-0.10087 -1.919,0 -0.21646,0.036 -1.05819,0.2611 -1.37014,0.13663 -0.4036,-0.16104 -0.6534,-0.41447 -1.09659,-0.5471 -0.16799,-0.0503 -1.96665,1.10584 -2.4667,1.23055 -0.16177,0.0403 -0.63821,0 -0.82244,0 -2.06094,0 -1.92103,-0.20553 -3.83743,-0.68345 -0.40861,-0.10191 -0.91389,0 -1.37072,0 -0.27409,0 -0.56736,-0.0508 -0.82185,0 -0.0296,0.006 -1.03806,0.45924 -1.09659,0.54682 -0.0908,0.13583 0.19338,0.3516 -0.27413,0.40989 -0.27582,0.0344 -2.39321,0.0744 -2.74142,0 -0.48969,-0.10467 -0.99344,-0.222 -1.37015,-0.40989 -0.0375,-0.0187 -0.32561,-0.36453 -0.55056,-0.54682 h 0.002 c -10e-4,0 -0.002,-2.9e-4 -0.003,-2.9e-4 -0.14605,-0.11822 -0.26469,-0.1669 -0.27017,-0.009 -0.27867,-0.0117 -0.55883,-0.0288 -0.82358,0.009 -0.31674,0.0451 -0.56518,0.17063 -0.82241,0.27327 -0.20179,0.0805 -0.33269,0.20206 -0.54773,0.27355 -0.55892,-0.27877 -0.83013,-0.39568 -0.95327,-0.43411 -0.0489,-0.0384 -0.0711,-0.0588 -0.14329,-0.11271 -0.38468,-0.28779 -0.85464,-0.0336 -1.37072,-0.13663 -0.518,-0.10335 -0.83315,-0.41018 -1.37015,-0.41018 h -5.75642 c -0.66994,0 -1.77099,-0.0867 -2.46673,0 -0.88181,0.10995 -1.21894,0.58731 -1.919,0.82008 -0.22806,0.0758 -0.54831,0 -0.82243,0 -0.75562,0 -1.53338,0.0825 -2.19256,-0.13663 -0.10752,-0.0358 -0.15857,-0.10779 -0.27414,-0.13664 -0.39861,-0.0994 -2.56614,-0.032 -3.01501,0 -0.28365,0.0203 -1.08203,0.17728 -1.37072,0.27327 -0.10753,0.0358 -0.14495,0.13692 -0.27414,0.13692 -0.25842,0 -0.30311,-0.23278 -0.54828,-0.27355 -0.17336,-0.0288 -0.365,0 -0.54773,0 -0.18272,-0.0456 -0.35447,-0.10439 -0.54827,-0.13664 -1.09097,-0.18137 -3.31519,0.17799 -4.38574,0 -0.58145,-0.0967 -1.08148,-0.28976 -1.64486,-0.41018 -0.25758,-0.0551 -0.68566,0.10295 -0.82183,0.13692 -0.18276,0.0456 -0.35447,0.10445 -0.54831,0.13663 -0.39861,-0.0663 -3.31681,-0.47165 -3.56329,-0.41018 -0.11557,0.0288 -0.15213,0.11622 -0.2747,0.13663 -0.17335,0.0288 -0.37436,-0.0288 -0.54772,0 -0.12258,0.0204 -0.15857,0.10808 -0.27414,0.13692 -0.537,0.13392 -2.90776,-0.16825 -4.38574,-0.27355 -1.13683,-0.081 -2.45121,0.13866 -3.56328,0 -0.19818,-0.0247 -0.34795,-0.11666 -0.54828,-0.13663 -0.1916,-0.0191 -0.64378,-0.0351 -1.096,-0.0383 z" />
  </g>
</svg>
