<?xml version="1.0" encoding="UTF-8" standalone="no"?>
<!-- Created with Inkscape (http://www.inkscape.org/) -->

<svg
   width="1920"
   height="1080"
   viewBox="0 0 507.99999 285.75001"
   version="1.1"
   id="svg5"
   inkscape:version="1.1.2 (0a00cf5339, 2022-02-04)"
   sodipodi:docname="overlay.svg"
   xmlns:inkscape="http://www.inkscape.org/namespaces/inkscape"
   xmlns:sodipodi="http://sodipodi.sourceforge.net/DTD/sodipodi-0.dtd"
   xmlns="http://www.w3.org/2000/svg"
   xmlns:svg="http://www.w3.org/2000/svg">
  <sodipodi:namedview
     id="namedview7"
     pagecolor="#ffffff"
     bordercolor="#999999"
     borderopacity="1"
     inkscape:pageshadow="0"
     inkscape:pageopacity="0"
     inkscape:pagecheckerboard="0"
     inkscape:document-units="mm"
     showgrid="false"
     units="px"
     width="1920px"
     inkscape:snap-page="true"
     inkscape:zoom="0.5"
     inkscape:cx="972"
     inkscape:cy="527"
     inkscape:window-width="1920"
     inkscape:window-height="1026"
     inkscape:window-x="0"
     inkscape:window-y="0"
     inkscape:window-maximized="1"
     inkscape:current-layer="layer1"
     showguides="false" />
  <defs
     id="defs2" />
  <g
     inkscape:label="Layer 1"
     inkscape:groupmode="layer"
     id="layer1">
    <path
       id="path1068"
       style="fill:#0000ff;stroke:#000000;stroke-width:0.543957px;stroke-linecap:butt;stroke-linejoin:miter;stroke-opacity:1"
       d="M 1158.4922 926.33203 C 1153.3875 926.35471 1148.2856 926.46172 1146.123 926.58984 C 1143.8619 926.72326 1142.1728 927.33867 1139.9355 927.50391 C 1127.3836 928.43121 1112.5484 926.96222 1099.7168 927.50391 C 1083.0349 928.20815 1056.2778 930.22763 1050.2168 929.33203 C 1048.9123 929.13928 1048.5047 928.5543 1047.1211 928.41797 C 1045.1642 928.22521 1042.8903 928.61072 1040.9336 928.41797 C 1039.55 928.28153 1039.1444 927.69666 1037.8398 927.50391 C 1035.0579 927.09288 1002.1186 929.80287 997.61914 930.24609 C 995.43151 930.03066 993.49417 929.63681 991.43164 929.33203 C 989.89447 929.10488 985.05982 928.04973 982.15234 928.41797 C 975.79359 929.22327 970.1528 930.51367 963.58984 931.16016 C 951.50666 932.35037 926.40167 929.94719 914.08789 931.16016 C 911.90019 931.37559 909.96295 931.77139 907.90039 932.07617 C 905.83798 932.07617 903.66963 931.88342 901.71289 932.07617 C 898.94571 932.34868 898.44232 933.9043 895.52539 933.9043 C 894.06698 933.9043 893.64314 933.22734 892.42969 932.98828 C 889.17132 932.34637 880.1643 931.29535 876.96289 931.16016 C 871.89636 930.94623 847.42884 930.49541 842.92969 931.16016 C 841.62522 931.35291 841.04943 931.83708 839.83594 932.07617 C 832.39579 933.54191 823.61467 932.98828 815.08594 932.98828 C 811.99217 932.98828 808.37693 933.49542 805.80273 932.98828 C 797.90118 931.43165 794.1016 928.23921 784.14844 927.50391 C 776.29579 926.92379 763.86432 927.50391 756.30273 927.50391 L 691.33398 927.50391 C 685.27268 927.50391 681.71006 929.55497 675.86328 930.24609 C 670.03808 930.93465 664.73833 929.23558 660.39648 931.16016 C 659.58271 931.52072 659.33179 931.65897 658.7793 931.91602 C 657.38926 932.17302 654.32821 932.95415 648.01953 934.81836 C 645.59258 934.34025 644.10973 933.52675 641.83203 932.98828 C 638.92856 932.30188 636.12606 931.46199 632.55078 931.16016 C 629.56238 930.90768 626.40107 931.021 623.25586 931.09961 C 623.19728 930.04134 621.85521 930.36952 620.20703 931.16016 C 620.19569 931.16016 620.18517 931.16016 620.17383 931.16016 C 620.17761 931.16016 620.19739 931.16211 620.20117 931.16211 C 617.66197 932.38112 614.40715 934.69149 613.98438 934.81641 C 609.73244 936.07291 604.04465 936.86058 598.51758 937.56055 C 594.58744 938.05831 570.69331 937.79072 567.58008 937.56055 C 562.30322 937.17073 565.50897 935.72474 564.48438 934.81641 C 563.82371 934.23069 552.44367 931.19973 552.10938 931.16016 C 549.2369 930.82075 545.92197 931.16016 542.82812 931.16016 C 537.67179 931.16016 531.96939 930.47871 527.35742 931.16016 C 505.72669 934.35616 507.30689 935.73242 484.04492 935.73242 C 481.96546 935.73242 476.59155 936.00228 474.76562 935.73242 C 469.12139 934.89847 448.81596 927.16776 446.91992 927.50391 C 441.91757 928.39085 439.09836 930.08322 434.54297 931.16016 C 431.02181 931.99256 421.51933 930.48677 419.07617 930.24609 C 412.22774 929.57152 404.6369 930.24609 397.41797 930.24609 L 381.95117 930.24609 C 380.91985 930.24609 379.58473 930.03066 378.85547 930.24609 C 376.58726 930.91639 369.74102 935.75528 363.38672 934.81641 C 358.5267 934.09833 352.74864 930.41719 351.01172 930.24609 C 343.31802 929.48826 331.74218 930.06763 323.04102 930.19727 C 322.71651 930.01698 321.0093 930.24609 320.07422 930.24609 L 307.69922 930.24609 C 292.50328 930.24609 299.07269 930.16824 282.94922 932.07422 C 281.99174 932.1876 280.77589 931.93778 279.85352 932.07422 C 278.54909 932.26697 278.06618 932.79556 276.76172 932.98828 C 275.83934 933.12472 274.52406 932.81934 273.66602 932.98828 C 271.23901 933.46643 269.90552 934.33826 267.47852 934.81641 C 262.05162 935.88552 255.10365 933.59777 248.91602 932.98828 C 233.97984 931.51702 207.68765 934.66743 202.50977 933.90234 C 193.94356 932.63666 186.19233 929.33203 174.66406 929.33203 C 171.80386 929.33203 168.18463 931.7982 165.38281 932.07422 C 164.92995 932.11882 149.99033 932.97721 149.91211 932.98828 C 143.72452 933.90255 140.63286 936.64632 134.44531 937.56055 C 128.75893 938.40074 129.43264 935.94071 128.25781 935.73242 C 123.49566 934.88808 118.17484 934.30037 112.78711 933.90234 C 107.78472 933.53271 102.21205 934.38423 97.320312 933.90234 C 95.936711 933.7659 95.529083 933.18104 94.224609 932.98828 C 89.612611 932.30687 83.647619 932.50643 78.755859 932.98828 C 75.988671 933.26079 75.249386 934.47685 72.568359 934.81641 C 67.735066 935.4285 61.800983 935.03737 57.097656 935.73242 C 55.0351 936.03705 56.311881 937.56055 54.005859 937.56055 C 51.088967 937.56055 50.427299 936.1179 47.818359 935.73242 C 42.207624 934.90342 34.866594 933.9874 29.255859 934.81641 C 27.951396 935.00916 27.543771 935.59609 26.160156 935.73242 C 20.565183 936.28351 5.594193 934.79224 0.31445312 936.11719 C -0.25090822 936.25892 0.31766009 942.8247 -0.001953125 943.03711 L 0 943.03711 C 0.028308162 943.11863 0.026174483 945.3023 0.03125 947.38867 L 0 947.38867 L 0 1080 L 1920.0039 1080 L 1920.0039 947.38867 L 4.359375 943.04688 L 1920 947.38672 C 1919.9331 947.19358 1920.0221 937.30068 1919.8418 937.07617 C 1917.6828 934.39841 1907.7496 929.70806 1897.9219 931.16016 C 1893.6494 931.79145 1888.8927 935.63223 1888.6387 935.73242 C 1887.6001 936.14171 1877.3047 936.49277 1876.2637 936.64648 C 1873.6547 937.03196 1872.5031 937.9965 1870.0762 938.47461 C 1867.5019 938.98175 1863.8891 938.47461 1860.7949 938.47461 C 1841.1735 938.47461 1853.3154 937.91967 1836.0449 935.73242 C 1815.3529 933.11185 1801.3449 937.36257 1783.4492 932.07422 C 1782.72 931.85879 1783.9105 931.43274 1783.4492 931.16016 C 1781.0421 929.7375 1772.6899 928.41797 1767.9805 928.41797 C 1766.522 928.41797 1766.0256 929.06282 1764.8867 929.33203 C 1760.8604 930.28394 1757.2217 931.4554 1752.5098 932.07422 C 1745.0938 933.04824 1740.5218 932.98828 1733.9473 932.98828 C 1726.9424 932.98828 1707.3606 933.63103 1703.0098 932.98828 C 1699.684 932.4969 1696.3596 931.93711 1693.7305 931.16016 C 1689.9624 930.04663 1692.2794 929.11805 1687.541 928.41797 C 1680.3829 927.36031 1667.9245 928.82313 1659.6973 928.41797 C 1651.2795 928.00339 1646.6188 927.50391 1638.041 927.50391 L 1622.5703 927.50391 C 1619.4765 927.50391 1616.1637 927.1645 1613.291 927.50391 C 1610.5828 927.82403 1609.6361 928.90442 1607.1035 929.33203 C 1602.2816 930.14629 1596.8328 930.58393 1591.6328 931.16016 C 1588.5793 931.49842 1585.6128 932.07422 1582.3516 932.07422 C 1580.0456 932.07422 1578.3518 931.37566 1576.1641 931.16016 C 1560.287 929.59623 1540.2588 931.98217 1523.5684 931.16016 C 1513.653 930.67184 1510.1145 928.92118 1505.0059 928.41797 C 1496.9486 927.62427 1484.6266 929.52083 1477.1621 928.41797 C 1473.8363 927.92655 1471.4861 926.85634 1467.8789 926.58984 C 1462.8765 926.22021 1457.5684 926.58984 1452.4121 926.58984 C 1449.3183 926.58984 1445.8961 926.18097 1443.1289 926.58984 C 1440.52 926.97532 1439.7086 928.14539 1436.9414 928.41797 C 1431.4794 928.95598 1418.6918 928.41797 1412.1914 928.41797 C 1404.3289 928.41797 1374.1653 927.63659 1368.877 928.41797 C 1354.4392 930.55121 1377.1273 928.11297 1362.6895 930.24609 C 1361.1361 930.47551 1293.3025 930.42033 1291.5332 930.24609 C 1286.5061 929.75094 1285.419 927.96644 1279.1582 927.50391 C 1259.2204 926.03102 1261.3631 928.76104 1251.3125 930.24609 C 1244.8794 931.19661 1233.7191 929.71738 1226.5625 930.24609 C 1224.3253 930.41126 1222.5626 930.94469 1220.375 931.16016 C 1219.441 931.252 1196.7863 929.50366 1195.625 929.33203 C 1194.3205 929.13928 1193.8356 928.61069 1192.5312 928.41797 C 1189.6984 927.99939 1178.6701 928.53702 1177.0605 928.41797 C 1177.0583 928.41778 1170.873 926.59007 1170.873 926.58984 C 1168.7035 926.3763 1163.5967 926.31049 1158.4922 926.33203 z "
       transform="scale(0.26458333)" />
    <path
       id="path4535"
       style="fill:#ffffff;stroke:#000000;stroke-width:0.143922px;stroke-linecap:butt;stroke-linejoin:miter;stroke-opacity:1"
       d="m 306.5178,245.09246 c -1.35061,0.006 -2.70068,0.0341 -3.27285,0.068 -0.59826,0.0353 -1.04519,0.19806 -1.63712,0.24178 -3.32103,0.24535 -7.24606,-0.14332 -10.64108,0 -4.41376,0.18633 -11.49351,0.72074 -13.09716,0.48378 -0.34514,-0.051 -0.45282,-0.20571 -0.81889,-0.24178 -0.51775,-0.051 -1.11947,0.051 -1.63718,0 -0.36608,-0.0361 -0.47304,-0.191 -0.8182,-0.242 -0.73605,-0.10875 -9.45132,0.60852 -10.64179,0.72579 -0.57881,-0.057 -1.09143,-0.16137 -1.63714,-0.24201 -0.40671,-0.0601 -1.68608,-0.33921 -2.45535,-0.24178 -1.68242,0.21307 -3.17498,0.55452 -4.91143,0.72557 -3.19701,0.31491 -9.83913,-0.32093 -13.09715,0 -0.57883,0.057 -1.09143,0.16137 -1.63715,0.24201 -0.54568,0 -1.11941,-0.051 -1.63713,0 -0.73215,0.0721 -0.86537,0.48378 -1.63714,0.48378 -0.38587,0 -0.49788,-0.17875 -0.81894,-0.242 -0.86211,-0.16984 -3.24546,-0.44802 -4.0925,-0.48379 -1.34052,-0.0566 -7.81425,-0.17588 -9.00465,0 -0.34514,0.051 -0.49712,0.17875 -0.81819,0.24201 -1.96854,0.38781 -4.29203,0.24178 -6.54859,0.24178 -0.81856,0 -1.77498,0.13418 -2.45607,0 -2.09062,-0.41186 -3.0962,-1.25681 -5.72964,-1.45136 -2.07768,-0.15349 -5.36684,0 -7.36751,0 h -17.18963 c -1.60372,0 -2.54626,0.54293 -4.09322,0.72579 -1.54125,0.18218 -2.94371,-0.26743 -4.09249,0.24178 -0.21531,0.0954 -0.28161,0.13157 -0.42779,0.19958 -0.36778,0.068 -1.17733,0.27475 -2.8465,0.76799 -0.64213,-0.1265 -1.03451,-0.34131 -1.63715,-0.48378 -0.76821,-0.18161 -1.51012,-0.40393 -2.45608,-0.48379 -0.79068,-0.0668 -1.62684,-0.037 -2.45901,-0.0162 -0.0155,-0.28 -0.37039,-0.19339 -0.80647,0.0158 -0.003,0 -0.006,2.2e-4 -0.009,2.2e-4 10e-4,0 0.006,4.2e-4 0.007,4.2e-4 -0.67183,0.32253 -1.53262,0.93409 -1.64448,0.96714 -1.12499,0.33245 -2.63011,0.54058 -4.09248,0.72578 -1.03985,0.1317 -7.36201,0.0609 -8.18572,0 -1.39617,-0.10314 -0.54784,-0.48545 -0.81893,-0.72578 -0.1748,-0.15497 -3.18584,-0.9571 -3.27429,-0.96757 -0.76001,-0.0898 -1.63676,0 -2.45534,0 -1.36428,0 -2.87298,-0.1803 -4.09323,0 -5.72313,0.84561 -5.30527,1.20957 -11.46,1.20957 -0.55019,0 -1.97224,0.0714 -2.45535,0 -1.49337,-0.22065 -6.86585,-2.26609 -7.36751,-2.17715 -1.32354,0.23467 -2.069,0.68264 -3.27428,0.96758 -0.93164,0.22024 -3.44607,-0.17811 -4.09249,-0.24179 -1.81198,-0.17848 -3.82036,0 -5.73037,0 h -4.09249 c -0.27287,0 -0.62599,-0.057 -0.81894,0 -0.600133,0.17735 -2.411249,1.45777 -4.092492,1.20936 -1.285881,-0.18999 -2.814726,-1.16409 -3.274287,-1.20936 -2.035625,-0.20051 -5.098286,-0.0471 -7.40047,-0.0128 -0.08586,-0.0477 -0.537836,0.0128 -0.785242,0.0128 h -3.274287 c -4.020592,0 -2.282572,-0.0205 -6.548573,0.48379 -0.253332,0.03 -0.57489,-0.0361 -0.818936,0 -0.345128,0.051 -0.473066,0.19079 -0.818205,0.24178 -0.244046,0.0361 -0.591917,-0.0447 -0.81894,0 -0.642146,0.12651 -0.994995,0.35728 -1.637141,0.48379 -1.435865,0.28287 -3.274283,-0.32253 -4.911428,-0.48379 -3.951863,-0.38927 -10.908229,0.44443 -12.27821,0.242 -2.266474,-0.33488 -4.317321,-1.20957 -7.367508,-1.20957 -0.756762,0 -1.714033,0.65276 -2.455347,0.72579 -0.11982,0.0118 -4.072527,0.23885 -4.093222,0.24178 -1.637134,0.2419 -2.455368,0.96768 -4.092491,1.20957 -1.504523,0.2223 -1.326304,-0.42867 -1.637145,-0.48378 -1.259986,-0.2234 -2.667718,-0.37848 -4.093223,-0.48379 -1.32355,-0.0978 -2.79822,0.1275 -4.092492,0 -0.366078,-0.0361 -0.473793,-0.191 -0.818935,-0.242 -1.220258,-0.18029 -2.798214,-0.12749 -4.092492,0 -0.732152,0.0721 -0.927789,0.39395 -1.637144,0.48379 -1.278809,0.16195 -2.848802,0.0581 -4.093224,0.242 -0.545718,0.0806 -0.208069,0.48378 -0.818204,0.48378 -0.771761,0 -0.94686,-0.38179 -1.637142,-0.48378 -1.484507,-0.21934 -3.426924,-0.46134 -4.9114309,-0.242 -0.3451392,0.051 -0.4528549,0.20593 -0.8189363,0.242 -1.4803366,0.14581 -5.4417135,-0.24839 -6.83864468,0.10217 -0.14958519,0.0375 0.0010614,1.77461 -0.0835029264,1.83081 L 507.99994,250.66299 c -0.0177,-0.0511 0.006,-2.66842 -0.0417,-2.72782 -0.57123,-0.70849 -3.19968,-1.94963 -5.79994,-1.56543 -1.13042,0.16703 -2.38891,1.18306 -2.45611,1.20957 -0.27479,0.10829 -2.99883,0.20112 -3.27426,0.24179 -0.6903,0.10199 -0.99506,0.35729 -1.63718,0.48379 -0.68111,0.13418 -1.6367,0 -2.45536,0 -5.1915,0 -1.97908,-0.14687 -6.54855,-0.72558 -5.47477,-0.69336 -9.18119,0.43164 -13.9161,-0.96757 -0.19294,-0.057 0.12205,-0.16988 0,-0.242 -0.63688,-0.37641 -2.84643,-0.72557 -4.09248,-0.72557 -0.38588,0 -0.51762,0.17055 -0.81894,0.24178 -1.0653,0.25186 -2.02755,0.56206 -3.27426,0.72579 -1.96215,0.25771 -3.17191,0.24179 -4.91142,0.24179 -1.85338,0 -7.03458,0.17006 -8.18573,0 -0.87993,-0.13001 -1.75973,-0.27822 -2.45536,-0.48379 -0.99697,-0.29462 -0.38344,-0.54034 -1.63713,-0.72557 -1.89392,-0.27984 -5.19072,0.1072 -7.3675,0 -2.22721,-0.10969 -3.46012,-0.242 -5.72965,-0.242 h -4.09324 c -0.81856,0 -1.69526,-0.0898 -2.45532,0 -0.71655,0.0847 -0.96708,0.37064 -1.63716,0.48378 -1.27579,0.21544 -2.71737,0.33133 -4.0932,0.48379 -0.80792,0.0895 -1.59251,0.242 -2.45537,0.242 -0.61011,0 -1.05829,-0.18498 -1.63712,-0.242 -4.20081,-0.41379 -9.5001,0.21749 -13.9161,0 -2.62345,-0.1292 -3.55978,-0.59243 -4.91143,-0.72557 -2.13181,-0.21 -5.39181,0.2918 -7.36678,0 -0.87996,-0.13002 -1.50166,-0.41328 -2.45607,-0.48379 -1.32355,-0.0978 -2.7282,0 -4.09248,0 -0.81857,0 -1.72393,-0.10818 -2.45608,0 -0.69026,0.10199 -0.90501,0.41167 -1.63716,0.48379 -1.44515,0.14235 -4.82866,0 -6.54856,0 -2.08029,0 -10.06082,-0.20674 -11.46003,0 -3.81998,0.56442 2.18289,-0.0806 -1.63713,0.48379 -0.411,0.0607 -18.35865,0.0461 -18.82677,0 -1.33008,-0.13101 -1.61778,-0.60341 -3.27429,-0.72579 -5.27522,-0.3897 -4.70827,0.33287 -7.3675,0.72579 -1.7021,0.25149 -4.65509,-0.13989 -6.5486,0 -0.59192,0.0437 -1.05833,0.18477 -1.63713,0.24178 -0.24711,0.0243 -6.24128,-0.43838 -6.54855,-0.48379 -0.34516,-0.051 -0.47311,-0.19079 -0.81823,-0.24178 -0.74952,-0.11075 -3.66734,0.0315 -4.09321,0 -5.9e-4,-5e-5 -1.63716,-0.48373 -1.63716,-0.48379 -0.57403,-0.0565 -1.92516,-0.0737 -3.27572,-0.068 z M -6.1505501e-5,249.51234 c 0.0177094355,0.051 -0.0054230945,2.66842 0.0424846655,2.72781 0.57122908,0.7085 3.19964574,1.94964 5.79995294,1.56544 1.1304118,-0.16703 2.3888926,-1.18306 2.4560813,-1.20958 0.2748189,-0.10829 2.9988556,-0.20111 3.2742856,-0.24178 0.690271,-0.10199 0.995037,-0.35729 1.637141,-0.48379 0.681113,-0.13418 1.636741,0 2.45535,0 5.191516,0 1.979115,0.14686 6.548573,0.72557 5.474785,0.69336 9.181197,-0.43164 13.916078,0.96758 0.192963,0.057 -0.122045,0.16988 0,0.242 0.636903,0.3764 2.846459,0.72557 4.092492,0.72557 0.385879,0 0.517639,-0.17055 0.81894,-0.24179 1.0653,-0.25185 2.02757,-0.56205 3.274287,-0.72578 1.962143,-0.25771 3.17191,-0.24179 4.911426,-0.24179 1.853383,0 7.034567,-0.17007 8.185714,0 0.87993,0.13 1.759721,0.27822 2.455351,0.48379 0.996968,0.29461 0.383452,0.54033 1.637141,0.72557 1.893921,0.27984 5.190728,-0.1072 7.367509,0 2.227212,0.10969 3.460108,0.242 5.729636,0.242 h 4.093223 c 0.818565,0 1.69528,0.0898 2.455346,0 0.71655,-0.0847 0.96706,-0.37064 1.637146,-0.48379 1.275773,-0.21543 2.717376,-0.33132 4.093222,-0.48378 0.807906,-0.0895 1.592485,-0.242 2.455347,-0.242 0.610112,0 1.058316,0.18498 1.637144,0.242 4.200811,0.41378 9.500081,-0.21749 13.916081,0 2.62346,0.1292 3.55978,0.59243 4.91143,0.72557 2.1318,0.21 5.39109,-0.29181 7.36605,0 0.87997,0.13001 1.5024,0.41327 2.45681,0.48378 1.32355,0.0978 2.72821,0 4.09249,0 0.81857,0 1.72392,0.10818 2.45608,0 0.69025,-0.10199 0.90499,-0.41166 1.63714,-0.48378 1.44514,-0.14235 4.82866,0 6.54858,0 2.08027,0 10.0608,0.20674 11.46,0 3.81998,-0.56442 -2.18289,0.0806 1.63713,-0.48379 0.411,-0.0607 18.35866,-0.0461 18.82679,0 1.33007,0.13101 1.61777,0.60341 3.27429,0.72579 5.27522,0.3897 4.70827,-0.33288 7.3675,-0.72579 1.70209,-0.25149 4.65507,0.13988 6.54858,0 0.59193,-0.0437 1.0576,-0.18477 1.63641,-0.24178 0.24712,-0.0243 6.24204,0.43838 6.5493,0.48378 0.34515,0.051 0.47309,0.19079 0.8182,0.24179 0.74955,0.11075 3.66736,-0.0315 4.09323,0 5.9e-4,4e-5 1.63714,0.48372 1.63714,0.48378 1.14812,0.1131 5.40424,0.0676 6.54857,0 0.59826,-0.0353 1.04522,-0.19805 1.63714,-0.24178 3.321,-0.24535 7.24603,0.14332 10.64107,0 4.41375,-0.18632 11.4935,-0.72074 13.09714,-0.48379 0.34515,0.051 0.45285,0.20572 0.81895,0.24179 0.5177,0.051 1.1187,-0.051 1.63641,0 0.36607,0.0361 0.47379,0.191 0.81893,0.242 0.73607,0.10875 9.45132,-0.60852 10.64179,-0.72579 0.57882,0.057 1.09143,0.16137 1.63715,0.242 0.4067,0.0601 1.68606,0.33922 2.45534,0.24179 1.68241,-0.21307 3.17498,-0.55453 4.91144,-0.72557 3.19701,-0.31491 9.83911,0.32092 13.09713,0 0.57883,-0.057 1.09143,-0.16137 1.63715,-0.242 0.5457,0 1.11942,0.051 1.63714,0 0.73216,-0.0721 0.86537,-0.48379 1.63715,-0.48379 0.38586,0 0.49787,0.17874 0.81893,0.242 0.86211,0.16984 3.24546,0.44801 4.09248,0.48379 1.34055,0.0566 7.81429,0.17588 9.00466,0 0.34515,-0.051 0.49712,-0.17875 0.81819,-0.242 1.96856,-0.38782 4.29204,-0.24179 6.5486,-0.24179 0.81857,0 1.77499,-0.13418 2.45607,0 2.09062,0.41185 3.09619,1.25681 5.72966,1.45136 2.07765,0.15349 5.36683,0 7.36748,0 h 17.18966 c 1.6037,0 2.54626,-0.54293 4.09319,-0.72579 1.54127,-0.18218 2.94374,0.26742 4.09249,-0.24178 0.21534,-0.0954 0.28161,-0.13158 0.42781,-0.19958 0.36776,-0.068 1.17733,-0.27475 2.84648,-0.76799 0.64215,0.1265 1.03452,0.34131 1.63717,0.48378 0.76819,0.18161 1.5101,0.40392 2.45607,0.48379 0.79067,0.0668 1.62683,0.037 2.459,0.0163 0.0155,0.28 0.37039,0.19339 0.80649,-0.0158 0.003,0 0.006,-2.2e-4 0.009,-2.2e-4 -10e-4,0 -0.006,-4.2e-4 -0.007,-4.2e-4 0.67181,-0.32253 1.5326,-0.93409 1.64444,-0.96714 1.12501,-0.33245 2.63012,-0.54058 4.09249,-0.72579 1.03988,-0.13169 7.36202,-0.0609 8.18573,0 1.39616,0.10315 0.54785,0.48545 0.81893,0.72579 0.1748,0.15496 3.18583,0.9571 3.27429,0.96757 0.76,0.0899 1.63676,0 2.45533,0 1.36428,0 2.873,0.18031 4.09324,0 5.72313,-0.84561 5.30525,-1.20957 11.45997,-1.20957 0.55023,0 1.97228,-0.0714 2.45536,0 1.49339,0.22065 6.86586,2.26609 7.36755,2.17715 1.32351,-0.23467 2.06899,-0.68264 3.27426,-0.96758 0.93164,-0.22023 3.44606,0.17811 4.09249,0.24179 1.81196,0.17848 3.82034,0 5.73035,0 h 4.09249 c 0.27289,0 0.62603,0.057 0.81895,0 0.60013,-0.17735 2.41124,-1.45777 4.09249,-1.20936 1.2859,0.18999 2.81475,1.16409 3.27429,1.20936 2.03565,0.20051 5.09831,0.0471 7.40047,0.0128 0.0859,0.0477 0.53785,-0.0128 0.78525,-0.0128 h 3.27431 c 4.02059,0 2.28254,0.0205 6.54855,-0.48379 0.25335,-0.0299 0.5749,0.0361 0.81894,0 0.34511,-0.051 0.47304,-0.19079 0.81819,-0.24178 0.24404,-0.0361 0.59193,0.0447 0.81894,0 0.64214,-0.12651 0.99503,-0.35729 1.63717,-0.48379 1.43585,-0.28288 3.27426,0.32253 4.91142,0.48379 3.95185,0.38927 10.90823,-0.44443 12.27818,-0.242 2.26649,0.33488 4.31732,1.20957 7.36754,1.20957 0.75675,0 1.71402,-0.65276 2.45531,-0.72579 0.11978,-0.0118 4.07255,-0.23885 4.09324,-0.24178 1.63714,-0.2419 2.45536,-0.96768 4.09249,-1.20958 1.50449,-0.22229 1.32629,0.42868 1.63713,0.48379 1.25999,0.2234 2.66774,0.37848 4.09324,0.48379 1.32356,0.0978 2.79822,-0.12749 4.09249,0 0.36608,0.0361 0.47379,0.191 0.81893,0.242 1.22028,0.18029 2.79823,0.12749 4.09249,0 0.73216,-0.0721 0.92783,-0.39396 1.63718,-0.48379 1.27877,-0.16196 2.84877,-0.0581 4.09319,-0.242 0.54573,-0.0806 0.20807,-0.48379 0.81823,-0.48379 0.77176,0 0.94683,0.3818 1.63713,0.48379 1.4845,0.21934 3.42691,0.46133 4.91144,0.242 0.34514,-0.051 0.45285,-0.20593 0.81893,-0.242 1.48033,-0.14581 5.4417,0.24839 6.83865,-0.10217 0.14953,-0.0375 -10e-4,-1.77461 0.0835,-1.83081 z" />
  </g>
</svg>
