<?xml version="1.0" encoding="UTF-8" standalone="no"?>
<!-- Created with Inkscape (http://www.inkscape.org/) -->

<svg
   width="1920"
   height="1080"
   viewBox="0 0 507.99999 285.75001"
   version="1.1"
   id="svg5"
   inkscape:version="1.1.2 (0a00cf5339, 2022-02-04)"
   sodipodi:docname="bottom_chaos_mountain.svg"
   xmlns:inkscape="http://www.inkscape.org/namespaces/inkscape"
   xmlns:sodipodi="http://sodipodi.sourceforge.net/DTD/sodipodi-0.dtd"
   xmlns="http://www.w3.org/2000/svg"
   xmlns:svg="http://www.w3.org/2000/svg">
  <sodipodi:namedview
     id="namedview7"
     pagecolor="#ffffff"
     bordercolor="#999999"
     borderopacity="1"
     inkscape:pageshadow="0"
     inkscape:pageopacity="0"
     inkscape:pagecheckerboard="0"
     inkscape:document-units="mm"
     showgrid="false"
     units="px"
     width="1920px"
     inkscape:snap-page="true"
     inkscape:zoom="0.37727624"
     inkscape:cx="789.87216"
     inkscape:cy="471.80284"
     inkscape:window-width="1920"
     inkscape:window-height="1019"
     inkscape:window-x="0"
     inkscape:window-y="0"
     inkscape:window-maximized="1"
     inkscape:current-layer="layer1"
     showguides="true">
    <inkscape:grid
       type="xygrid"
       id="grid1010" />
  </sodipodi:namedview>
  <defs
     id="defs2">
    <clipPath
       clipPathUnits="userSpaceOnUse"
       id="clipPath6148">
      <rect
         style="fill:#e6e6e6;stroke:none;stroke-width:2.11069;stroke-linecap:round;paint-order:markers fill stroke"
         id="rect6150"
         width="508"
         height="168.06055"
         x="-11.989936"
         y="264.11856" />
    </clipPath>
  </defs>
  <g
     inkscape:label="Layer 1"
     inkscape:groupmode="layer"
     id="layer1">
    <g
       id="g9700"
       transform="matrix(0.98214726,0,0,0.97884126,5.3743265,8.9109004)"
       style="fill:#241f31">
      <path
         id="path9276"
         clip-path="none"
         style="opacity:0.466185;fill:#241f31;fill-opacity:1;stroke:none;stroke-width:0.749062;stroke-linecap:round;paint-order:markers fill stroke"
         d="m 502.52797,194.51991 -37.02047,61.3146 -39.33404,-34.7064 -41.64809,26.60871 -20.82406,-5.78466 -27.52495,19.18384 -36.55951,-24.14323 -15.77525,18.14153 -9.46558,-7.09879 -15.59751,8.44858 -36.83909,-16.97209 -44.38282,16.32251 -39.33403,-34.7064 -41.648107,26.60871 -20.824049,-5.78466 -8.704895,6.06681 -5.472017,-2.96416 -9.465572,7.09931 -15.775265,-18.14205 -41.804682,27.6071 v 21.16667 H 502.52797 v -21.16667 z" />
      <path
         id="path9530"
         clip-path="none"
         style="opacity:0.466185;fill:#241f31;fill-opacity:1;stroke:none;stroke-width:0.749062;stroke-linecap:round;paint-order:markers fill stroke"
         d="m 511.23286,193.7448 -37.02047,61.3146 -39.33404,-34.7064 -41.64809,26.60871 -20.82406,-5.78466 -27.52495,19.18384 -36.55951,-24.14323 -15.77525,18.14153 -9.46558,-7.09879 -15.59751,8.44858 -36.83909,-16.97209 -44.38282,16.32251 -39.33403,-34.7064 -41.6481,26.60871 -20.824051,-5.78466 -8.704895,6.06681 -5.472017,-2.96416 -9.465572,7.09931 -15.775265,-18.14205 -41.804682,27.6071 v 21.16667 H 511.23286 v -21.16667 z" />
      <path
         id="path9692"
         clip-path="none"
         style="opacity:0.466185;fill:#241f31;fill-opacity:1;stroke:none;stroke-width:0.749062;stroke-linecap:round;paint-order:markers fill stroke"
         d="m 506.47033,193.7448 -37.02047,61.3146 -39.33404,-34.7064 -41.64809,26.60871 -20.82406,-5.78466 -27.52495,19.18384 -36.55951,-24.14323 -15.77525,18.14153 -9.46558,-7.09879 -15.59751,8.44858 -36.83909,-16.97209 -44.38282,16.32251 -39.33403,-34.7064 -41.6481,26.60871 -20.824024,-5.78466 -8.704895,6.06681 -5.472017,-2.96416 -9.465572,7.09931 -15.775265,-18.14205 -41.8046792,27.6071 v 21.16667 H 506.47033 v -21.16667 z" />
      <path
         id="path9694"
         clip-path="none"
         style="opacity:0.466185;fill:#241f31;fill-opacity:1;stroke:none;stroke-width:0.749062;stroke-linecap:round;paint-order:markers fill stroke"
         d="m 511.76203,188.98227 -37.02047,61.3146 -39.33404,-34.7064 -41.64809,26.60871 -20.82406,-5.78466 -27.52495,19.18384 -36.55951,-24.14323 -15.77525,18.14153 -9.46558,-7.09879 -15.59751,8.44858 -36.83909,-16.97209 -44.38282,16.32251 -39.33403,-34.7064 -41.6481,26.60871 -20.824054,-5.78466 -8.704895,6.06681 -5.472017,-2.96416 -9.465572,7.09931 -15.775265,-18.14205 -41.8046823,27.6071 V 277.2482 H 511.76203 v -21.16667 z" />
    </g>
    <path
       id="path9702"
       clip-path="none"
       style="opacity:1;fill:#241f31;fill-opacity:1;stroke:none;stroke-width:0.642836;stroke-linecap:round;paint-order:markers fill stroke"
       d="m 508,217.43183 -4.54703,4.84869 v -3.00079 l -3.87213,4.8963 v -4.31516 l -31.06475,39.28335 -34.85732,-23.48275 -8.83563,4.31 -0.23357,-0.15756 -32.22284,15.71825 -20.06494,-4.25539 -8.16383,4.34445 -0.90537,-0.19199 -18.61437,9.90545 -35.25676,-17.77684 -4.47931,3.93312 -0.71779,-0.36185 -1.83296,1.60929 -2.03917,-1.02813 -9.05113,7.94741 -6.66985,-3.81911 -15.31898,6.33535 -36.18125,-12.72693 -43.59062,12.24 -38.63175,-26.02552 -8.83563,4.31 -0.23358,-0.15756 -32.22284,15.71825 -20.064922,-4.25539 -8.163843,4.34445 -0.905372,-0.19199 -0.192752,0.10252 -4.66173,-1.92836 -8.013981,4.58912 -1.055235,-0.43666 -0.944644,0.54117 -14.776357,-12.97437 -8.764842,4.41929 -0.304374,-0.26683 L 0,269.84954 V 285.75 c 165.16535,0 352.00584,0 508,0 0,-21.82492 0,-43.66595 0,-68.31817 z"
       sodipodi:nodetypes="ccccccccccccccccccccccccccccccccccccccccccc" />
  </g>
</svg>
